{"glyphs":{"0":{"ha":947,"x_min":0,"x_max":0,"o":"m 474 -24 b 69 525 217 -24 69 168 b 474 1071 69 882 217 1071 b 878 524 732 1071 878 881 b 474 -24 878 165 732 -24 m 225 524 b 474 89 225 217 314 89 b 722 524 633 89 722 217 b 474 960 722 831 633 960 b 225 524 314 960 225 831 "},"1":{"ha":569,"x_min":0,"x_max":0,"o":"m 292 186 l 292 814 b 40 676 257 751 174 683 l 40 799 b 331 1051 207 814 315 946 l 449 1051 l 449 186 l 449 0 l 292 0 "},"2":{"ha":901,"x_min":0,"x_max":0,"o":"m 74 22 b 368 394 74 131 86 165 b 660 760 583 569 660 625 b 461 954 660 894 586 954 b 217 686 290 954 221 831 l 71 686 b 479 1072 85 921 229 1072 b 817 771 679 1072 817 968 b 568 389 817 653 772 551 b 258 121 453 299 328 204 l 822 121 l 822 0 l 74 0 l 74 22 "},"3":{"ha":943,"x_min":0,"x_max":0,"o":"m 485 -24 b 54 356 239 -24 74 118 l 197 356 b 485 96 211 188 317 96 b 726 293 647 96 726 181 b 436 501 726 425 618 501 l 346 501 l 346 613 l 461 613 b 706 794 617 613 706 694 b 494 958 706 876 653 958 b 214 743 338 958 236 882 l 71 743 b 503 1072 97 942 256 1072 b 851 810 728 1072 851 961 b 625 563 851 679 757 593 b 876 286 763 535 876 447 b 485 -24 876 115 726 -24 "},"4":{"ha":981,"x_min":0,"x_max":0,"o":"m 600 186 l 600 247 l 33 247 l 33 344 l 640 1051 l 749 1051 l 749 365 l 950 365 l 950 247 l 749 247 l 749 186 l 749 0 l 600 0 m 600 365 l 601 849 l 188 365 "},"5":{"ha":915,"x_min":0,"x_max":0,"o":"m 451 -24 b 49 333 221 -24 65 108 l 183 333 b 444 96 197 179 293 96 b 703 342 619 96 703 204 b 458 581 703 503 604 581 b 215 471 372 581 276 553 l 93 525 l 161 1051 l 808 1051 l 808 931 l 267 931 l 219 576 b 500 686 285 649 393 686 b 856 344 715 686 856 565 b 451 -24 856 135 710 -24 "},"6":{"ha":979,"x_min":0,"x_max":0,"o":"m 497 -24 b 68 468 203 -24 68 182 b 546 1068 68 761 210 1068 b 918 743 751 1068 892 954 l 774 743 b 539 950 760 868 678 950 b 219 474 304 950 219 710 l 219 472 b 546 679 269 608 406 679 b 901 335 744 679 901 551 b 497 -24 901 117 740 -24 m 236 314 b 493 94 268 176 351 94 b 746 336 638 94 746 178 b 513 571 746 493 638 571 b 236 314 375 571 250 476 "},"7":{"ha":792,"x_min":0,"x_max":0,"o":"m 594 931 l 19 931 l 19 1051 l 767 1051 l 767 985 l 250 0 l 85 0 "},"8":{"ha":999,"x_min":0,"x_max":0,"o":"m 500 -24 b 58 283 240 -24 58 89 b 349 565 58 438 175 536 b 121 804 196 596 121 688 b 499 1069 121 957 250 1069 b 879 808 749 1069 879 958 b 650 565 879 689 803 596 b 940 283 824 536 940 438 b 500 -24 940 89 760 -24 m 221 300 b 500 92 221 165 344 92 b 779 300 654 92 779 165 b 500 503 779 424 671 503 b 221 300 329 503 221 424 m 269 796 b 500 611 269 696 353 611 b 731 796 646 611 731 696 b 500 968 731 896 643 968 b 269 796 357 968 269 896 "},"9":{"ha":979,"x_min":0,"x_max":0,"o":"m 478 1072 b 910 560 776 1072 910 857 b 454 -21 910 276 794 -21 b 75 306 244 -21 107 94 l 219 306 b 456 97 239 181 315 97 b 760 558 701 97 760 344 l 760 575 b 429 372 710 443 575 372 b 78 710 229 372 78 499 b 478 1072 78 932 240 1072 m 233 711 b 467 481 233 557 342 481 b 742 740 606 481 729 575 b 488 954 707 879 625 954 b 233 711 342 954 233 871 "}," ":{"ha":375,"x_min":0,"x_max":0,"o":""},"A":{"ha":947,"x_min":0,"x_max":0,"o":"m 10 0 b 65 149 26 46 49 103 l 375 969 b 404 1051 386 1000 396 1025 l 544 1051 l 885 142 b 938 0 901 96 922 43 l 772 0 b 725 142 758 43 742 94 l 678 275 l 263 275 l 215 143 b 167 0 199 96 181 42 l 10 0 m 639 386 l 471 865 l 301 386 "},"Á":{"ha":947,"x_min":0,"x_max":0,"o":"m 10 0 b 65 149 26 46 49 103 l 375 969 b 404 1051 386 1000 396 1025 l 544 1051 l 885 142 b 938 0 901 96 922 43 l 772 0 b 725 142 758 43 742 94 l 678 275 l 263 275 l 215 143 b 167 0 199 96 181 42 l 10 0 m 639 386 l 471 865 l 301 386 m 560 1343 l 703 1343 l 519 1142 l 425 1142 "},"Ă":{"ha":947,"x_min":0,"x_max":0,"o":"m 10 0 b 65 149 26 46 49 103 l 375 969 b 404 1051 386 1000 396 1025 l 544 1051 l 885 142 b 938 0 901 96 922 43 l 772 0 b 725 142 758 43 742 94 l 678 275 l 263 275 l 215 143 b 167 0 199 96 181 42 l 10 0 m 347 1343 b 475 1228 347 1268 392 1228 b 603 1343 558 1228 603 1267 l 701 1343 b 475 1136 701 1211 624 1136 b 249 1343 328 1136 249 1211 m 639 386 l 471 865 l 301 386 "},"Â":{"ha":947,"x_min":0,"x_max":0,"o":"m 10 0 b 65 149 26 46 49 103 l 375 969 b 404 1051 386 1000 396 1025 l 544 1051 l 885 142 b 938 0 901 96 922 43 l 772 0 b 725 142 758 43 742 94 l 678 275 l 263 275 l 215 143 b 167 0 199 96 181 42 l 10 0 m 432 1343 l 518 1343 l 717 1142 l 586 1142 l 475 1261 l 364 1142 l 235 1142 m 639 386 l 471 865 l 301 386 "},"Ä":{"ha":947,"x_min":0,"x_max":0,"o":"m 10 0 b 65 149 26 46 49 103 l 375 969 b 404 1051 386 1000 396 1025 l 544 1051 l 885 142 b 938 0 901 96 922 43 l 772 0 b 725 142 758 43 742 94 l 678 275 l 263 275 l 215 143 b 167 0 199 96 181 42 l 10 0 m 282 1318 l 404 1318 l 404 1169 l 282 1169 m 639 386 l 471 865 l 301 386 m 544 1318 l 667 1318 l 667 1169 l 544 1169 "},"À":{"ha":947,"x_min":0,"x_max":0,"o":"m 10 0 b 65 149 26 46 49 103 l 375 969 b 404 1051 386 1000 396 1025 l 544 1051 l 885 142 b 938 0 901 96 922 43 l 772 0 b 725 142 758 43 742 94 l 678 275 l 263 275 l 215 143 b 167 0 199 96 181 42 l 10 0 m 385 1343 l 519 1142 l 425 1142 l 242 1343 m 639 386 l 471 865 l 301 386 "},"Ā":{"ha":947,"x_min":0,"x_max":0,"o":"m 10 0 b 65 149 26 46 49 103 l 375 969 b 404 1051 386 1000 396 1025 l 544 1051 l 885 142 b 938 0 901 96 922 43 l 772 0 b 725 142 758 43 742 94 l 678 275 l 263 275 l 215 143 b 167 0 199 96 181 42 l 10 0 m 238 1283 l 714 1283 l 714 1199 l 238 1199 m 639 386 l 471 865 l 301 386 "},"Ą":{"ha":947,"x_min":0,"x_max":0,"o":"m 10 0 b 65 149 26 46 49 103 l 375 969 b 404 1051 386 1000 396 1025 l 544 1051 l 885 142 b 938 0 901 96 922 43 l 893 0 b 767 -185 831 -43 767 -99 b 831 -250 767 -232 799 -250 b 915 -210 868 -250 894 -235 l 915 -282 b 801 -329 889 -311 851 -329 b 669 -201 735 -329 669 -292 b 801 0 669 -108 733 -43 l 772 0 b 725 142 758 43 742 94 l 678 275 l 263 275 l 215 143 b 167 0 199 96 181 42 l 10 0 m 639 386 l 471 865 l 301 386 "},"Å":{"ha":947,"x_min":0,"x_max":0,"o":"m 10 0 b 65 149 26 46 49 103 l 375 969 b 404 1051 386 1000 396 1025 l 544 1051 l 885 142 b 938 0 901 96 922 43 l 772 0 b 725 142 758 43 742 94 l 678 275 l 263 275 l 215 143 b 167 0 199 96 181 42 l 10 0 m 639 386 l 471 865 l 301 386 m 319 1260 b 474 1390 319 1340 381 1390 b 632 1260 569 1390 632 1340 b 474 1129 632 1178 569 1129 b 319 1260 381 1129 319 1178 m 383 1260 b 474 1181 383 1213 421 1181 b 565 1260 528 1181 565 1213 b 474 1339 565 1307 528 1339 b 383 1260 421 1339 383 1307 "},"Ã":{"ha":947,"x_min":0,"x_max":0,"o":"m 10 0 b 65 149 26 46 49 103 l 375 969 b 404 1051 386 1000 396 1025 l 544 1051 l 885 142 b 938 0 901 96 922 43 l 772 0 b 725 142 758 43 742 94 l 678 275 l 263 275 l 215 143 b 167 0 199 96 181 42 l 10 0 m 253 1147 b 379 1346 253 1274 293 1346 b 567 1235 494 1346 488 1235 b 624 1343 613 1235 624 1269 l 696 1343 b 571 1144 694 1207 656 1144 b 382 1256 457 1144 457 1256 b 325 1147 338 1256 325 1214 l 253 1147 m 639 386 l 471 865 l 301 386 "},"Æ":{"ha":1306,"x_min":0,"x_max":0,"o":"m -28 0 b 78 193 4 60 46 136 l 556 1051 l 1256 1051 l 1256 939 b 971 940 1132 940 1036 940 l 793 940 l 793 601 l 896 601 b 1186 604 979 601 1064 601 l 1186 492 b 896 494 1064 494 979 494 l 793 494 l 793 111 l 976 111 b 1265 113 1043 111 1149 111 l 1265 0 l 639 0 l 639 186 l 639 303 l 303 303 l 244 193 b 147 0 213 132 178 60 l -28 0 m 639 417 l 639 865 l 639 922 l 628 922 l 363 417 "},"Ǽ":{"ha":1306,"x_min":0,"x_max":0,"o":"m -28 0 b 78 193 4 60 46 136 l 556 1051 l 1256 1051 l 1256 939 b 971 940 1132 940 1036 940 l 793 940 l 793 601 l 896 601 b 1186 604 979 601 1064 601 l 1186 492 b 896 494 1064 494 979 494 l 793 494 l 793 111 l 976 111 b 1265 113 1043 111 1149 111 l 1265 0 l 639 0 l 639 186 l 639 303 l 303 303 l 244 193 b 147 0 213 132 178 60 l -28 0 m 639 417 l 639 865 l 639 922 l 628 922 l 363 417 m 782 1343 l 925 1343 l 742 1142 l 647 1142 "},"B":{"ha":913,"x_min":0,"x_max":0,"o":"m 121 186 l 121 865 l 121 1051 l 446 1051 b 817 810 692 1051 817 961 b 561 572 817 681 724 592 l 561 565 b 861 293 754 549 861 446 b 440 0 861 114 719 0 l 121 0 m 444 111 b 711 304 624 111 711 181 b 426 507 711 431 619 507 l 269 507 l 269 111 m 421 614 b 672 790 582 614 672 681 b 440 940 672 889 594 940 l 269 940 l 269 614 "},"C":{"ha":1181,"x_min":0,"x_max":0,"o":"m 601 -22 b 56 528 261 -22 56 219 b 607 1069 56 851 275 1069 b 1133 676 861 1069 1074 944 l 975 676 b 607 947 926 853 788 947 b 214 531 368 947 214 772 b 604 100 214 300 351 100 b 985 426 811 100 950 233 l 1143 426 b 601 -22 1096 140 886 -22 "},"Ć":{"ha":1181,"x_min":0,"x_max":0,"o":"m 601 -22 b 56 528 261 -22 56 219 b 607 1069 56 851 275 1069 b 1133 676 861 1069 1074 944 l 975 676 b 607 947 926 853 788 947 b 214 531 368 947 214 772 b 604 100 214 300 351 100 b 985 426 811 100 950 233 l 1143 426 b 601 -22 1096 140 886 -22 m 692 1343 l 835 1343 l 651 1142 l 557 1142 "},"Č":{"ha":1181,"x_min":0,"x_max":0,"o":"m 601 -22 b 56 528 261 -22 56 219 b 607 1069 56 851 275 1069 b 1133 676 861 1069 1074 944 l 975 676 b 607 947 926 853 788 947 b 214 531 368 947 214 772 b 604 100 214 300 351 100 b 985 426 811 100 950 233 l 1143 426 b 601 -22 1096 140 886 -22 m 490 1343 l 607 1221 l 724 1343 l 854 1343 l 650 1142 l 564 1142 l 361 1343 "},"Ç":{"ha":1181,"x_min":0,"x_max":0,"o":"m 590 -347 b 389 -257 500 -347 431 -311 l 440 -199 b 575 -276 464 -242 508 -276 b 671 -218 633 -276 671 -254 b 583 -157 671 -181 639 -157 b 515 -172 565 -157 532 -160 l 475 -133 l 567 -21 b 56 528 247 -6 56 231 b 607 1069 56 851 275 1069 b 1133 676 861 1069 1074 944 l 975 676 b 607 947 926 853 788 947 b 214 531 368 947 214 772 b 604 100 214 300 351 100 b 985 426 811 100 950 233 l 1143 426 b 644 -21 1099 156 907 -6 l 585 -92 b 624 -89 597 -90 610 -89 b 774 -212 710 -89 774 -136 b 590 -347 774 -306 681 -347 "},"Ĉ":{"ha":1181,"x_min":0,"x_max":0,"o":"m 601 -22 b 56 528 261 -22 56 219 b 607 1069 56 851 275 1069 b 1133 676 861 1069 1074 944 l 975 676 b 607 947 926 853 788 947 b 214 531 368 947 214 772 b 604 100 214 300 351 100 b 985 426 811 100 950 233 l 1143 426 b 601 -22 1096 140 886 -22 m 564 1343 l 650 1343 l 849 1142 l 718 1142 l 607 1261 l 496 1142 l 367 1142 "},"Ċ":{"ha":1181,"x_min":0,"x_max":0,"o":"m 601 -22 b 56 528 261 -22 56 219 b 607 1069 56 851 275 1069 b 1133 676 861 1069 1074 944 l 975 676 b 607 947 926 853 788 947 b 214 531 368 947 214 772 b 604 100 214 300 351 100 b 985 426 811 100 950 233 l 1143 426 b 601 -22 1096 140 886 -22 m 544 1318 l 667 1318 l 667 1169 l 544 1169 "},"D":{"ha":1126,"x_min":0,"x_max":0,"o":"m 121 186 l 121 865 l 121 1051 l 457 1051 b 1072 526 829 1051 1072 839 b 458 0 1072 211 831 0 l 121 0 m 453 114 b 915 525 735 114 915 279 b 453 938 915 772 736 938 l 275 938 l 275 114 "},"Ð":{"ha":1126,"x_min":0,"x_max":0,"o":"m 121 186 l 121 494 l -1 494 l -1 592 l 121 592 l 121 865 l 121 1051 l 457 1051 b 1072 526 829 1051 1072 839 b 458 0 1072 211 831 0 l 121 0 m 453 114 b 915 525 735 114 915 279 b 453 938 915 772 736 938 l 275 938 l 275 592 l 593 592 l 593 494 l 275 494 l 275 114 "},"Ď":{"ha":1126,"x_min":0,"x_max":0,"o":"m 121 186 l 121 865 l 121 1051 l 457 1051 b 1072 526 829 1051 1072 839 b 458 0 1072 211 831 0 l 121 0 m 396 1343 l 513 1221 l 629 1343 l 760 1343 l 556 1142 l 469 1142 l 267 1343 m 453 114 b 915 525 735 114 915 279 b 453 938 915 772 736 938 l 275 938 l 275 114 "},"Đ":{"ha":1126,"x_min":0,"x_max":0,"o":"m 121 186 l 121 494 l -1 494 l -1 592 l 121 592 l 121 865 l 121 1051 l 457 1051 b 1072 526 829 1051 1072 839 b 458 0 1072 211 831 0 l 121 0 m 453 114 b 915 525 735 114 915 279 b 453 938 915 772 736 938 l 275 938 l 275 592 l 593 592 l 593 494 l 275 494 l 275 114 "},"E":{"ha":788,"x_min":0,"x_max":0,"o":"m 121 186 l 121 865 l 121 1051 l 738 1051 l 738 939 b 453 940 614 940 518 940 l 275 940 l 275 601 l 378 601 b 668 604 461 601 546 601 l 668 492 b 378 494 546 494 461 494 l 275 494 l 275 111 l 458 111 b 747 113 525 111 631 111 l 747 0 l 121 0 "},"É":{"ha":788,"x_min":0,"x_max":0,"o":"m 121 186 l 121 865 l 121 1051 l 738 1051 l 738 939 b 453 940 614 940 518 940 l 275 940 l 275 601 l 378 601 b 668 604 461 601 546 601 l 668 492 b 378 494 546 494 461 494 l 275 494 l 275 111 l 458 111 b 747 113 525 111 631 111 l 747 0 l 121 0 m 504 1343 l 647 1343 l 464 1142 l 369 1142 "},"Ě":{"ha":788,"x_min":0,"x_max":0,"o":"m 121 186 l 121 865 l 121 1051 l 738 1051 l 738 939 b 453 940 614 940 518 940 l 275 940 l 275 601 l 378 601 b 668 604 461 601 546 601 l 668 492 b 378 494 546 494 461 494 l 275 494 l 275 111 l 458 111 b 747 113 525 111 631 111 l 747 0 l 121 0 m 303 1343 l 419 1221 l 536 1343 l 667 1343 l 463 1142 l 376 1142 l 174 1343 "},"Ê":{"ha":788,"x_min":0,"x_max":0,"o":"m 121 186 l 121 865 l 121 1051 l 738 1051 l 738 939 b 453 940 614 940 518 940 l 275 940 l 275 601 l 378 601 b 668 604 461 601 546 601 l 668 492 b 378 494 546 494 461 494 l 275 494 l 275 111 l 458 111 b 747 113 525 111 631 111 l 747 0 l 121 0 m 376 1343 l 463 1343 l 661 1142 l 531 1142 l 419 1261 l 308 1142 l 179 1142 "},"Ë":{"ha":788,"x_min":0,"x_max":0,"o":"m 121 186 l 121 865 l 121 1051 l 738 1051 l 738 939 b 453 940 614 940 518 940 l 275 940 l 275 601 l 378 601 b 668 604 461 601 546 601 l 668 492 b 378 494 546 494 461 494 l 275 494 l 275 111 l 458 111 b 747 113 525 111 631 111 l 747 0 l 121 0 m 226 1318 l 349 1318 l 349 1169 l 226 1169 m 489 1318 l 611 1318 l 611 1169 l 489 1169 "},"Ė":{"ha":788,"x_min":0,"x_max":0,"o":"m 121 186 l 121 865 l 121 1051 l 738 1051 l 738 939 b 453 940 614 940 518 940 l 275 940 l 275 601 l 378 601 b 668 604 461 601 546 601 l 668 492 b 378 494 546 494 461 494 l 275 494 l 275 111 l 458 111 b 747 113 525 111 631 111 l 747 0 l 121 0 m 357 1318 l 479 1318 l 479 1169 l 357 1169 "},"È":{"ha":788,"x_min":0,"x_max":0,"o":"m 121 186 l 121 865 l 121 1051 l 738 1051 l 738 939 b 453 940 614 940 518 940 l 275 940 l 275 601 l 378 601 b 668 604 461 601 546 601 l 668 492 b 378 494 546 494 461 494 l 275 494 l 275 111 l 458 111 b 747 113 525 111 631 111 l 747 0 l 121 0 m 329 1343 l 464 1142 l 369 1142 l 186 1343 "},"Ē":{"ha":788,"x_min":0,"x_max":0,"o":"m 121 186 l 121 865 l 121 1051 l 738 1051 l 738 939 b 453 940 614 940 518 940 l 275 940 l 275 601 l 378 601 b 668 604 461 601 546 601 l 668 492 b 378 494 546 494 461 494 l 275 494 l 275 111 l 458 111 b 747 113 525 111 631 111 l 747 0 l 121 0 m 182 1283 l 658 1283 l 658 1199 l 182 1199 "},"Ę":{"ha":788,"x_min":0,"x_max":0,"o":"m 121 186 l 121 865 l 121 1051 l 738 1051 l 738 939 b 453 940 614 940 518 940 l 275 940 l 275 601 l 378 601 b 668 604 461 601 546 601 l 668 492 b 378 494 546 494 461 494 l 275 494 l 275 111 l 458 111 b 747 113 525 111 631 111 l 747 0 b 621 -185 685 -43 621 -99 b 685 -250 621 -232 653 -250 b 769 -210 722 -250 749 -235 l 769 -282 b 656 -329 743 -311 706 -329 b 524 -201 589 -329 524 -292 b 656 0 524 -108 588 -43 l 121 0 "},"Ẽ":{"ha":788,"x_min":0,"x_max":0,"o":"m 121 186 l 121 865 l 121 1051 l 738 1051 l 738 939 b 453 940 614 940 518 940 l 275 940 l 275 601 l 378 601 b 668 604 461 601 546 601 l 668 492 b 378 494 546 494 461 494 l 275 494 l 275 111 l 458 111 b 747 113 525 111 631 111 l 747 0 l 121 0 m 197 1147 b 324 1346 197 1274 238 1346 b 511 1235 439 1346 432 1235 b 568 1343 557 1235 568 1269 l 640 1343 b 515 1144 639 1207 600 1144 b 326 1256 401 1144 401 1256 b 269 1147 282 1256 269 1214 l 197 1147 "},"Ə":{"ha":1108,"x_min":0,"x_max":0,"o":"m 546 -21 b 56 465 236 -21 58 188 l 899 465 b 901 522 900 483 901 503 b 549 947 901 761 785 947 b 204 664 347 947 235 807 l 56 664 b 550 1065 94 860 258 1065 b 1053 524 864 1065 1053 844 b 546 -21 1053 194 861 -21 m 218 358 b 546 97 244 210 354 97 b 881 358 717 97 836 194 l 218 358 "},"F":{"ha":769,"x_min":0,"x_max":0,"o":"m 746 939 b 407 940 643 939 528 940 l 275 940 l 275 621 l 361 621 b 671 622 449 621 538 621 l 671 513 b 361 514 538 514 449 514 l 275 514 l 275 186 l 275 0 l 121 0 l 121 186 l 121 865 l 121 1051 l 746 1051 l 746 939 "},"G":{"ha":1225,"x_min":0,"x_max":0,"o":"m 582 -21 b 56 522 247 -21 56 221 b 617 1069 56 857 285 1069 b 1124 726 875 1069 1071 940 l 971 726 b 614 947 925 871 788 947 b 210 525 363 947 210 769 b 599 101 210 293 342 101 b 992 435 831 101 961 235 l 524 433 l 522 544 l 1139 546 l 1139 0 l 1028 0 l 1019 231 b 582 -21 949 74 794 -21 "},"Ğ":{"ha":1225,"x_min":0,"x_max":0,"o":"m 582 -21 b 56 522 247 -21 56 221 b 617 1069 56 857 285 1069 b 1124 726 875 1069 1071 940 l 971 726 b 614 947 925 871 788 947 b 210 525 363 947 210 769 b 599 101 210 293 342 101 b 992 435 831 101 961 235 l 524 433 l 522 544 l 1139 546 l 1139 0 l 1028 0 l 1019 231 b 582 -21 949 74 794 -21 m 489 1343 b 617 1228 489 1268 533 1228 b 744 1343 700 1228 744 1267 l 843 1343 b 617 1136 843 1211 765 1136 b 390 1343 469 1136 390 1211 "},"Ǧ":{"ha":1225,"x_min":0,"x_max":0,"o":"m 582 -21 b 56 522 247 -21 56 221 b 617 1069 56 857 285 1069 b 1124 726 875 1069 1071 940 l 971 726 b 614 947 925 871 788 947 b 210 525 363 947 210 769 b 599 101 210 293 342 101 b 992 435 831 101 961 235 l 524 433 l 522 544 l 1139 546 l 1139 0 l 1028 0 l 1019 231 b 582 -21 949 74 794 -21 m 500 1343 l 617 1221 l 733 1343 l 864 1343 l 660 1142 l 574 1142 l 371 1343 "},"Ĝ":{"ha":1225,"x_min":0,"x_max":0,"o":"m 582 -21 b 56 522 247 -21 56 221 b 617 1069 56 857 285 1069 b 1124 726 875 1069 1071 940 l 971 726 b 614 947 925 871 788 947 b 210 525 363 947 210 769 b 599 101 210 293 342 101 b 992 435 831 101 961 235 l 524 433 l 522 544 l 1139 546 l 1139 0 l 1028 0 l 1019 231 b 582 -21 949 74 794 -21 m 574 1343 l 660 1343 l 858 1142 l 728 1142 l 617 1261 l 506 1142 l 376 1142 "},"Ģ":{"ha":1225,"x_min":0,"x_max":0,"o":"m 582 -21 b 56 522 247 -21 56 221 b 617 1069 56 857 285 1069 b 1124 726 875 1069 1071 940 l 971 726 b 614 947 925 871 788 947 b 210 525 363 947 210 769 b 599 101 210 293 342 101 b 992 435 831 101 961 235 l 524 433 l 522 544 l 1139 546 l 1139 0 l 1028 0 l 1019 231 b 582 -21 949 74 794 -21 m 517 -83 l 638 -83 l 476 -346 l 422 -319 "},"Ġ":{"ha":1225,"x_min":0,"x_max":0,"o":"m 582 -21 b 56 522 247 -21 56 221 b 617 1069 56 857 285 1069 b 1124 726 875 1069 1071 940 l 971 726 b 614 947 925 871 788 947 b 210 525 363 947 210 769 b 599 101 210 293 342 101 b 992 435 831 101 961 235 l 524 433 l 522 544 l 1139 546 l 1139 0 l 1028 0 l 1019 231 b 582 -21 949 74 794 -21 m 554 1318 l 676 1318 l 676 1169 l 554 1169 "},"H":{"ha":1054,"x_min":0,"x_max":0,"o":"m 121 186 l 121 865 l 121 1051 l 275 1051 l 275 865 l 275 594 l 779 594 l 779 865 l 779 1051 l 933 1051 l 933 865 l 933 186 l 933 0 l 779 0 l 779 186 l 779 479 l 275 479 l 275 186 l 275 0 l 121 0 "},"Ħ":{"ha":1054,"x_min":0,"x_max":0,"o":"m -3 897 l 121 897 l 121 1051 l 275 1051 l 275 897 l 779 897 l 779 1051 l 933 1051 l 933 897 l 1057 897 l 1057 800 l 933 800 l 933 186 l 933 0 l 779 0 l 779 186 l 779 479 l 275 479 l 275 186 l 275 0 l 121 0 l 121 186 l 121 800 l -3 800 m 779 594 l 779 800 l 275 800 l 275 594 "},"Ĥ":{"ha":1054,"x_min":0,"x_max":0,"o":"m 121 186 l 121 865 l 121 1051 l 275 1051 l 275 865 l 275 594 l 779 594 l 779 865 l 779 1051 l 933 1051 l 933 865 l 933 186 l 933 0 l 779 0 l 779 186 l 779 479 l 275 479 l 275 186 l 275 0 l 121 0 m 485 1343 l 571 1343 l 769 1142 l 639 1142 l 528 1261 l 417 1142 l 288 1142 "},"I":{"ha":396,"x_min":0,"x_max":0,"o":"m 121 186 l 121 865 l 121 1051 l 275 1051 l 275 865 l 275 186 l 275 0 l 121 0 "},"Ĳ":{"ha":838,"x_min":0,"x_max":0,"o":"m 121 186 l 121 865 l 121 1051 l 275 1051 l 275 865 l 275 186 l 275 0 l 121 0 m 382 -82 b 564 192 521 -68 564 3 l 564 865 l 564 1051 l 717 1051 l 717 865 l 717 192 b 382 -201 717 -75 603 -187 "},"Í":{"ha":396,"x_min":0,"x_max":0,"o":"m 121 186 l 121 865 l 121 1051 l 275 1051 l 275 865 l 275 186 l 275 0 l 121 0 m 283 1343 l 426 1343 l 243 1142 l 149 1142 "},"Î":{"ha":396,"x_min":0,"x_max":0,"o":"m 121 186 l 121 865 l 121 1051 l 275 1051 l 275 865 l 275 186 l 275 0 l 121 0 m 156 1343 l 242 1343 l 440 1142 l 310 1142 l 199 1261 l 88 1142 l -42 1142 "},"Ï":{"ha":396,"x_min":0,"x_max":0,"o":"m 121 186 l 121 865 l 121 1051 l 275 1051 l 275 865 l 275 186 l 275 0 l 121 0 m 6 1318 l 128 1318 l 128 1169 l 6 1169 m 268 1318 l 390 1318 l 390 1169 l 268 1169 "},"İ":{"ha":396,"x_min":0,"x_max":0,"o":"m 121 186 l 121 865 l 121 1051 l 275 1051 l 275 865 l 275 186 l 275 0 l 121 0 m 121 1318 l 275 1318 l 275 1169 l 121 1169 "},"Ì":{"ha":396,"x_min":0,"x_max":0,"o":"m 121 186 l 121 865 l 121 1051 l 275 1051 l 275 865 l 275 186 l 275 0 l 121 0 m 108 1343 l 243 1142 l 149 1142 l -35 1343 "},"Ī":{"ha":396,"x_min":0,"x_max":0,"o":"m 121 186 l 121 865 l 121 1051 l 275 1051 l 275 865 l 275 186 l 275 0 l 121 0 m -39 1283 l 438 1283 l 438 1199 l -39 1199 "},"Į":{"ha":396,"x_min":0,"x_max":0,"o":"m 121 186 l 121 865 l 121 1051 l 275 1051 l 275 865 l 275 186 l 275 0 l 256 0 b 129 -185 193 -43 129 -99 b 193 -250 129 -232 161 -250 b 278 -210 231 -250 257 -235 l 278 -282 b 164 -329 251 -311 214 -329 b 32 -201 97 -329 32 -292 b 164 0 32 -108 96 -43 l 121 0 "},"Ĩ":{"ha":396,"x_min":0,"x_max":0,"o":"m 121 186 l 121 865 l 121 1051 l 275 1051 l 275 865 l 275 186 l 275 0 l 121 0 m -24 1147 b 103 1346 -24 1274 17 1346 b 290 1235 218 1346 211 1235 b 347 1343 336 1235 347 1269 l 419 1343 b 294 1144 418 1207 379 1144 b 106 1256 181 1144 181 1256 b 49 1147 61 1256 49 1214 l -24 1147 "},"J":{"ha":442,"x_min":0,"x_max":0,"o":"m -14 -82 b 168 192 125 -68 168 3 l 168 865 l 168 1051 l 321 1051 l 321 865 l 321 192 b -14 -201 321 -75 207 -187 l -14 -82 "},"Ĵ":{"ha":442,"x_min":0,"x_max":0,"o":"m -14 -82 b 168 192 125 -68 168 3 l 168 865 l 168 1051 l 321 1051 l 321 865 l 321 192 b -14 -201 321 -75 207 -187 l -14 -82 m 194 1343 l 281 1343 l 479 1142 l 349 1142 l 238 1261 l 126 1142 l -3 1142 "},"K":{"ha":918,"x_min":0,"x_max":0,"o":"m 121 186 l 121 865 l 121 1051 l 275 1051 l 275 865 l 275 568 l 653 946 l 758 1051 l 910 1051 l 910 1035 b 831 958 881 1008 857 982 l 463 597 l 926 10 l 926 0 l 761 0 l 368 506 l 275 413 l 275 186 l 275 0 l 121 0 "},"Ķ":{"ha":918,"x_min":0,"x_max":0,"o":"m 121 186 l 121 865 l 121 1051 l 275 1051 l 275 865 l 275 568 l 653 946 l 758 1051 l 910 1051 l 910 1035 b 831 958 881 1008 857 982 l 463 597 l 926 10 l 926 0 l 761 0 l 368 506 l 275 413 l 275 186 l 275 0 l 121 0 m 422 -83 l 543 -83 l 382 -346 l 328 -319 "},"L":{"ha":778,"x_min":0,"x_max":0,"o":"m 121 186 l 121 865 l 121 1051 l 275 1051 l 275 865 l 275 117 l 444 117 b 757 119 521 117 632 117 l 757 0 l 121 0 "},"Ĺ":{"ha":778,"x_min":0,"x_max":0,"o":"m 121 186 l 121 865 l 121 1051 l 275 1051 l 275 865 l 275 117 l 444 117 b 757 119 521 117 632 117 l 757 0 l 121 0 m 281 1343 l 424 1343 l 240 1142 l 146 1142 "},"Ľ":{"ha":778,"x_min":0,"x_max":0,"o":"m 121 186 l 121 865 l 121 1051 l 275 1051 l 275 865 l 275 117 l 444 117 b 757 119 521 117 632 117 l 757 0 l 121 0 m 500 1051 l 621 1051 l 519 725 l 444 725 "},"Ļ":{"ha":778,"x_min":0,"x_max":0,"o":"m 121 186 l 121 865 l 121 1051 l 275 1051 l 275 865 l 275 117 l 444 117 b 757 119 521 117 632 117 l 757 0 l 121 0 m 368 -83 l 489 -83 l 328 -346 l 274 -319 "},"Ŀ":{"ha":778,"x_min":0,"x_max":0,"o":"m 121 186 l 121 865 l 121 1051 l 275 1051 l 275 865 l 275 117 l 444 117 b 757 119 521 117 632 117 l 757 0 l 121 0 m 515 613 l 638 613 l 638 464 l 515 464 "},"Ł":{"ha":778,"x_min":0,"x_max":0,"o":"m 121 186 l 121 419 l -35 332 l -35 424 l 121 511 l 121 865 l 121 1051 l 275 1051 l 275 865 l 275 599 l 544 750 l 544 657 l 275 506 l 275 117 l 444 117 b 757 119 521 117 632 117 l 757 0 l 121 0 "},"M":{"ha":1308,"x_min":0,"x_max":0,"o":"m 265 851 l 265 186 l 265 0 l 121 0 l 121 186 l 121 865 l 121 1051 l 317 1051 l 656 226 l 992 1051 l 1188 1051 l 1188 865 l 1188 186 l 1188 0 l 1036 0 l 1036 186 l 1036 847 l 679 -12 l 626 -12 "},"N":{"ha":1054,"x_min":0,"x_max":0,"o":"m 272 826 l 272 186 l 272 0 l 121 0 l 121 186 l 121 865 l 121 1051 l 282 1051 l 782 228 l 782 865 l 782 1051 l 933 1051 l 933 865 l 933 0 l 772 0 "},"Ń":{"ha":1054,"x_min":0,"x_max":0,"o":"m 272 826 l 272 186 l 272 0 l 121 0 l 121 186 l 121 865 l 121 1051 l 282 1051 l 782 228 l 782 865 l 782 1051 l 933 1051 l 933 865 l 933 0 l 772 0 m 610 1343 l 753 1343 l 569 1142 l 475 1142 "},"Ň":{"ha":1054,"x_min":0,"x_max":0,"o":"m 272 826 l 272 186 l 272 0 l 121 0 l 121 186 l 121 865 l 121 1051 l 282 1051 l 782 228 l 782 865 l 782 1051 l 933 1051 l 933 865 l 933 0 l 772 0 m 408 1343 l 525 1221 l 642 1343 l 772 1343 l 568 1142 l 482 1142 l 279 1343 "},"Ņ":{"ha":1054,"x_min":0,"x_max":0,"o":"m 272 826 l 272 186 l 272 0 l 121 0 l 121 186 l 121 865 l 121 1051 l 282 1051 l 782 228 l 782 865 l 782 1051 l 933 1051 l 933 865 l 933 0 l 772 0 m 453 -83 l 574 -83 l 413 -346 l 358 -319 "},"Ñ":{"ha":1054,"x_min":0,"x_max":0,"o":"m 272 826 l 272 186 l 272 0 l 121 0 l 121 186 l 121 865 l 121 1051 l 282 1051 l 782 228 l 782 865 l 782 1051 l 933 1051 l 933 865 l 933 0 l 772 0 m 303 1147 b 429 1346 303 1274 343 1346 b 617 1235 544 1346 538 1235 b 674 1343 663 1235 674 1269 l 746 1343 b 621 1144 744 1207 706 1144 b 432 1256 507 1144 507 1256 b 375 1147 388 1256 375 1214 l 303 1147 "},"Ŋ":{"ha":1036,"x_min":0,"x_max":0,"o":"m 257 833 l 257 186 l 257 0 l 121 0 l 121 186 l 121 865 l 121 1051 l 268 1051 l 779 218 l 779 865 l 779 1051 l 915 1051 l 915 865 l 915 35 b 571 -292 915 -193 789 -290 l 571 -187 b 797 0 725 -186 797 -129 l 768 0 "},"O":{"ha":1228,"x_min":0,"x_max":0,"o":"m 614 -22 b 56 525 279 -22 56 201 b 614 1068 56 847 279 1068 b 1172 522 949 1068 1172 847 b 614 -22 1172 200 949 -22 m 214 522 b 614 100 214 271 374 100 b 1014 525 854 100 1014 271 b 614 946 1014 776 854 946 b 214 522 374 946 214 776 "},"Ó":{"ha":1228,"x_min":0,"x_max":0,"o":"m 614 -22 b 56 525 279 -22 56 201 b 614 1068 56 847 279 1068 b 1172 522 949 1068 1172 847 b 614 -22 1172 200 949 -22 m 214 522 b 614 100 214 271 374 100 b 1014 525 854 100 1014 271 b 614 946 1014 776 854 946 b 214 522 374 946 214 776 m 699 1343 l 842 1343 l 658 1142 l 564 1142 "},"Ô":{"ha":1228,"x_min":0,"x_max":0,"o":"m 614 -22 b 56 525 279 -22 56 201 b 614 1068 56 847 279 1068 b 1172 522 949 1068 1172 847 b 614 -22 1172 200 949 -22 m 214 522 b 614 100 214 271 374 100 b 1014 525 854 100 1014 271 b 614 946 1014 776 854 946 b 214 522 374 946 214 776 m 571 1343 l 657 1343 l 856 1142 l 725 1142 l 614 1261 l 503 1142 l 374 1142 "},"Ö":{"ha":1228,"x_min":0,"x_max":0,"o":"m 614 -22 b 56 525 279 -22 56 201 b 614 1068 56 847 279 1068 b 1172 522 949 1068 1172 847 b 614 -22 1172 200 949 -22 m 214 522 b 614 100 214 271 374 100 b 1014 525 854 100 1014 271 b 614 946 1014 776 854 946 b 214 522 374 946 214 776 m 421 1318 l 543 1318 l 543 1169 l 421 1169 m 683 1318 l 806 1318 l 806 1169 l 683 1169 "},"Ò":{"ha":1228,"x_min":0,"x_max":0,"o":"m 614 -22 b 56 525 279 -22 56 201 b 614 1068 56 847 279 1068 b 1172 522 949 1068 1172 847 b 614 -22 1172 200 949 -22 m 214 522 b 614 100 214 271 374 100 b 1014 525 854 100 1014 271 b 614 946 1014 776 854 946 b 214 522 374 946 214 776 m 524 1343 l 658 1142 l 564 1142 l 381 1343 "},"Ő":{"ha":1228,"x_min":0,"x_max":0,"o":"m 614 -22 b 56 525 279 -22 56 201 b 614 1068 56 847 279 1068 b 1172 522 949 1068 1172 847 b 614 -22 1172 200 949 -22 m 214 522 b 614 100 214 271 374 100 b 1014 525 854 100 1014 271 b 614 946 1014 776 854 946 b 214 522 374 946 214 776 m 615 1343 l 722 1343 l 558 1142 l 479 1142 m 824 1343 l 933 1343 l 750 1142 l 671 1142 "},"Ō":{"ha":1228,"x_min":0,"x_max":0,"o":"m 614 -22 b 56 525 279 -22 56 201 b 614 1068 56 847 279 1068 b 1172 522 949 1068 1172 847 b 614 -22 1172 200 949 -22 m 214 522 b 614 100 214 271 374 100 b 1014 525 854 100 1014 271 b 614 946 1014 776 854 946 b 214 522 374 946 214 776 m 376 1283 l 853 1283 l 853 1199 l 376 1199 "},"Ø":{"ha":1228,"x_min":0,"x_max":0,"o":"m 260 -208 l 360 28 b 56 525 171 113 56 293 b 614 1068 56 847 279 1068 b 789 1046 676 1068 735 1060 l 883 1268 l 971 1242 l 875 1015 b 1172 522 1060 931 1172 753 b 614 -22 1172 200 949 -22 b 446 -1 554 -22 497 -15 l 347 -235 m 214 522 b 411 150 214 351 288 218 l 740 929 b 614 946 701 940 658 946 b 214 522 374 946 214 776 m 494 115 b 614 100 532 106 572 100 b 1014 525 854 100 1014 271 b 824 893 1014 693 943 825 l 494 115 "},"Ǿ":{"ha":1228,"x_min":0,"x_max":0,"o":"m 260 -208 l 360 28 b 56 525 171 113 56 293 b 614 1068 56 847 279 1068 b 789 1046 676 1068 735 1060 l 883 1268 l 971 1242 l 875 1015 b 1172 522 1060 931 1172 753 b 614 -22 1172 200 949 -22 b 446 -1 554 -22 497 -15 l 347 -235 m 214 522 b 411 150 214 351 288 218 l 740 929 b 614 946 701 940 658 946 b 214 522 374 946 214 776 m 494 115 b 614 100 532 106 572 100 b 1014 525 854 100 1014 271 b 824 893 1014 693 943 825 l 494 115 m 699 1343 l 842 1343 l 658 1142 l 564 1142 "},"Õ":{"ha":1228,"x_min":0,"x_max":0,"o":"m 614 -22 b 56 525 279 -22 56 201 b 614 1068 56 847 279 1068 b 1172 522 949 1068 1172 847 b 614 -22 1172 200 949 -22 m 214 522 b 614 100 214 271 374 100 b 1014 525 854 100 1014 271 b 614 946 1014 776 854 946 b 214 522 374 946 214 776 m 392 1147 b 518 1346 392 1274 432 1346 b 706 1235 633 1346 626 1235 b 763 1343 751 1235 763 1269 l 835 1343 b 710 1144 833 1207 794 1144 b 521 1256 596 1144 596 1256 b 464 1147 476 1256 464 1214 l 392 1147 "},"Œ":{"ha":1438,"x_min":0,"x_max":0,"o":"m 629 0 b 56 524 285 0 56 211 b 629 1051 56 840 285 1051 l 1386 1051 l 1386 936 b 1103 940 1264 940 1168 940 l 925 940 l 925 601 l 1031 601 b 1321 604 1114 601 1199 601 l 1321 492 b 1031 494 1199 494 1114 494 l 925 494 l 925 111 l 1108 111 b 1397 115 1175 111 1281 111 l 1397 0 l 629 0 m 214 524 b 629 111 214 274 381 111 l 772 111 l 772 940 l 629 940 b 214 524 376 940 214 776 "},"P":{"ha":874,"x_min":0,"x_max":0,"o":"m 121 186 l 121 865 l 121 1051 l 428 1051 b 832 764 704 1051 832 953 b 410 460 832 572 694 460 l 275 460 l 275 186 l 275 0 l 121 0 m 408 571 b 681 764 599 571 681 636 b 426 940 681 886 601 940 l 275 940 l 275 571 "},"Þ":{"ha":860,"x_min":0,"x_max":0,"o":"m 124 186 l 124 865 l 124 1051 l 276 1051 l 276 865 l 276 839 l 410 839 b 814 553 688 839 814 742 b 393 249 814 361 678 249 l 276 249 l 276 186 l 276 0 l 124 0 m 392 360 b 664 553 582 360 664 425 b 410 728 664 674 585 728 l 276 728 l 276 360 "},"Q":{"ha":1228,"x_min":0,"x_max":0,"o":"m 614 -22 b 56 525 279 -22 56 201 b 614 1068 56 847 279 1068 b 1172 522 949 1068 1172 847 b 947 81 1172 331 1085 175 l 1132 -165 l 1132 -183 l 983 -183 l 833 19 b 614 -22 768 -8 694 -22 m 214 522 b 614 100 214 271 374 100 b 760 119 667 100 715 107 l 488 488 l 642 488 l 874 179 b 1014 525 965 250 1014 368 b 614 946 1014 776 854 946 b 214 522 374 946 214 776 "},"R":{"ha":906,"x_min":0,"x_max":0,"o":"m 121 186 l 121 865 l 121 1051 l 451 1051 b 828 781 693 1051 828 954 b 549 497 828 626 721 521 l 896 10 l 896 0 l 725 0 l 407 479 l 275 479 l 275 186 l 275 0 l 121 0 m 418 589 b 678 775 599 589 678 651 b 431 940 678 889 604 940 l 275 940 l 275 589 "},"Ŕ":{"ha":906,"x_min":0,"x_max":0,"o":"m 121 186 l 121 865 l 121 1051 l 451 1051 b 828 781 693 1051 828 954 b 549 497 828 626 721 521 l 896 10 l 896 0 l 725 0 l 407 479 l 275 479 l 275 186 l 275 0 l 121 0 m 418 589 b 678 775 599 589 678 651 b 431 940 678 889 604 940 l 275 940 l 275 589 m 518 1343 l 661 1343 l 478 1142 l 383 1142 "},"Ř":{"ha":906,"x_min":0,"x_max":0,"o":"m 121 186 l 121 865 l 121 1051 l 451 1051 b 828 781 693 1051 828 954 b 549 497 828 626 721 521 l 896 10 l 896 0 l 725 0 l 407 479 l 275 479 l 275 186 l 275 0 l 121 0 m 317 1343 l 433 1221 l 550 1343 l 681 1343 l 476 1142 l 390 1142 l 188 1343 m 418 589 b 678 775 599 589 678 651 b 431 940 678 889 604 940 l 275 940 l 275 589 "},"Ŗ":{"ha":906,"x_min":0,"x_max":0,"o":"m 121 186 l 121 865 l 121 1051 l 451 1051 b 828 781 693 1051 828 954 b 549 497 828 626 721 521 l 896 10 l 896 0 l 725 0 l 407 479 l 275 479 l 275 186 l 275 0 l 121 0 m 418 589 b 678 775 599 589 678 651 b 431 940 678 889 604 940 l 275 940 l 275 589 m 424 -83 l 544 -83 l 383 -346 l 329 -319 "},"S":{"ha":849,"x_min":0,"x_max":0,"o":"m 446 -24 b 11 342 199 -24 36 113 l 160 342 b 443 93 182 183 282 93 b 651 253 572 93 651 153 b 368 499 651 357 575 400 b 72 808 175 590 72 664 b 410 1067 72 967 210 1067 b 807 750 638 1067 781 949 l 660 750 b 411 953 642 874 561 953 b 222 817 282 953 222 896 b 483 593 222 717 303 678 b 801 261 697 493 801 417 b 446 -24 801 83 657 -24 "},"Ś":{"ha":849,"x_min":0,"x_max":0,"o":"m 446 -24 b 11 342 199 -24 36 113 l 160 342 b 443 93 182 183 282 93 b 651 253 572 93 651 153 b 368 499 651 357 575 400 b 72 808 175 590 72 664 b 410 1067 72 967 210 1067 b 807 750 638 1067 781 949 l 660 750 b 411 953 642 874 561 953 b 222 817 282 953 222 896 b 483 593 222 717 303 678 b 801 261 697 493 801 417 b 446 -24 801 83 657 -24 m 494 1338 l 638 1338 l 454 1136 l 360 1136 "},"Š":{"ha":849,"x_min":0,"x_max":0,"o":"m 446 -24 b 11 342 199 -24 36 113 l 160 342 b 443 93 182 183 282 93 b 651 253 572 93 651 153 b 368 499 651 357 575 400 b 72 808 175 590 72 664 b 410 1067 72 967 210 1067 b 807 750 638 1067 781 949 l 660 750 b 411 953 642 874 561 953 b 222 817 282 953 222 896 b 483 593 222 717 303 678 b 801 261 697 493 801 417 b 446 -24 801 83 657 -24 m 293 1338 l 410 1215 l 526 1338 l 657 1338 l 453 1136 l 367 1136 l 164 1338 "},"Ş":{"ha":849,"x_min":0,"x_max":0,"o":"m 431 -346 b 229 -256 340 -346 271 -310 l 281 -197 b 415 -275 304 -240 349 -275 b 511 -217 474 -275 511 -253 b 424 -156 511 -179 479 -156 b 356 -171 406 -156 372 -158 l 315 -132 l 406 -22 b 11 342 181 -8 35 125 l 160 342 b 443 93 182 183 282 93 b 651 253 572 93 651 153 b 368 499 651 357 575 400 b 72 808 175 590 72 664 b 410 1067 72 967 210 1067 b 807 750 638 1067 781 949 l 660 750 b 411 953 642 874 561 953 b 222 817 282 953 222 896 b 483 593 222 717 303 678 b 801 261 697 493 801 417 b 482 -22 801 93 674 -11 l 425 -90 b 464 -87 438 -89 450 -87 b 614 -211 550 -87 614 -135 b 431 -346 614 -304 521 -346 "},"Ŝ":{"ha":849,"x_min":0,"x_max":0,"o":"m 446 -24 b 11 342 199 -24 36 113 l 160 342 b 443 93 182 183 282 93 b 651 253 572 93 651 153 b 368 499 651 357 575 400 b 72 808 175 590 72 664 b 410 1067 72 967 210 1067 b 807 750 638 1067 781 949 l 660 750 b 411 953 642 874 561 953 b 222 817 282 953 222 896 b 483 593 222 717 303 678 b 801 261 697 493 801 417 b 446 -24 801 83 657 -24 m 367 1338 l 453 1338 l 651 1136 l 521 1136 l 410 1256 l 299 1136 l 169 1136 "},"Ș":{"ha":849,"x_min":0,"x_max":0,"o":"m 446 -24 b 11 342 199 -24 36 113 l 160 342 b 443 93 182 183 282 93 b 651 253 572 93 651 153 b 368 499 651 357 575 400 b 72 808 175 590 72 664 b 410 1067 72 967 210 1067 b 807 750 638 1067 781 949 l 660 750 b 411 953 642 874 561 953 b 222 817 282 953 222 896 b 483 593 222 717 303 678 b 801 261 697 493 801 417 b 446 -24 801 83 657 -24 m 390 -85 l 511 -85 l 350 -347 l 296 -321 "},"ẞ":{"ha":1001,"x_min":0,"x_max":0,"o":"m 631 -21 b 414 43 540 -21 469 1 l 418 171 b 615 93 467 119 533 93 b 814 261 751 93 814 165 b 671 493 814 367 776 419 b 500 732 572 561 500 621 b 632 943 500 822 546 899 l 553 943 b 261 611 389 943 261 854 l 261 186 l 261 0 l 108 0 l 108 186 l 108 593 b 525 1051 108 915 288 1051 l 915 1051 l 915 936 b 872 938 900 938 885 938 b 644 751 707 938 644 850 b 789 572 644 675 688 643 b 960 265 907 488 960 406 b 631 -21 960 111 851 -21 "},"T":{"ha":828,"x_min":0,"x_max":0,"o":"m 21 1051 l 807 1051 l 807 940 b 506 943 678 943 585 943 l 490 943 l 490 186 l 490 0 l 338 0 l 338 186 l 338 943 l 324 943 b 21 940 246 943 150 943 "},"Ŧ":{"ha":828,"x_min":0,"x_max":0,"o":"m 21 1051 l 807 1051 l 807 940 b 506 943 678 943 585 943 l 490 943 l 490 574 l 711 574 l 711 476 l 490 476 l 490 186 l 490 0 l 338 0 l 338 186 l 338 476 l 117 476 l 117 574 l 338 574 l 338 943 l 324 943 b 21 940 246 943 150 943 "},"Ť":{"ha":828,"x_min":0,"x_max":0,"o":"m 21 1051 l 807 1051 l 807 940 b 506 943 678 943 585 943 l 490 943 l 490 186 l 490 0 l 338 0 l 338 186 l 338 943 l 324 943 b 21 940 246 943 150 943 m 297 1343 l 414 1221 l 531 1343 l 661 1343 l 457 1142 l 371 1142 l 168 1343 "},"Ţ":{"ha":828,"x_min":0,"x_max":0,"o":"m 21 1051 l 807 1051 l 807 940 b 506 943 678 943 585 943 l 490 943 l 490 186 l 490 0 l 456 0 l 382 -87 b 421 -85 394 -86 407 -85 b 571 -208 507 -85 571 -132 b 388 -343 571 -301 478 -343 b 186 -253 297 -343 228 -307 l 238 -194 b 372 -272 261 -237 306 -272 b 468 -214 431 -272 468 -250 b 381 -153 468 -176 436 -153 b 313 -168 363 -153 329 -156 l 272 -129 l 378 0 l 338 0 l 338 186 l 338 943 l 324 943 b 21 940 246 943 150 943 "},"Ț":{"ha":828,"x_min":0,"x_max":0,"o":"m 21 1051 l 807 1051 l 807 940 b 506 943 678 943 585 943 l 490 943 l 490 186 l 490 0 l 338 0 l 338 186 l 338 943 l 324 943 b 21 940 246 943 150 943 m 347 -82 l 468 -82 l 307 -344 l 253 -318 "},"U":{"ha":1022,"x_min":0,"x_max":0,"o":"m 511 -24 b 108 425 267 -24 108 96 l 108 865 l 108 1051 l 263 1051 l 263 865 l 263 418 b 513 99 263 190 342 99 b 763 418 685 99 763 194 l 763 865 l 763 1051 l 914 1051 l 914 865 l 914 425 b 511 -24 914 104 764 -24 "},"Ú":{"ha":1022,"x_min":0,"x_max":0,"o":"m 511 -24 b 108 425 267 -24 108 96 l 108 865 l 108 1051 l 263 1051 l 263 865 l 263 418 b 513 99 263 190 342 99 b 763 418 685 99 763 194 l 763 865 l 763 1051 l 914 1051 l 914 865 l 914 425 b 511 -24 914 104 764 -24 m 596 1343 l 739 1343 l 556 1142 l 461 1142 "},"Ŭ":{"ha":1022,"x_min":0,"x_max":0,"o":"m 511 -24 b 108 425 267 -24 108 96 l 108 865 l 108 1051 l 263 1051 l 263 865 l 263 418 b 513 99 263 190 342 99 b 763 418 685 99 763 194 l 763 865 l 763 1051 l 914 1051 l 914 865 l 914 425 b 511 -24 914 104 764 -24 m 383 1343 b 511 1228 383 1268 428 1228 b 639 1343 594 1228 639 1267 l 738 1343 b 511 1136 738 1211 660 1136 b 285 1343 364 1136 285 1211 "},"Û":{"ha":1022,"x_min":0,"x_max":0,"o":"m 511 -24 b 108 425 267 -24 108 96 l 108 865 l 108 1051 l 263 1051 l 263 865 l 263 418 b 513 99 263 190 342 99 b 763 418 685 99 763 194 l 763 865 l 763 1051 l 914 1051 l 914 865 l 914 425 b 511 -24 914 104 764 -24 m 468 1343 l 554 1343 l 753 1142 l 622 1142 l 511 1261 l 400 1142 l 271 1142 "},"Ü":{"ha":1022,"x_min":0,"x_max":0,"o":"m 511 -24 b 108 425 267 -24 108 96 l 108 865 l 108 1051 l 263 1051 l 263 865 l 263 418 b 513 99 263 190 342 99 b 763 418 685 99 763 194 l 763 865 l 763 1051 l 914 1051 l 914 865 l 914 425 b 511 -24 914 104 764 -24 m 318 1318 l 440 1318 l 440 1169 l 318 1169 m 581 1318 l 703 1318 l 703 1169 l 581 1169 "},"Ù":{"ha":1022,"x_min":0,"x_max":0,"o":"m 511 -24 b 108 425 267 -24 108 96 l 108 865 l 108 1051 l 263 1051 l 263 865 l 263 418 b 513 99 263 190 342 99 b 763 418 685 99 763 194 l 763 865 l 763 1051 l 914 1051 l 914 865 l 914 425 b 511 -24 914 104 764 -24 m 421 1343 l 556 1142 l 461 1142 l 278 1343 "},"Ű":{"ha":1022,"x_min":0,"x_max":0,"o":"m 511 -24 b 108 425 267 -24 108 96 l 108 865 l 108 1051 l 263 1051 l 263 865 l 263 418 b 513 99 263 190 342 99 b 763 418 685 99 763 194 l 763 865 l 763 1051 l 914 1051 l 914 865 l 914 425 b 511 -24 914 104 764 -24 m 513 1343 l 619 1343 l 456 1142 l 376 1142 m 721 1343 l 831 1343 l 647 1142 l 568 1142 "},"Ū":{"ha":1022,"x_min":0,"x_max":0,"o":"m 511 -24 b 108 425 267 -24 108 96 l 108 865 l 108 1051 l 263 1051 l 263 865 l 263 418 b 513 99 263 190 342 99 b 763 418 685 99 763 194 l 763 865 l 763 1051 l 914 1051 l 914 865 l 914 425 b 511 -24 914 104 764 -24 m 274 1283 l 750 1283 l 750 1199 l 274 1199 "},"Ų":{"ha":1022,"x_min":0,"x_max":0,"o":"m 511 -24 b 108 425 267 -24 108 96 l 108 865 l 108 1051 l 263 1051 l 263 865 l 263 418 b 513 99 263 190 342 99 b 763 418 685 99 763 194 l 763 865 l 763 1051 l 914 1051 l 914 865 l 914 425 b 685 3 914 186 831 54 b 589 -160 633 -37 589 -87 b 653 -225 589 -207 621 -225 b 738 -185 690 -225 717 -210 l 738 -257 b 624 -304 711 -286 674 -304 b 492 -176 557 -304 492 -267 b 564 -22 492 -111 522 -61 b 511 -24 547 -24 529 -24 "},"Ů":{"ha":1022,"x_min":0,"x_max":0,"o":"m 511 -24 b 108 425 267 -24 108 96 l 108 865 l 108 1051 l 263 1051 l 263 865 l 263 418 b 513 99 263 190 342 99 b 763 418 685 99 763 194 l 763 865 l 763 1051 l 914 1051 l 914 865 l 914 425 b 511 -24 914 104 764 -24 m 356 1260 b 510 1390 356 1340 417 1390 b 668 1260 606 1390 668 1340 b 510 1129 668 1178 606 1129 b 356 1260 417 1129 356 1178 m 419 1260 b 510 1181 419 1213 457 1181 b 601 1260 564 1181 601 1213 b 510 1339 601 1307 564 1339 b 419 1260 457 1339 419 1307 "},"Ũ":{"ha":1022,"x_min":0,"x_max":0,"o":"m 511 -24 b 108 425 267 -24 108 96 l 108 865 l 108 1051 l 263 1051 l 263 865 l 263 418 b 513 99 263 190 342 99 b 763 418 685 99 763 194 l 763 865 l 763 1051 l 914 1051 l 914 865 l 914 425 b 511 -24 914 104 764 -24 m 289 1147 b 415 1346 289 1274 329 1346 b 603 1235 531 1346 524 1235 b 660 1343 649 1235 660 1269 l 732 1343 b 607 1144 731 1207 692 1144 b 418 1256 493 1144 493 1256 b 361 1147 374 1256 361 1214 l 289 1147 "},"V":{"ha":914,"x_min":0,"x_max":0,"o":"m 50 938 b 10 1051 38 971 21 1015 l 172 1051 b 207 939 183 1014 196 975 l 463 164 l 710 939 b 746 1051 721 975 733 1015 l 904 1051 b 867 939 892 1014 878 971 l 561 61 b 542 0 553 42 546 19 l 379 0 l 50 938 "},"W":{"ha":1368,"x_min":0,"x_max":0,"o":"m 46 938 b 10 1051 35 971 19 1018 l 171 1051 b 204 938 181 1021 194 971 l 411 246 l 625 1014 l 744 1014 l 963 246 l 1168 940 b 1200 1051 1176 971 1192 1021 l 1358 1051 b 1324 940 1349 1024 1333 971 l 1050 68 b 1035 0 1043 47 1036 18 l 908 0 l 683 797 l 481 68 b 467 0 475 49 467 18 l 339 0 l 46 938 "},"Ẃ":{"ha":1368,"x_min":0,"x_max":0,"o":"m 46 938 b 10 1051 35 971 19 1018 l 171 1051 b 204 938 181 1021 194 971 l 411 246 l 625 1014 l 744 1014 l 963 246 l 1168 940 b 1200 1051 1176 971 1192 1021 l 1358 1051 b 1324 940 1349 1024 1333 971 l 1050 68 b 1035 0 1043 47 1036 18 l 908 0 l 683 797 l 481 68 b 467 0 475 49 467 18 l 339 0 l 46 938 m 772 1343 l 915 1343 l 732 1142 l 638 1142 "},"Ŵ":{"ha":1368,"x_min":0,"x_max":0,"o":"m 46 938 b 10 1051 35 971 19 1018 l 171 1051 b 204 938 181 1021 194 971 l 411 246 l 625 1014 l 744 1014 l 963 246 l 1168 940 b 1200 1051 1176 971 1192 1021 l 1358 1051 b 1324 940 1349 1024 1333 971 l 1050 68 b 1035 0 1043 47 1036 18 l 908 0 l 683 797 l 481 68 b 467 0 475 49 467 18 l 339 0 l 46 938 m 644 1343 l 731 1343 l 929 1142 l 799 1142 l 688 1261 l 576 1142 l 447 1142 "},"Ẅ":{"ha":1368,"x_min":0,"x_max":0,"o":"m 46 938 b 10 1051 35 971 19 1018 l 171 1051 b 204 938 181 1021 194 971 l 411 246 l 625 1014 l 744 1014 l 963 246 l 1168 940 b 1200 1051 1176 971 1192 1021 l 1358 1051 b 1324 940 1349 1024 1333 971 l 1050 68 b 1035 0 1043 47 1036 18 l 908 0 l 683 797 l 481 68 b 467 0 475 49 467 18 l 339 0 l 46 938 m 494 1318 l 617 1318 l 617 1169 l 494 1169 m 757 1318 l 879 1318 l 879 1169 l 757 1169 "},"Ẁ":{"ha":1368,"x_min":0,"x_max":0,"o":"m 46 938 b 10 1051 35 971 19 1018 l 171 1051 b 204 938 181 1021 194 971 l 411 246 l 625 1014 l 744 1014 l 963 246 l 1168 940 b 1200 1051 1176 971 1192 1021 l 1358 1051 b 1324 940 1349 1024 1333 971 l 1050 68 b 1035 0 1043 47 1036 18 l 908 0 l 683 797 l 481 68 b 467 0 475 49 467 18 l 339 0 l 46 938 m 597 1343 l 732 1142 l 638 1142 l 454 1343 "},"X":{"ha":881,"x_min":0,"x_max":0,"o":"m 714 0 b 621 140 689 38 647 103 l 431 429 l 249 140 b 161 0 224 101 185 39 l -4 0 b 92 144 21 39 65 107 l 354 543 l 93 939 b 19 1051 72 971 39 1021 l 188 1051 l 189 1050 b 261 942 210 1018 239 974 l 450 656 l 635 939 b 708 1051 656 971 688 1018 l 868 1051 b 793 940 847 1021 814 972 l 525 543 l 790 142 b 885 0 817 103 860 39 l 714 0 "},"Y":{"ha":860,"x_min":0,"x_max":0,"o":"m 85 940 b 19 1051 65 972 39 1019 l 183 1051 b 246 936 201 1019 229 968 l 438 593 l 625 936 b 685 1051 642 969 668 1019 l 840 1051 b 776 940 822 1019 796 972 l 510 476 l 510 186 l 510 0 l 357 0 l 357 186 l 357 476 l 85 940 "},"Ý":{"ha":860,"x_min":0,"x_max":0,"o":"m 85 940 b 19 1051 65 972 39 1019 l 183 1051 b 246 936 201 1019 229 968 l 438 593 l 625 936 b 685 1051 642 969 668 1019 l 840 1051 b 776 940 822 1019 796 972 l 510 476 l 510 186 l 510 0 l 357 0 l 357 186 l 357 476 l 85 940 m 519 1343 l 663 1343 l 479 1142 l 385 1142 "},"Ŷ":{"ha":860,"x_min":0,"x_max":0,"o":"m 85 940 b 19 1051 65 972 39 1019 l 183 1051 b 246 936 201 1019 229 968 l 438 593 l 625 936 b 685 1051 642 969 668 1019 l 840 1051 b 776 940 822 1019 796 972 l 510 476 l 510 186 l 510 0 l 357 0 l 357 186 l 357 476 l 85 940 m 392 1343 l 478 1343 l 676 1142 l 546 1142 l 435 1261 l 324 1142 l 194 1142 "},"Ÿ":{"ha":860,"x_min":0,"x_max":0,"o":"m 85 940 b 19 1051 65 972 39 1019 l 183 1051 b 246 936 201 1019 229 968 l 438 593 l 625 936 b 685 1051 642 969 668 1019 l 840 1051 b 776 940 822 1019 796 972 l 510 476 l 510 186 l 510 0 l 357 0 l 357 186 l 357 476 l 85 940 m 242 1318 l 364 1318 l 364 1169 l 242 1169 m 504 1318 l 626 1318 l 626 1169 l 504 1169 "},"Ỳ":{"ha":860,"x_min":0,"x_max":0,"o":"m 85 940 b 19 1051 65 972 39 1019 l 183 1051 b 246 936 201 1019 229 968 l 438 593 l 625 936 b 685 1051 642 969 668 1019 l 840 1051 b 776 940 822 1019 796 972 l 510 476 l 510 186 l 510 0 l 357 0 l 357 186 l 357 476 l 85 940 m 344 1343 l 479 1142 l 385 1142 l 201 1343 "},"Ỹ":{"ha":860,"x_min":0,"x_max":0,"o":"m 85 940 b 19 1051 65 972 39 1019 l 183 1051 b 246 936 201 1019 229 968 l 438 593 l 625 936 b 685 1051 642 969 668 1019 l 840 1051 b 776 940 822 1019 796 972 l 510 476 l 510 186 l 510 0 l 357 0 l 357 186 l 357 476 l 85 940 m 213 1147 b 339 1346 213 1274 253 1346 b 526 1235 454 1346 447 1235 b 583 1343 572 1235 583 1269 l 656 1343 b 531 1144 654 1207 615 1144 b 342 1256 417 1144 417 1256 b 285 1147 297 1256 285 1214 l 213 1147 "},"Z":{"ha":821,"x_min":0,"x_max":0,"o":"m 36 88 l 588 940 l 364 940 b 33 935 244 940 175 940 l 33 1051 l 776 1051 l 776 971 l 221 111 l 424 111 b 794 118 524 111 649 113 l 794 0 l 36 0 "},"Ź":{"ha":821,"x_min":0,"x_max":0,"o":"m 36 88 l 588 940 l 364 940 b 33 935 244 940 175 940 l 33 1051 l 776 1051 l 776 971 l 221 111 l 424 111 b 794 118 524 111 649 113 l 794 0 l 36 0 m 489 1343 l 632 1343 l 449 1142 l 354 1142 "},"Ž":{"ha":821,"x_min":0,"x_max":0,"o":"m 36 88 l 588 940 l 364 940 b 33 935 244 940 175 940 l 33 1051 l 776 1051 l 776 971 l 221 111 l 424 111 b 794 118 524 111 649 113 l 794 0 l 36 0 m 288 1343 l 404 1221 l 521 1343 l 651 1343 l 447 1142 l 361 1142 l 158 1343 "},"Ż":{"ha":821,"x_min":0,"x_max":0,"o":"m 36 88 l 588 940 l 364 940 b 33 935 244 940 175 940 l 33 1051 l 776 1051 l 776 971 l 221 111 l 424 111 b 794 118 524 111 649 113 l 794 0 l 36 0 m 342 1318 l 464 1318 l 464 1169 l 342 1169 "},"a":{"ha":782,"x_min":0,"x_max":0,"o":"m 263 -19 b 50 164 138 -19 50 42 b 328 392 50 297 154 340 b 521 517 454 429 521 447 b 388 603 521 574 474 603 b 204 454 279 603 207 550 l 68 454 b 396 704 83 601 203 704 b 658 479 544 704 658 643 l 658 207 b 731 86 658 114 686 86 b 772 99 743 86 761 89 l 772 14 b 678 -10 754 1 721 -10 b 528 150 603 -10 535 36 b 263 -19 488 60 401 -19 m 188 171 b 290 81 188 104 238 81 b 522 350 422 81 522 194 l 522 393 b 358 300 501 346 442 328 b 188 171 240 261 188 238 "},"á":{"ha":782,"x_min":0,"x_max":0,"o":"m 263 -19 b 50 164 138 -19 50 42 b 328 392 50 297 154 340 b 521 517 454 429 521 447 b 388 603 521 574 474 603 b 204 454 279 603 207 550 l 68 454 b 396 704 83 601 203 704 b 658 479 544 704 658 643 l 658 207 b 731 86 658 114 686 86 b 772 99 743 86 761 89 l 772 14 b 678 -10 754 1 721 -10 b 528 150 603 -10 535 36 b 263 -19 488 60 401 -19 m 188 171 b 290 81 188 104 238 81 b 522 350 422 81 522 194 l 522 393 b 358 300 501 346 442 328 b 188 171 240 261 188 238 m 486 1050 l 617 1050 l 426 804 l 360 804 "},"ă":{"ha":782,"x_min":0,"x_max":0,"o":"m 263 -19 b 50 164 138 -19 50 42 b 328 392 50 297 154 340 b 521 517 454 429 521 447 b 388 603 521 574 474 603 b 204 454 279 603 207 550 l 68 454 b 396 704 83 601 203 704 b 658 479 544 704 658 643 l 658 207 b 731 86 658 114 686 86 b 772 99 743 86 761 89 l 772 14 b 678 -10 754 1 721 -10 b 528 150 603 -10 535 36 b 263 -19 488 60 401 -19 m 275 1028 b 392 882 275 932 315 882 b 508 1028 469 882 508 932 l 601 1028 b 392 804 601 890 529 804 b 181 1028 253 804 181 892 m 188 171 b 290 81 188 104 238 81 b 522 350 422 81 522 194 l 522 393 b 358 300 501 346 442 328 b 188 171 240 261 188 238 "},"â":{"ha":782,"x_min":0,"x_max":0,"o":"m 263 -19 b 50 164 138 -19 50 42 b 328 392 50 297 154 340 b 521 517 454 429 521 447 b 388 603 521 574 474 603 b 204 454 279 603 207 550 l 68 454 b 396 704 83 601 203 704 b 658 479 544 704 658 643 l 658 207 b 731 86 658 114 686 86 b 772 99 743 86 761 89 l 772 14 b 678 -10 754 1 721 -10 b 528 150 603 -10 535 36 b 263 -19 488 60 401 -19 m 349 1042 l 435 1042 l 617 804 l 501 804 l 392 956 l 282 804 l 167 804 m 188 171 b 290 81 188 104 238 81 b 522 350 422 81 522 194 l 522 393 b 358 300 501 346 442 328 b 188 171 240 261 188 238 "},"ä":{"ha":782,"x_min":0,"x_max":0,"o":"m 263 -19 b 50 164 138 -19 50 42 b 328 392 50 297 154 340 b 521 517 454 429 521 447 b 388 603 521 574 474 603 b 204 454 279 603 207 550 l 68 454 b 396 704 83 601 203 704 b 658 479 544 704 658 643 l 658 207 b 731 86 658 114 686 86 b 772 99 743 86 761 89 l 772 14 b 678 -10 754 1 721 -10 b 528 150 603 -10 535 36 b 263 -19 488 60 401 -19 m 188 171 b 290 81 188 104 238 81 b 522 350 422 81 522 194 l 522 393 b 358 300 501 346 442 328 b 188 171 240 261 188 238 m 213 999 l 342 999 l 342 850 l 213 850 m 439 999 l 568 999 l 568 850 l 439 850 "},"à":{"ha":782,"x_min":0,"x_max":0,"o":"m 263 -19 b 50 164 138 -19 50 42 b 328 392 50 297 154 340 b 521 517 454 429 521 447 b 388 603 521 574 474 603 b 204 454 279 603 207 550 l 68 454 b 396 704 83 601 203 704 b 658 479 544 704 658 643 l 658 207 b 731 86 658 114 686 86 b 772 99 743 86 761 89 l 772 14 b 678 -10 754 1 721 -10 b 528 150 603 -10 535 36 b 263 -19 488 60 401 -19 m 299 1050 l 425 804 l 358 804 l 168 1050 m 188 171 b 290 81 188 104 238 81 b 522 350 422 81 522 194 l 522 393 b 358 300 501 346 442 328 b 188 171 240 261 188 238 "},"ā":{"ha":782,"x_min":0,"x_max":0,"o":"m 263 -19 b 50 164 138 -19 50 42 b 328 392 50 297 154 340 b 521 517 454 429 521 447 b 388 603 521 574 474 603 b 204 454 279 603 207 550 l 68 454 b 396 704 83 601 203 704 b 658 479 544 704 658 643 l 658 207 b 731 86 658 114 686 86 b 772 99 743 86 761 89 l 772 14 b 678 -10 754 1 721 -10 b 528 150 603 -10 535 36 b 263 -19 488 60 401 -19 m 165 922 l 617 922 l 617 842 l 165 842 m 188 171 b 290 81 188 104 238 81 b 522 350 422 81 522 194 l 522 393 b 358 300 501 346 442 328 b 188 171 240 261 188 238 "},"ą":{"ha":782,"x_min":0,"x_max":0,"o":"m 263 -19 b 50 164 138 -19 50 42 b 328 392 50 297 154 340 b 521 517 454 429 521 447 b 388 603 521 574 474 603 b 204 454 279 603 207 550 l 68 454 b 396 704 83 601 203 704 b 658 479 544 704 658 643 l 658 207 b 731 86 658 114 686 86 b 772 99 743 86 761 89 l 772 14 b 763 8 769 13 767 10 b 644 -171 703 -35 644 -89 b 708 -236 644 -218 676 -236 b 793 -196 746 -236 772 -221 l 793 -268 b 679 -315 767 -297 729 -315 b 547 -187 613 -315 547 -278 b 649 -7 547 -108 593 -50 b 528 150 586 3 535 50 b 263 -19 488 60 401 -19 m 188 171 b 290 81 188 104 238 81 b 522 350 422 81 522 194 l 522 393 b 358 300 501 346 442 328 b 188 171 240 261 188 238 "},"å":{"ha":782,"x_min":0,"x_max":0,"o":"m 263 -19 b 50 164 138 -19 50 42 b 328 392 50 297 154 340 b 521 517 454 429 521 447 b 388 603 521 574 474 603 b 204 454 279 603 207 550 l 68 454 b 396 704 83 601 203 704 b 658 479 544 704 658 643 l 658 207 b 731 86 658 114 686 86 b 772 99 743 86 761 89 l 772 14 b 678 -10 754 1 721 -10 b 528 150 603 -10 535 36 b 263 -19 488 60 401 -19 m 188 171 b 290 81 188 104 238 81 b 522 350 422 81 522 194 l 522 393 b 358 300 501 346 442 328 b 188 171 240 261 188 238 m 233 947 b 390 1093 233 1033 296 1093 b 551 947 488 1093 551 1033 b 390 804 551 864 488 804 b 233 947 296 804 233 864 m 300 947 b 390 858 300 894 338 858 b 481 947 444 858 481 894 b 390 1038 481 1003 444 1038 b 300 947 338 1038 300 1003 "},"ã":{"ha":782,"x_min":0,"x_max":0,"o":"m 263 -19 b 50 164 138 -19 50 42 b 328 392 50 297 154 340 b 521 517 454 429 521 447 b 388 603 521 574 474 603 b 204 454 279 603 207 550 l 68 454 b 396 704 83 601 203 704 b 658 479 544 704 658 643 l 658 207 b 731 86 658 114 686 86 b 772 99 743 86 761 89 l 772 14 b 678 -10 754 1 721 -10 b 528 150 603 -10 535 36 b 263 -19 488 60 401 -19 m 168 804 b 294 1032 160 942 207 1032 b 492 900 408 1032 406 900 b 544 1032 532 900 553 942 l 610 1032 b 489 803 618 875 572 803 b 290 936 368 803 372 936 b 233 804 246 936 226 876 l 168 804 m 188 171 b 290 81 188 104 238 81 b 522 350 422 81 522 194 l 522 393 b 358 300 501 346 442 328 b 188 171 240 261 188 238 "},"æ":{"ha":1271,"x_min":0,"x_max":0,"o":"m 890 -24 b 582 211 743 -24 624 58 b 268 -19 551 75 428 -18 b 50 160 140 -21 50 43 b 328 389 50 293 151 339 b 515 513 451 424 515 444 b 383 603 515 572 469 603 b 200 454 276 603 201 547 l 68 454 b 392 704 83 604 208 704 b 631 569 506 704 593 661 b 892 703 689 656 782 703 b 1221 351 1094 703 1219 565 l 683 351 l 683 339 b 897 83 683 192 760 83 b 1099 244 1025 83 1083 168 l 1221 244 b 890 -24 1199 111 1094 -24 m 188 168 b 299 81 188 104 240 81 b 521 350 422 81 521 193 l 521 389 b 361 294 500 343 444 321 b 188 168 249 258 188 238 m 1088 440 b 894 599 1067 533 1000 599 b 696 440 793 599 724 539 "},"ǽ":{"ha":1271,"x_min":0,"x_max":0,"o":"m 890 -24 b 582 211 743 -24 624 58 b 268 -19 551 75 428 -18 b 50 160 140 -21 50 43 b 328 389 50 293 151 339 b 515 513 451 424 515 444 b 383 603 515 572 469 603 b 200 454 276 603 201 547 l 68 454 b 392 704 83 604 208 704 b 631 569 506 704 593 661 b 892 703 689 656 782 703 b 1221 351 1094 703 1219 565 l 683 351 l 683 339 b 897 83 683 192 760 83 b 1099 244 1025 83 1083 168 l 1221 244 b 890 -24 1199 111 1094 -24 m 188 168 b 299 81 188 104 240 81 b 521 350 422 81 521 193 l 521 389 b 361 294 500 343 444 321 b 188 168 249 258 188 238 m 742 1050 l 872 1050 l 682 804 l 615 804 m 1088 440 b 894 599 1067 533 1000 599 b 696 440 793 599 724 539 "},"b":{"ha":833,"x_min":0,"x_max":0,"o":"m 100 186 l 100 900 l 100 1083 l 242 1083 l 242 900 l 242 549 b 497 700 290 639 378 700 b 781 347 682 700 781 546 b 478 -12 781 144 674 -12 b 242 110 376 -12 292 35 l 242 0 l 100 0 m 242 217 b 444 82 283 139 354 82 b 636 344 564 82 636 188 b 447 601 636 486 578 601 b 242 324 314 601 242 476 l 242 217 "},"c":{"ha":790,"x_min":0,"x_max":0,"o":"m 403 -24 b 53 343 204 -24 53 111 b 410 703 53 572 203 703 b 750 440 601 703 725 585 l 617 440 b 411 596 599 511 543 596 b 192 343 264 596 192 486 b 411 83 192 201 264 83 b 619 271 549 83 606 178 l 753 271 b 403 -24 735 114 618 -24 "},"ć":{"ha":790,"x_min":0,"x_max":0,"o":"m 403 -24 b 53 343 204 -24 53 111 b 410 703 53 572 203 703 b 750 440 601 703 725 585 l 617 440 b 411 596 599 511 543 596 b 192 343 264 596 192 486 b 411 83 192 201 264 83 b 619 271 549 83 606 178 l 753 271 b 403 -24 735 114 618 -24 m 504 1050 l 635 1050 l 444 804 l 378 804 "},"č":{"ha":790,"x_min":0,"x_max":0,"o":"m 403 -24 b 53 343 204 -24 53 111 b 410 703 53 572 203 703 b 750 440 601 703 725 585 l 617 440 b 411 596 599 511 543 596 b 192 343 264 596 192 486 b 411 83 192 201 264 83 b 619 271 549 83 606 178 l 753 271 b 403 -24 735 114 618 -24 m 299 1042 l 408 890 l 518 1042 l 633 1042 l 451 804 l 365 804 l 183 1042 "},"ç":{"ha":790,"x_min":0,"x_max":0,"o":"m 393 -344 b 192 -254 303 -344 233 -308 l 243 -196 b 378 -274 267 -239 311 -274 b 474 -215 436 -274 474 -251 b 386 -154 474 -178 442 -154 b 318 -169 368 -154 335 -157 l 278 -131 l 367 -22 b 53 343 186 -7 53 125 b 410 703 53 572 203 703 b 750 440 601 703 725 585 l 617 440 b 411 596 599 511 543 596 b 192 343 264 596 192 486 b 411 83 192 201 264 83 b 619 271 549 83 606 178 l 753 271 b 444 -22 736 124 633 -6 l 388 -89 b 426 -86 400 -87 413 -86 b 576 -210 513 -86 576 -133 b 393 -344 576 -303 483 -344 "},"ĉ":{"ha":790,"x_min":0,"x_max":0,"o":"m 403 -24 b 53 343 204 -24 53 111 b 410 703 53 572 203 703 b 750 440 601 703 725 585 l 617 440 b 411 596 599 511 543 596 b 192 343 264 596 192 486 b 411 83 192 201 264 83 b 619 271 549 83 606 178 l 753 271 b 403 -24 735 114 618 -24 m 367 1042 l 453 1042 l 635 804 l 519 804 l 410 956 l 300 804 l 185 804 "},"ċ":{"ha":790,"x_min":0,"x_max":0,"o":"m 403 -24 b 53 343 204 -24 53 111 b 410 703 53 572 203 703 b 750 440 601 703 725 585 l 617 440 b 411 596 599 511 543 596 b 192 343 264 596 192 486 b 411 83 192 201 264 83 b 619 271 549 83 606 178 l 753 271 b 403 -24 735 114 618 -24 m 342 997 l 476 997 l 476 849 l 342 849 "},"d":{"ha":833,"x_min":0,"x_max":0,"o":"m 592 151 b 338 -11 544 56 460 -11 b 53 342 150 -11 53 144 b 354 701 53 543 157 701 b 592 585 461 701 542 654 l 592 900 l 592 1083 l 733 1083 l 733 900 l 733 186 l 733 0 l 592 0 m 197 340 b 388 88 197 204 254 88 b 592 364 525 88 592 218 l 592 476 b 392 607 550 551 479 607 b 197 340 267 607 197 500 "},"ð":{"ha":804,"x_min":0,"x_max":0,"o":"m 396 -24 b 50 336 193 -24 50 126 b 378 692 50 547 194 692 b 625 535 500 692 583 628 b 463 900 606 694 549 815 l 132 725 l 132 814 l 399 954 b 113 1060 318 1011 222 1044 l 192 1097 b 476 996 296 1086 393 1051 l 722 1126 l 722 1038 l 544 943 b 751 433 671 829 751 656 b 396 -24 751 140 610 -24 m 189 342 b 397 82 189 181 275 82 b 617 350 528 82 617 192 b 401 597 617 518 517 597 b 189 342 274 597 189 501 "},"ď":{"ha":833,"x_min":0,"x_max":0,"o":"m 592 151 b 338 -11 544 56 460 -11 b 53 342 150 -11 53 144 b 354 701 53 543 157 701 b 592 585 461 701 542 654 l 592 900 l 592 1083 l 733 1083 l 733 900 l 733 186 l 733 0 l 592 0 m 197 340 b 388 88 197 204 254 88 b 592 364 525 88 592 218 l 592 476 b 392 607 550 551 479 607 b 197 340 267 607 197 500 m 833 1083 l 954 1083 l 853 757 l 778 757 "},"đ":{"ha":833,"x_min":0,"x_max":0,"o":"m 592 151 b 338 -11 544 56 460 -11 b 53 342 150 -11 53 144 b 354 701 53 543 157 701 b 592 585 461 701 542 654 l 592 821 l 304 821 l 304 896 l 592 896 l 592 900 l 592 1083 l 733 1083 l 733 900 l 733 896 l 878 896 l 878 821 l 733 821 l 733 186 l 733 0 l 592 0 m 197 340 b 388 88 197 204 254 88 b 592 364 525 88 592 218 l 592 476 b 392 607 550 551 479 607 b 197 340 267 607 197 500 "},"e":{"ha":800,"x_min":0,"x_max":0,"o":"m 406 -24 b 53 340 204 -24 53 104 b 401 703 53 560 201 703 b 750 351 607 703 749 565 l 183 351 l 183 343 b 410 83 183 192 265 83 b 613 244 536 83 597 168 l 746 244 b 406 -24 722 111 613 -24 m 608 446 b 404 599 585 535 515 599 b 197 446 300 599 228 540 "},"é":{"ha":800,"x_min":0,"x_max":0,"o":"m 406 -24 b 53 340 204 -24 53 104 b 401 703 53 560 201 703 b 750 351 607 703 749 565 l 183 351 l 183 343 b 410 83 183 192 265 83 b 613 244 536 83 597 168 l 746 244 b 406 -24 722 111 613 -24 m 608 446 b 404 599 585 535 515 599 b 197 446 300 599 228 540 m 496 1050 l 626 1050 l 436 804 l 369 804 "},"ě":{"ha":800,"x_min":0,"x_max":0,"o":"m 406 -24 b 53 340 204 -24 53 104 b 401 703 53 560 201 703 b 750 351 607 703 749 565 l 183 351 l 183 343 b 410 83 183 192 265 83 b 613 244 536 83 597 168 l 746 244 b 406 -24 722 111 613 -24 m 290 1042 l 400 890 l 510 1042 l 625 1042 l 443 804 l 357 804 l 175 1042 m 608 446 b 404 599 585 535 515 599 b 197 446 300 599 228 540 "},"ê":{"ha":800,"x_min":0,"x_max":0,"o":"m 406 -24 b 53 340 204 -24 53 104 b 401 703 53 560 201 703 b 750 351 607 703 749 565 l 183 351 l 183 343 b 410 83 183 192 265 83 b 613 244 536 83 597 168 l 746 244 b 406 -24 722 111 613 -24 m 358 1042 l 444 1042 l 626 804 l 511 804 l 401 956 l 292 804 l 176 804 m 608 446 b 404 599 585 535 515 599 b 197 446 300 599 228 540 "},"ë":{"ha":800,"x_min":0,"x_max":0,"o":"m 406 -24 b 53 340 204 -24 53 104 b 401 703 53 560 201 703 b 750 351 607 703 749 565 l 183 351 l 183 343 b 410 83 183 192 265 83 b 613 244 536 83 597 168 l 746 244 b 406 -24 722 111 613 -24 m 608 446 b 404 599 585 535 515 599 b 197 446 300 599 228 540 m 222 999 l 351 999 l 351 850 l 222 850 m 449 999 l 578 999 l 578 850 l 449 850 "},"ė":{"ha":800,"x_min":0,"x_max":0,"o":"m 406 -24 b 53 340 204 -24 53 104 b 401 703 53 560 201 703 b 750 351 607 703 749 565 l 183 351 l 183 343 b 410 83 183 192 265 83 b 613 244 536 83 597 168 l 746 244 b 406 -24 722 111 613 -24 m 608 446 b 404 599 585 535 515 599 b 197 446 300 599 228 540 m 333 997 l 468 997 l 468 849 l 333 849 "},"è":{"ha":800,"x_min":0,"x_max":0,"o":"m 406 -24 b 53 340 204 -24 53 104 b 401 703 53 560 201 703 b 750 351 607 703 749 565 l 183 351 l 183 343 b 410 83 183 192 265 83 b 613 244 536 83 597 168 l 746 244 b 406 -24 722 111 613 -24 m 308 1050 l 435 804 l 368 804 l 178 1050 m 608 446 b 404 599 585 535 515 599 b 197 446 300 599 228 540 "},"ē":{"ha":800,"x_min":0,"x_max":0,"o":"m 406 -24 b 53 340 204 -24 53 104 b 401 703 53 560 201 703 b 750 351 607 703 749 565 l 183 351 l 183 343 b 410 83 183 192 265 83 b 613 244 536 83 597 168 l 746 244 b 406 -24 722 111 613 -24 m 175 922 l 626 922 l 626 842 l 175 842 m 608 446 b 404 599 585 535 515 599 b 197 446 300 599 228 540 "},"ę":{"ha":800,"x_min":0,"x_max":0,"o":"m 406 -24 b 53 340 204 -24 53 104 b 401 703 53 560 201 703 b 750 351 607 703 749 565 l 183 351 l 183 343 b 410 83 183 192 265 83 b 613 244 536 83 597 168 l 746 244 b 553 3 729 147 665 49 b 449 -165 499 -37 449 -89 b 513 -231 449 -212 481 -231 b 597 -190 550 -231 576 -215 l 597 -262 b 483 -310 571 -292 533 -310 b 351 -182 417 -310 351 -272 b 428 -24 351 -115 385 -64 l 406 -24 m 608 446 b 404 599 585 535 515 599 b 197 446 300 599 228 540 "},"ẽ":{"ha":800,"x_min":0,"x_max":0,"o":"m 406 -24 b 53 340 204 -24 53 104 b 401 703 53 560 201 703 b 750 351 607 703 749 565 l 183 351 l 183 343 b 410 83 183 192 265 83 b 613 244 536 83 597 168 l 746 244 b 406 -24 722 111 613 -24 m 178 804 b 304 1032 169 942 217 1032 b 501 900 418 1032 415 900 b 554 1032 542 900 563 942 l 619 1032 b 499 803 628 875 582 803 b 300 936 378 803 382 936 b 243 804 256 936 236 876 l 178 804 m 608 446 b 404 599 585 535 515 599 b 197 446 300 599 228 540 "},"ə":{"ha":800,"x_min":0,"x_max":0,"o":"m 394 703 b 747 339 596 703 747 575 b 399 -24 747 119 599 -24 b 50 328 193 -24 51 114 l 617 328 l 617 336 b 390 596 617 488 535 596 b 188 435 264 596 203 511 l 54 435 b 394 703 78 568 188 703 m 192 233 b 396 81 215 144 285 81 b 603 233 500 81 572 139 l 192 233 "},"f":{"ha":576,"x_min":0,"x_max":0,"o":"m 165 186 l 165 579 l 18 579 l 18 679 l 165 679 l 165 796 b 429 1097 165 1008 279 1097 b 661 976 532 1097 610 1056 l 576 906 b 438 992 546 954 506 992 b 307 822 354 992 307 936 l 307 679 l 571 679 l 571 579 l 307 579 l 307 186 l 307 0 l 165 0 "},"g":{"ha":850,"x_min":0,"x_max":0,"o":"m 339 -356 b 78 -200 190 -356 78 -310 b 201 -57 78 -136 118 -89 b 54 71 117 -49 54 -3 b 188 244 54 146 107 200 b 108 435 138 292 108 356 b 421 703 108 601 239 703 b 635 638 507 703 581 681 b 838 800 653 736 732 800 l 838 681 b 683 589 751 681 696 650 b 732 433 714 547 732 494 b 424 165 732 267 606 165 b 250 203 358 165 299 178 b 169 107 200 176 169 149 b 282 50 169 71 196 49 b 672 97 394 53 558 97 b 840 -44 776 97 840 47 b 339 -356 840 -236 576 -356 m 194 -171 b 347 -250 194 -233 268 -250 b 710 -72 501 -250 710 -176 b 617 -14 710 -29 685 -14 b 346 -60 538 -14 425 -37 b 194 -171 249 -87 194 -119 m 243 435 b 421 271 243 336 311 271 b 599 435 531 271 599 336 b 421 597 599 532 529 597 b 243 435 311 597 243 532 "},"ğ":{"ha":850,"x_min":0,"x_max":0,"o":"m 339 -356 b 78 -200 190 -356 78 -310 b 201 -57 78 -136 118 -89 b 54 71 117 -49 54 -3 b 188 244 54 146 107 200 b 108 435 138 292 108 356 b 421 703 108 601 239 703 b 635 638 507 703 581 681 b 838 800 653 736 732 800 l 838 681 b 683 589 751 681 696 650 b 732 433 714 547 732 494 b 424 165 732 267 606 165 b 250 203 358 165 299 178 b 169 107 200 176 169 149 b 282 50 169 71 196 49 b 672 97 394 53 558 97 b 840 -44 776 97 840 47 b 339 -356 840 -236 576 -356 m 194 -171 b 347 -250 194 -233 268 -250 b 710 -72 501 -250 710 -176 b 617 -14 710 -29 685 -14 b 346 -60 538 -14 425 -37 b 194 -171 249 -87 194 -119 m 303 1028 b 419 882 303 932 343 882 b 536 1028 497 882 536 932 l 629 1028 b 419 804 629 890 557 804 b 208 1028 281 804 208 892 m 243 435 b 421 271 243 336 311 271 b 599 435 531 271 599 336 b 421 597 599 532 529 597 b 243 435 311 597 243 532 "},"ǧ":{"ha":850,"x_min":0,"x_max":0,"o":"m 339 -356 b 78 -200 190 -356 78 -310 b 201 -57 78 -136 118 -89 b 54 71 117 -49 54 -3 b 188 244 54 146 107 200 b 108 435 138 292 108 356 b 421 703 108 601 239 703 b 635 638 507 703 581 681 b 838 800 653 736 732 800 l 838 681 b 683 589 751 681 696 650 b 732 433 714 547 732 494 b 424 165 732 267 606 165 b 250 203 358 165 299 178 b 169 107 200 176 169 149 b 282 50 169 71 196 49 b 672 97 394 53 558 97 b 840 -44 776 97 840 47 b 339 -356 840 -236 576 -356 m 308 1042 l 418 890 l 528 1042 l 643 1042 l 461 804 l 375 804 l 193 1042 m 194 -171 b 347 -250 194 -233 268 -250 b 710 -72 501 -250 710 -176 b 617 -14 710 -29 685 -14 b 346 -60 538 -14 425 -37 b 194 -171 249 -87 194 -119 m 243 435 b 421 271 243 336 311 271 b 599 435 531 271 599 336 b 421 597 599 532 529 597 b 243 435 311 597 243 532 "},"ĝ":{"ha":850,"x_min":0,"x_max":0,"o":"m 339 -356 b 78 -200 190 -356 78 -310 b 201 -57 78 -136 118 -89 b 54 71 117 -49 54 -3 b 188 244 54 146 107 200 b 108 435 138 292 108 356 b 421 703 108 601 239 703 b 635 638 507 703 581 681 b 838 800 653 736 732 800 l 838 681 b 683 589 751 681 696 650 b 732 433 714 547 732 494 b 424 165 732 267 606 165 b 250 203 358 165 299 178 b 169 107 200 176 169 149 b 282 50 169 71 196 49 b 672 97 394 53 558 97 b 840 -44 776 97 840 47 b 339 -356 840 -236 576 -356 m 194 -171 b 347 -250 194 -233 268 -250 b 710 -72 501 -250 710 -176 b 617 -14 710 -29 685 -14 b 346 -60 538 -14 425 -37 b 194 -171 249 -87 194 -119 m 376 1042 l 463 1042 l 644 804 l 529 804 l 419 956 l 310 804 l 194 804 m 243 435 b 421 271 243 336 311 271 b 599 435 531 271 599 336 b 421 597 599 532 529 597 b 243 435 311 597 243 532 "},"ģ":{"ha":850,"x_min":0,"x_max":0,"o":"m 339 -356 b 78 -200 190 -356 78 -310 b 201 -57 78 -136 118 -89 b 54 71 117 -49 54 -3 b 188 244 54 146 107 200 b 108 435 138 292 108 356 b 421 703 108 601 239 703 b 635 638 507 703 581 681 b 838 800 653 736 732 800 l 838 681 b 683 589 751 681 696 650 b 732 433 714 547 732 494 b 424 165 732 267 606 165 b 250 203 358 165 299 178 b 169 107 200 176 169 149 b 282 50 169 71 196 49 b 672 97 394 53 558 97 b 840 -44 776 97 840 47 b 339 -356 840 -236 576 -356 m 194 -171 b 347 -250 194 -233 268 -250 b 710 -72 501 -250 710 -176 b 617 -14 710 -29 685 -14 b 346 -60 538 -14 425 -37 b 194 -171 249 -87 194 -119 m 243 435 b 421 271 243 336 311 271 b 599 435 531 271 599 336 b 421 597 599 532 529 597 b 243 435 311 597 243 532 m 503 1060 l 563 1060 l 488 807 l 369 807 "},"ġ":{"ha":850,"x_min":0,"x_max":0,"o":"m 339 -356 b 78 -200 190 -356 78 -310 b 201 -57 78 -136 118 -89 b 54 71 117 -49 54 -3 b 188 244 54 146 107 200 b 108 435 138 292 108 356 b 421 703 108 601 239 703 b 635 638 507 703 581 681 b 838 800 653 736 732 800 l 838 681 b 683 589 751 681 696 650 b 732 433 714 547 732 494 b 424 165 732 267 606 165 b 250 203 358 165 299 178 b 169 107 200 176 169 149 b 282 50 169 71 196 49 b 672 97 394 53 558 97 b 840 -44 776 97 840 47 b 339 -356 840 -236 576 -356 m 194 -171 b 347 -250 194 -233 268 -250 b 710 -72 501 -250 710 -176 b 617 -14 710 -29 685 -14 b 346 -60 538 -14 425 -37 b 194 -171 249 -87 194 -119 m 243 435 b 421 271 243 336 311 271 b 599 435 531 271 599 336 b 421 597 599 532 529 597 b 243 435 311 597 243 532 m 351 997 l 486 997 l 486 849 l 351 849 "},"h":{"ha":817,"x_min":0,"x_max":0,"o":"m 100 186 l 100 900 l 100 1083 l 242 1083 l 242 900 l 242 546 b 506 703 286 632 372 703 b 725 439 639 703 725 628 l 725 186 l 725 0 l 583 0 l 583 186 l 583 414 b 440 593 583 538 536 593 b 242 410 328 593 256 507 l 242 186 l 242 0 l 100 0 "},"ħ":{"ha":817,"x_min":0,"x_max":0,"o":"m 100 186 l 100 821 l -51 821 l -51 896 l 100 896 l 100 900 l 100 1083 l 242 1083 l 242 900 l 242 896 l 522 896 l 522 821 l 242 821 l 242 546 b 506 703 286 632 372 703 b 725 439 639 703 725 628 l 725 186 l 725 0 l 583 0 l 583 186 l 583 414 b 440 593 583 538 536 593 b 242 410 328 593 256 507 l 242 186 l 242 0 l 100 0 "},"ĥ":{"ha":817,"x_min":0,"x_max":0,"o":"m 100 186 l 100 900 l 100 1083 l 242 1083 l 242 900 l 242 546 b 506 703 286 632 372 703 b 725 439 639 703 725 628 l 725 186 l 725 0 l 583 0 l 583 186 l 583 414 b 440 593 583 538 536 593 b 242 410 328 593 256 507 l 242 186 l 242 0 l 100 0 m 263 1375 l 349 1375 l 547 1174 l 417 1174 l 306 1293 l 194 1174 l 65 1174 "},"i":{"ha":342,"x_min":0,"x_max":0,"o":"m 100 186 l 100 493 l 100 679 l 242 679 l 242 186 l 242 0 l 100 0 m 94 1007 l 247 1007 l 247 849 l 94 849 "},"ı":{"ha":342,"x_min":0,"x_max":0,"o":"m 100 186 l 100 493 l 100 679 l 242 679 l 242 186 l 242 0 l 100 0 "},"í":{"ha":342,"x_min":0,"x_max":0,"o":"m 100 186 l 100 493 l 100 679 l 242 679 l 242 186 l 242 0 l 100 0 m 265 1050 l 396 1050 l 206 804 l 139 804 "},"î":{"ha":342,"x_min":0,"x_max":0,"o":"m 100 186 l 100 493 l 100 679 l 242 679 l 242 186 l 242 0 l 100 0 m 128 1042 l 214 1042 l 396 804 l 281 804 l 171 956 l 61 804 l -54 804 "},"ï":{"ha":342,"x_min":0,"x_max":0,"o":"m 100 186 l 100 493 l 100 679 l 242 679 l 242 186 l 242 0 l 100 0 m -8 999 l 121 999 l 121 850 l -8 850 m 218 999 l 347 999 l 347 850 l 218 850 "},"ì":{"ha":342,"x_min":0,"x_max":0,"o":"m 100 186 l 100 493 l 100 679 l 242 679 l 242 186 l 242 0 l 100 0 m 78 1050 l 204 804 l 138 804 l -53 1050 "},"ĳ":{"ha":681,"x_min":0,"x_max":0,"o":"m 100 186 l 100 493 l 100 679 l 242 679 l 242 186 l 242 0 l 100 0 m 94 1007 l 247 1007 l 247 849 l 94 849 m 313 -246 b 440 -76 403 -246 440 -196 l 440 493 l 440 679 l 582 679 l 582 -58 b 313 -337 582 -229 519 -337 m 435 1007 l 588 1007 l 588 849 l 435 849 "},"ī":{"ha":342,"x_min":0,"x_max":0,"o":"m 100 186 l 100 493 l 100 679 l 242 679 l 242 186 l 242 0 l 100 0 m -56 922 l 396 922 l 396 842 l -56 842 "},"į":{"ha":342,"x_min":0,"x_max":0,"o":"m 100 186 l 100 493 l 100 679 l 242 679 l 242 186 l 242 0 b 115 -185 179 -43 115 -99 b 179 -250 115 -232 147 -250 b 264 -210 217 -250 243 -235 l 264 -282 b 150 -329 238 -311 200 -329 b 18 -201 83 -329 18 -292 b 150 0 18 -108 82 -43 l 100 0 m 94 1007 l 247 1007 l 247 849 l 94 849 "},"ĩ":{"ha":342,"x_min":0,"x_max":0,"o":"m 100 186 l 100 493 l 100 679 l 242 679 l 242 186 l 242 0 l 100 0 m -53 804 b 74 1032 -61 942 -14 1032 b 271 900 188 1032 185 900 b 324 1032 311 900 332 942 l 389 1032 b 268 803 397 875 351 803 b 69 936 147 803 151 936 b 13 804 25 936 6 876 l -53 804 "},"j":{"ha":358,"x_min":0,"x_max":0,"o":"m -10 -246 b 118 -76 81 -246 118 -196 l 118 493 l 118 679 l 260 679 l 260 -58 b -10 -337 260 -229 197 -337 l -10 -246 m 113 1007 l 265 1007 l 265 849 l 113 849 "},"ȷ":{"ha":358,"x_min":0,"x_max":0,"o":"m -10 -246 b 118 -76 81 -246 118 -196 l 118 493 l 118 679 l 260 679 l 260 -58 b -10 -337 260 -229 197 -337 l -10 -246 "},"ĵ":{"ha":358,"x_min":0,"x_max":0,"o":"m -10 -246 b 118 -76 81 -246 118 -196 l 118 493 l 118 679 l 260 679 l 260 -58 b -10 -337 260 -229 197 -337 l -10 -246 m 146 1042 l 232 1042 l 414 804 l 299 804 l 189 956 l 79 804 l -36 804 "},"k":{"ha":713,"x_min":0,"x_max":0,"o":"m 242 343 l 242 186 l 242 0 l 100 0 l 100 186 l 100 900 l 100 1079 l 100 1083 l 242 1083 l 242 900 l 242 425 l 442 594 b 536 679 469 618 508 654 l 686 679 l 686 669 b 589 588 654 642 622 615 l 356 393 l 722 8 l 722 0 l 557 0 "},"ķ":{"ha":713,"x_min":0,"x_max":0,"o":"m 242 343 l 242 186 l 242 0 l 100 0 l 100 186 l 100 900 l 100 1079 l 100 1083 l 242 1083 l 242 900 l 242 425 l 442 594 b 536 679 469 618 508 654 l 686 679 l 686 669 b 589 588 654 642 622 615 l 356 393 l 722 8 l 722 0 l 557 0 m 329 -83 l 450 -83 l 289 -346 l 235 -319 "},"l":{"ha":342,"x_min":0,"x_max":0,"o":"m 100 186 l 100 900 l 100 1083 l 242 1083 l 242 900 l 242 186 l 242 0 l 100 0 "},"ĺ":{"ha":342,"x_min":0,"x_max":0,"o":"m 100 186 l 100 900 l 100 1083 l 242 1083 l 242 900 l 242 186 l 242 0 l 100 0 m 256 1375 l 399 1375 l 215 1174 l 121 1174 "},"ľ":{"ha":342,"x_min":0,"x_max":0,"o":"m 100 186 l 100 900 l 100 1083 l 242 1083 l 242 900 l 242 186 l 242 0 l 100 0 m 342 1083 l 463 1083 l 361 757 l 286 757 "},"ļ":{"ha":342,"x_min":0,"x_max":0,"o":"m 100 186 l 100 900 l 100 1083 l 242 1083 l 242 900 l 242 186 l 242 0 l 100 0 m 104 -83 l 225 -83 l 64 -346 l 10 -319 "},"ŀ":{"ha":510,"x_min":0,"x_max":0,"o":"m 100 186 l 100 900 l 100 1083 l 242 1083 l 242 900 l 242 186 l 242 0 l 100 0 m 356 636 l 499 636 l 499 475 l 356 475 "},"ł":{"ha":342,"x_min":0,"x_max":0,"o":"m 100 186 l 100 478 l -17 415 l -17 493 l 100 556 l 100 900 l 100 1083 l 242 1083 l 242 900 l 242 632 l 367 699 l 367 622 l 242 554 l 242 186 l 242 0 l 100 0 "},"m":{"ha":1274,"x_min":0,"x_max":0,"o":"m 99 186 l 99 493 l 99 679 l 238 679 l 238 549 b 494 703 282 633 365 703 b 701 532 601 703 678 653 b 967 703 743 624 829 703 b 1182 439 1097 703 1182 628 l 1182 186 l 1182 0 l 1043 0 l 1043 186 l 1043 414 b 903 593 1043 538 997 593 b 710 418 796 593 726 513 l 710 186 l 710 0 l 571 0 l 571 186 l 571 414 b 431 593 571 538 525 593 b 238 418 324 593 254 513 l 238 186 l 238 0 l 99 0 "},"n":{"ha":815,"x_min":0,"x_max":0,"o":"m 99 186 l 99 493 l 99 679 l 240 679 l 240 546 b 504 703 285 632 371 703 b 724 439 638 703 724 628 l 724 186 l 724 0 l 582 0 l 582 186 l 582 414 b 439 593 582 538 535 593 b 240 410 326 593 254 507 l 240 186 l 240 0 l 99 0 "},"ń":{"ha":815,"x_min":0,"x_max":0,"o":"m 99 186 l 99 493 l 99 679 l 240 679 l 240 546 b 504 703 285 632 371 703 b 724 439 638 703 724 628 l 724 186 l 724 0 l 582 0 l 582 186 l 582 414 b 439 593 582 538 535 593 b 240 410 326 593 254 507 l 240 186 l 240 0 l 99 0 m 524 1050 l 654 1050 l 464 804 l 397 804 "},"ň":{"ha":815,"x_min":0,"x_max":0,"o":"m 99 186 l 99 493 l 99 679 l 240 679 l 240 546 b 504 703 285 632 371 703 b 724 439 638 703 724 628 l 724 186 l 724 0 l 582 0 l 582 186 l 582 414 b 439 593 582 538 535 593 b 240 410 326 593 254 507 l 240 186 l 240 0 l 99 0 m 318 1042 l 428 890 l 538 1042 l 653 1042 l 471 804 l 385 804 l 203 1042 "},"ņ":{"ha":815,"x_min":0,"x_max":0,"o":"m 99 186 l 99 493 l 99 679 l 240 679 l 240 546 b 504 703 285 632 371 703 b 724 439 638 703 724 628 l 724 186 l 724 0 l 582 0 l 582 186 l 582 414 b 439 593 582 538 535 593 b 240 410 326 593 254 507 l 240 186 l 240 0 l 99 0 m 344 -83 l 465 -83 l 304 -346 l 250 -319 "},"ñ":{"ha":815,"x_min":0,"x_max":0,"o":"m 99 186 l 99 493 l 99 679 l 240 679 l 240 546 b 504 703 285 632 371 703 b 724 439 638 703 724 628 l 724 186 l 724 0 l 582 0 l 582 186 l 582 414 b 439 593 582 538 535 593 b 240 410 326 593 254 507 l 240 186 l 240 0 l 99 0 m 206 804 b 332 1032 197 942 244 1032 b 529 900 446 1032 443 900 b 582 1032 569 900 590 942 l 647 1032 b 526 803 656 875 610 803 b 328 936 406 803 410 936 b 271 804 283 936 264 876 l 206 804 "},"ŋ":{"ha":815,"x_min":0,"x_max":0,"o":"m 444 -229 b 581 -29 551 -187 581 -133 l 581 414 b 438 593 581 538 531 593 b 240 410 324 593 264 510 l 240 186 l 240 0 l 99 0 l 99 186 l 99 493 l 99 679 l 240 679 l 240 529 b 503 703 283 622 371 703 b 722 439 636 703 722 628 l 722 -29 b 474 -310 722 -185 618 -262 l 444 -229 "},"o":{"ha":829,"x_min":0,"x_max":0,"o":"m 415 -24 b 53 340 188 -24 53 126 b 415 703 53 554 188 703 b 776 340 643 703 776 554 b 415 -24 776 126 643 -24 m 190 340 b 415 85 190 174 282 85 b 639 340 549 85 639 174 b 415 594 639 506 549 594 b 190 340 282 594 190 506 "},"ó":{"ha":829,"x_min":0,"x_max":0,"o":"m 415 -24 b 53 340 188 -24 53 126 b 415 703 53 554 188 703 b 776 340 643 703 776 554 b 415 -24 776 126 643 -24 m 190 340 b 415 85 190 174 282 85 b 639 340 549 85 639 174 b 415 594 639 506 549 594 b 190 340 282 594 190 506 m 510 1050 l 640 1050 l 450 804 l 383 804 "},"ô":{"ha":829,"x_min":0,"x_max":0,"o":"m 415 -24 b 53 340 188 -24 53 126 b 415 703 53 554 188 703 b 776 340 643 703 776 554 b 415 -24 776 126 643 -24 m 190 340 b 415 85 190 174 282 85 b 639 340 549 85 639 174 b 415 594 639 506 549 594 b 190 340 282 594 190 506 m 372 1042 l 458 1042 l 640 804 l 525 804 l 415 956 l 306 804 l 190 804 "},"ö":{"ha":829,"x_min":0,"x_max":0,"o":"m 415 -24 b 53 340 188 -24 53 126 b 415 703 53 554 188 703 b 776 340 643 703 776 554 b 415 -24 776 126 643 -24 m 190 340 b 415 85 190 174 282 85 b 639 340 549 85 639 174 b 415 594 639 506 549 594 b 190 340 282 594 190 506 m 236 999 l 365 999 l 365 850 l 236 850 m 463 999 l 592 999 l 592 850 l 463 850 "},"ò":{"ha":829,"x_min":0,"x_max":0,"o":"m 415 -24 b 53 340 188 -24 53 126 b 415 703 53 554 188 703 b 776 340 643 703 776 554 b 415 -24 776 126 643 -24 m 190 340 b 415 85 190 174 282 85 b 639 340 549 85 639 174 b 415 594 639 506 549 594 b 190 340 282 594 190 506 m 322 1050 l 449 804 l 382 804 l 192 1050 "},"ő":{"ha":829,"x_min":0,"x_max":0,"o":"m 415 -24 b 53 340 188 -24 53 126 b 415 703 53 554 188 703 b 776 340 643 703 776 554 b 415 -24 776 126 643 -24 m 190 340 b 415 85 190 174 282 85 b 639 340 549 85 639 174 b 415 594 639 506 549 594 b 190 340 282 594 190 506 m 397 1050 l 508 1050 l 360 804 l 278 804 m 603 1050 l 714 1050 l 551 804 l 469 804 "},"ō":{"ha":829,"x_min":0,"x_max":0,"o":"m 415 -24 b 53 340 188 -24 53 126 b 415 703 53 554 188 703 b 776 340 643 703 776 554 b 415 -24 776 126 643 -24 m 189 922 l 640 922 l 640 842 l 189 842 m 190 340 b 415 85 190 174 282 85 b 639 340 549 85 639 174 b 415 594 639 506 549 594 b 190 340 282 594 190 506 "},"ø":{"ha":829,"x_min":0,"x_max":0,"o":"m 169 -147 l 238 14 b 53 340 119 72 53 190 b 415 703 53 554 188 703 b 521 690 453 703 489 699 l 585 842 l 657 817 l 593 665 b 776 340 711 608 776 490 b 415 -24 776 126 643 -24 b 310 -11 378 -24 342 -19 l 242 -172 m 190 340 b 283 124 190 238 225 164 l 478 588 b 415 594 458 592 438 594 b 190 340 282 594 190 506 m 353 92 b 415 85 372 88 393 85 b 639 340 549 85 639 174 b 547 556 639 442 604 515 l 353 92 "},"ǿ":{"ha":829,"x_min":0,"x_max":0,"o":"m 169 -147 l 238 14 b 53 340 119 72 53 190 b 415 703 53 554 188 703 b 521 690 453 703 489 699 l 585 842 l 657 817 l 593 665 b 776 340 711 608 776 490 b 415 -24 776 126 643 -24 b 310 -11 378 -24 342 -19 l 242 -172 m 190 340 b 283 124 190 238 225 164 l 478 588 b 415 594 458 592 438 594 b 190 340 282 594 190 506 m 353 92 b 415 85 372 88 393 85 b 639 340 549 85 639 174 b 547 556 639 442 604 515 l 353 92 m 510 1050 l 640 1050 l 450 804 l 383 804 "},"õ":{"ha":829,"x_min":0,"x_max":0,"o":"m 415 -24 b 53 340 188 -24 53 126 b 415 703 53 554 188 703 b 776 340 643 703 776 554 b 415 -24 776 126 643 -24 m 190 340 b 415 85 190 174 282 85 b 639 340 549 85 639 174 b 415 594 639 506 549 594 b 190 340 282 594 190 506 m 192 804 b 318 1032 183 942 231 1032 b 515 900 432 1032 429 900 b 568 1032 556 900 576 942 l 633 1032 b 513 803 642 875 596 803 b 314 936 392 803 396 936 b 257 804 269 936 250 876 l 192 804 "},"œ":{"ha":1325,"x_min":0,"x_max":0,"o":"m 397 -24 b 53 340 181 -24 53 126 b 397 703 53 554 181 703 b 678 567 524 703 619 651 b 944 703 736 653 832 703 b 1275 351 1139 703 1274 565 l 740 351 l 740 340 b 739 297 740 326 740 311 b 951 83 753 171 828 83 b 1144 244 1072 83 1131 168 l 1271 244 b 947 -24 1249 111 1144 -24 b 675 110 833 -24 735 22 b 397 -24 618 26 522 -24 m 183 340 b 397 85 183 174 271 85 b 610 340 524 85 610 174 b 397 594 610 506 524 594 b 183 340 271 594 183 506 m 1140 446 b 946 599 1118 535 1051 599 b 750 446 847 599 778 540 "},"p":{"ha":829,"x_min":0,"x_max":0,"o":"m 96 -167 l 96 513 l 96 679 l 238 679 l 238 549 b 493 700 286 639 374 700 b 776 347 678 700 776 546 b 474 -12 776 144 669 -12 b 238 110 372 -12 288 35 l 238 -167 l 238 -333 l 96 -333 m 238 217 b 440 82 279 139 350 82 b 632 344 560 82 632 188 b 443 601 632 486 574 601 b 238 324 310 601 238 476 l 238 217 "},"þ":{"ha":832,"x_min":0,"x_max":0,"o":"m 100 -167 l 100 897 l 100 1079 l 100 1083 l 242 1083 l 242 897 l 242 538 b 499 700 289 633 375 700 b 779 347 679 700 779 546 b 483 -12 779 144 675 -12 b 242 100 381 -12 293 31 l 242 -167 l 242 -333 l 100 -333 m 242 207 b 436 82 282 135 351 82 b 635 344 563 82 635 188 b 446 601 635 486 576 601 b 242 360 324 601 253 496 l 242 207 "},"q":{"ha":832,"x_min":0,"x_max":0,"o":"m 592 -167 l 592 151 b 338 -11 544 56 460 -11 b 53 342 150 -11 53 144 b 354 701 53 543 157 701 b 592 585 461 701 542 654 l 592 679 l 733 679 l 733 513 l 733 -167 l 733 -333 l 592 -333 m 197 340 b 388 88 197 204 254 88 b 592 364 525 88 592 218 l 592 476 b 392 607 550 551 479 607 b 197 340 267 607 197 500 "},"r":{"ha":533,"x_min":0,"x_max":0,"o":"m 99 186 l 99 493 l 99 679 l 240 679 l 240 493 l 240 493 b 513 683 263 575 346 682 l 513 563 b 240 336 332 563 243 483 l 240 186 l 240 0 l 99 0 "},"ŕ":{"ha":533,"x_min":0,"x_max":0,"o":"m 99 186 l 99 493 l 99 679 l 240 679 l 240 493 l 240 493 b 513 683 263 575 346 682 l 513 563 b 240 336 332 563 243 483 l 240 186 l 240 0 l 99 0 m 407 1050 l 538 1050 l 347 804 l 281 804 "},"ř":{"ha":533,"x_min":0,"x_max":0,"o":"m 99 186 l 99 493 l 99 679 l 240 679 l 240 493 l 240 493 b 513 683 263 575 346 682 l 513 563 b 240 336 332 563 243 483 l 240 186 l 240 0 l 99 0 m 201 1042 l 311 890 l 421 1042 l 536 1042 l 354 804 l 268 804 l 86 1042 "},"ŗ":{"ha":533,"x_min":0,"x_max":0,"o":"m 99 186 l 99 493 l 99 679 l 240 679 l 240 493 l 240 493 b 513 683 263 575 346 682 l 513 563 b 240 336 332 563 243 483 l 240 186 l 240 0 l 99 0 m 107 -83 l 228 -83 l 67 -346 l 13 -319 "},"s":{"ha":707,"x_min":0,"x_max":0,"o":"m 376 -24 b 44 229 192 -24 63 68 l 181 229 b 379 82 194 135 261 82 b 515 164 451 82 515 104 b 319 293 515 229 435 251 b 75 510 182 343 75 385 b 343 704 75 638 185 704 b 647 483 526 704 626 617 l 511 483 b 343 600 500 556 439 600 b 208 521 261 600 208 574 b 403 392 208 463 263 439 b 654 175 567 336 654 289 b 376 -24 654 39 529 -24 "},"ś":{"ha":707,"x_min":0,"x_max":0,"o":"m 376 -24 b 44 229 192 -24 63 68 l 181 229 b 379 82 194 135 261 82 b 515 164 451 82 515 104 b 319 293 515 229 435 251 b 75 510 182 343 75 385 b 343 704 75 638 185 704 b 647 483 526 704 626 617 l 511 483 b 343 600 500 556 439 600 b 208 521 261 600 208 574 b 403 392 208 463 263 439 b 654 175 567 336 654 289 b 376 -24 654 39 529 -24 m 442 1050 l 572 1050 l 382 804 l 315 804 "},"š":{"ha":707,"x_min":0,"x_max":0,"o":"m 376 -24 b 44 229 192 -24 63 68 l 181 229 b 379 82 194 135 261 82 b 515 164 451 82 515 104 b 319 293 515 229 435 251 b 75 510 182 343 75 385 b 343 704 75 638 185 704 b 647 483 526 704 626 617 l 511 483 b 343 600 500 556 439 600 b 208 521 261 600 208 574 b 403 392 208 463 263 439 b 654 175 567 336 654 289 b 376 -24 654 39 529 -24 m 236 1042 l 346 890 l 456 1042 l 571 1042 l 389 804 l 303 804 l 121 1042 "},"ş":{"ha":707,"x_min":0,"x_max":0,"o":"m 350 -344 b 149 -254 260 -344 190 -308 l 200 -196 b 335 -274 224 -239 268 -274 b 431 -215 393 -274 431 -251 b 343 -154 431 -178 399 -154 b 275 -169 325 -154 292 -157 l 235 -131 l 325 -21 b 44 229 168 -6 61 83 l 181 229 b 379 82 194 135 261 82 b 515 164 451 82 515 104 b 319 293 515 229 435 251 b 75 510 182 343 75 385 b 343 704 75 638 185 704 b 647 483 526 704 626 617 l 511 483 b 343 600 500 556 439 600 b 208 521 261 600 208 574 b 403 392 208 463 263 439 b 654 175 567 336 654 289 b 400 -24 654 46 542 -17 l 344 -89 b 383 -86 357 -87 369 -86 b 533 -210 469 -86 533 -133 b 350 -344 533 -303 440 -344 "},"ŝ":{"ha":707,"x_min":0,"x_max":0,"o":"m 376 -24 b 44 229 192 -24 63 68 l 181 229 b 379 82 194 135 261 82 b 515 164 451 82 515 104 b 319 293 515 229 435 251 b 75 510 182 343 75 385 b 343 704 75 638 185 704 b 647 483 526 704 626 617 l 511 483 b 343 600 500 556 439 600 b 208 521 261 600 208 574 b 403 392 208 463 263 439 b 654 175 567 336 654 289 b 376 -24 654 39 529 -24 m 304 1042 l 390 1042 l 572 804 l 457 804 l 347 956 l 238 804 l 122 804 "},"ș":{"ha":707,"x_min":0,"x_max":0,"o":"m 376 -24 b 44 229 192 -24 63 68 l 181 229 b 379 82 194 135 261 82 b 515 164 451 82 515 104 b 319 293 515 229 435 251 b 75 510 182 343 75 385 b 343 704 75 638 185 704 b 647 483 526 704 626 617 l 511 483 b 343 600 500 556 439 600 b 208 521 261 600 208 574 b 403 392 208 463 263 439 b 654 175 567 336 654 289 b 376 -24 654 39 529 -24 m 310 -83 l 431 -83 l 269 -346 l 215 -319 "},"ß":{"ha":864,"x_min":0,"x_max":0,"o":"m 515 -24 b 340 25 444 -24 388 -8 l 340 147 b 511 74 376 106 432 74 b 654 185 601 74 654 111 b 514 386 654 260 600 310 b 381 563 438 454 381 497 b 482 707 381 624 425 661 b 597 872 542 757 597 796 b 443 997 597 949 540 997 b 239 736 297 997 239 886 l 239 186 l 239 0 l 100 0 l 100 186 l 100 722 b 449 1096 100 933 214 1096 b 721 886 615 1096 721 1014 b 588 697 721 782 649 738 b 501 592 525 657 501 629 b 619 451 501 540 558 499 b 790 194 724 371 790 299 b 515 -24 790 60 679 -24 "},"t":{"ha":567,"x_min":0,"x_max":0,"o":"m 358 -12 b 149 232 238 -12 149 47 l 149 579 l 3 579 l 3 679 l 149 679 l 149 869 l 286 969 l 290 969 l 290 679 l 510 679 l 510 579 l 290 579 l 290 235 b 403 94 290 125 340 94 b 535 161 460 94 504 119 l 554 69 b 358 -12 524 29 457 -12 "},"ŧ":{"ha":567,"x_min":0,"x_max":0,"o":"m 8 458 l 149 458 l 149 579 l 3 579 l 3 679 l 149 679 l 149 869 l 286 969 l 290 969 l 290 679 l 510 679 l 510 579 l 290 579 l 290 458 l 526 458 l 526 385 l 290 385 l 290 235 b 403 94 290 125 340 94 b 535 161 460 94 504 119 l 554 69 b 358 -12 524 29 457 -12 b 149 232 238 -12 149 47 l 149 385 l 8 385 "},"ť":{"ha":572,"x_min":0,"x_max":0,"o":"m 358 -12 b 149 232 238 -12 149 47 l 149 579 l 3 579 l 3 679 l 149 679 l 149 869 l 286 969 l 290 969 l 290 679 l 510 679 l 510 579 l 290 579 l 290 235 b 403 94 290 125 340 94 b 535 161 460 94 504 119 l 554 69 b 358 -12 524 29 457 -12 m 428 1089 l 549 1089 l 461 818 l 386 818 "},"ţ":{"ha":567,"x_min":0,"x_max":0,"o":"m 3 679 l 149 679 l 149 869 l 286 969 l 290 969 l 290 679 l 510 679 l 510 579 l 290 579 l 290 235 b 403 94 290 125 340 94 b 535 161 460 94 504 119 l 554 69 b 378 -12 525 32 465 -7 l 313 -89 b 351 -86 325 -87 338 -86 b 501 -210 438 -86 501 -133 b 318 -344 501 -303 408 -344 b 117 -254 228 -344 158 -308 l 168 -196 b 303 -274 192 -239 236 -274 b 399 -215 361 -274 399 -251 b 311 -154 399 -178 367 -154 b 243 -169 293 -154 260 -157 l 203 -131 l 303 -8 b 149 232 211 10 149 76 l 149 579 l 3 579 "},"ț":{"ha":567,"x_min":0,"x_max":0,"o":"m 358 -12 b 149 232 238 -12 149 47 l 149 579 l 3 579 l 3 679 l 149 679 l 149 869 l 286 969 l 290 969 l 290 679 l 510 679 l 510 579 l 290 579 l 290 235 b 403 94 290 125 340 94 b 535 161 460 94 504 119 l 554 69 b 358 -12 524 29 457 -12 m 278 -83 l 399 -83 l 238 -346 l 183 -319 "},"u":{"ha":813,"x_min":0,"x_max":0,"o":"m 313 -19 b 92 246 178 -19 92 56 l 92 493 l 92 679 l 233 679 l 233 493 l 233 267 b 371 90 233 143 282 90 b 572 283 486 90 551 171 l 572 493 l 572 679 l 714 679 l 714 493 l 714 186 l 714 0 l 572 0 l 572 143 b 313 -19 528 57 439 -19 "},"ú":{"ha":813,"x_min":0,"x_max":0,"o":"m 313 -19 b 92 246 178 -19 92 56 l 92 493 l 92 679 l 233 679 l 233 493 l 233 267 b 371 90 233 143 282 90 b 572 283 486 90 551 171 l 572 493 l 572 679 l 714 679 l 714 493 l 714 186 l 714 0 l 572 0 l 572 143 b 313 -19 528 57 439 -19 m 497 1050 l 628 1050 l 438 804 l 371 804 "},"ŭ":{"ha":813,"x_min":0,"x_max":0,"o":"m 313 -19 b 92 246 178 -19 92 56 l 92 493 l 92 679 l 233 679 l 233 493 l 233 267 b 371 90 233 143 282 90 b 572 283 486 90 551 171 l 572 493 l 572 679 l 714 679 l 714 493 l 714 186 l 714 0 l 572 0 l 572 143 b 313 -19 528 57 439 -19 m 286 1028 b 403 882 286 932 326 882 b 519 1028 481 882 519 932 l 613 1028 b 403 804 613 890 540 804 b 192 1028 264 804 192 892 "},"û":{"ha":813,"x_min":0,"x_max":0,"o":"m 313 -19 b 92 246 178 -19 92 56 l 92 493 l 92 679 l 233 679 l 233 493 l 233 267 b 371 90 233 143 282 90 b 572 283 486 90 551 171 l 572 493 l 572 679 l 714 679 l 714 493 l 714 186 l 714 0 l 572 0 l 572 143 b 313 -19 528 57 439 -19 m 360 1042 l 446 1042 l 628 804 l 513 804 l 403 956 l 293 804 l 178 804 "},"ü":{"ha":813,"x_min":0,"x_max":0,"o":"m 313 -19 b 92 246 178 -19 92 56 l 92 493 l 92 679 l 233 679 l 233 493 l 233 267 b 371 90 233 143 282 90 b 572 283 486 90 551 171 l 572 493 l 572 679 l 714 679 l 714 493 l 714 186 l 714 0 l 572 0 l 572 143 b 313 -19 528 57 439 -19 m 224 999 l 353 999 l 353 850 l 224 850 m 450 999 l 579 999 l 579 850 l 450 850 "},"ù":{"ha":813,"x_min":0,"x_max":0,"o":"m 313 -19 b 92 246 178 -19 92 56 l 92 493 l 92 679 l 233 679 l 233 493 l 233 267 b 371 90 233 143 282 90 b 572 283 486 90 551 171 l 572 493 l 572 679 l 714 679 l 714 493 l 714 186 l 714 0 l 572 0 l 572 143 b 313 -19 528 57 439 -19 m 310 1050 l 436 804 l 369 804 l 179 1050 "},"ű":{"ha":813,"x_min":0,"x_max":0,"o":"m 313 -19 b 92 246 178 -19 92 56 l 92 493 l 92 679 l 233 679 l 233 493 l 233 267 b 371 90 233 143 282 90 b 572 283 486 90 551 171 l 572 493 l 572 679 l 714 679 l 714 493 l 714 186 l 714 0 l 572 0 l 572 143 b 313 -19 528 57 439 -19 m 385 1050 l 496 1050 l 347 804 l 265 804 m 590 1050 l 701 1050 l 539 804 l 457 804 "},"ū":{"ha":813,"x_min":0,"x_max":0,"o":"m 313 -19 b 92 246 178 -19 92 56 l 92 493 l 92 679 l 233 679 l 233 493 l 233 267 b 371 90 233 143 282 90 b 572 283 486 90 551 171 l 572 493 l 572 679 l 714 679 l 714 493 l 714 186 l 714 0 l 572 0 l 572 143 b 313 -19 528 57 439 -19 m 176 922 l 628 922 l 628 842 l 176 842 "},"ų":{"ha":813,"x_min":0,"x_max":0,"o":"m 313 -19 b 92 246 178 -19 92 56 l 92 493 l 92 679 l 233 679 l 233 493 l 233 267 b 371 90 233 143 282 90 b 572 283 486 90 551 171 l 572 493 l 572 679 l 714 679 l 714 493 l 714 186 l 714 0 l 678 0 b 551 -185 615 -43 551 -99 b 615 -250 551 -232 583 -250 b 700 -210 653 -250 679 -235 l 700 -282 b 586 -329 674 -311 636 -329 b 454 -201 519 -329 454 -292 b 586 0 454 -108 518 -43 l 572 0 l 572 143 b 313 -19 528 57 439 -19 "},"ů":{"ha":813,"x_min":0,"x_max":0,"o":"m 313 -19 b 92 246 178 -19 92 56 l 92 493 l 92 679 l 233 679 l 233 493 l 233 267 b 371 90 233 143 282 90 b 572 283 486 90 551 171 l 572 493 l 572 679 l 714 679 l 714 493 l 714 186 l 714 0 l 572 0 l 572 143 b 313 -19 528 57 439 -19 m 244 947 b 401 1093 244 1033 307 1093 b 563 947 499 1093 563 1033 b 401 804 563 864 499 804 b 244 947 307 804 244 864 m 311 947 b 401 858 311 894 349 858 b 492 947 456 858 492 894 b 401 1038 492 1003 456 1038 b 311 947 349 1038 311 1003 "},"ũ":{"ha":813,"x_min":0,"x_max":0,"o":"m 313 -19 b 92 246 178 -19 92 56 l 92 493 l 92 679 l 233 679 l 233 493 l 233 267 b 371 90 233 143 282 90 b 572 283 486 90 551 171 l 572 493 l 572 679 l 714 679 l 714 493 l 714 186 l 714 0 l 572 0 l 572 143 b 313 -19 528 57 439 -19 m 179 804 b 306 1032 171 942 218 1032 b 503 900 419 1032 417 900 b 556 1032 543 900 564 942 l 621 1032 b 500 803 629 875 583 803 b 301 936 379 803 383 936 b 244 804 257 936 238 876 l 179 804 "},"v":{"ha":701,"x_min":0,"x_max":0,"o":"m 75 532 b 19 679 56 583 35 638 l 182 679 l 232 532 l 354 178 l 476 532 l 526 679 l 682 679 l 625 531 l 453 86 b 424 0 438 49 428 24 l 279 0 l 75 532 "},"w":{"ha":1033,"x_min":0,"x_max":0,"o":"m 58 582 b 22 679 49 610 33 650 l 178 679 b 210 582 186 651 200 610 l 339 199 l 471 656 l 575 656 l 710 197 l 838 583 l 871 679 l 1011 679 l 976 581 l 794 72 b 772 0 785 44 775 21 l 657 0 l 519 481 l 404 86 b 381 0 392 42 385 21 l 265 0 l 58 582 "},"ẃ":{"ha":1033,"x_min":0,"x_max":0,"o":"m 58 582 b 22 679 49 610 33 650 l 178 679 b 210 582 186 651 200 610 l 339 199 l 471 656 l 575 656 l 710 197 l 838 583 l 871 679 l 1011 679 l 976 581 l 794 72 b 772 0 785 44 775 21 l 657 0 l 519 481 l 404 86 b 381 0 392 42 385 21 l 265 0 l 58 582 m 611 1050 l 742 1050 l 551 804 l 485 804 "},"ŵ":{"ha":1033,"x_min":0,"x_max":0,"o":"m 58 582 b 22 679 49 610 33 650 l 178 679 b 210 582 186 651 200 610 l 339 199 l 471 656 l 575 656 l 710 197 l 838 583 l 871 679 l 1011 679 l 976 581 l 794 72 b 772 0 785 44 775 21 l 657 0 l 519 481 l 404 86 b 381 0 392 42 385 21 l 265 0 l 58 582 m 474 1042 l 560 1042 l 742 804 l 626 804 l 517 956 l 407 804 l 292 804 "},"ẅ":{"ha":1033,"x_min":0,"x_max":0,"o":"m 58 582 b 22 679 49 610 33 650 l 178 679 b 210 582 186 651 200 610 l 339 199 l 471 656 l 575 656 l 710 197 l 838 583 l 871 679 l 1011 679 l 976 581 l 794 72 b 772 0 785 44 775 21 l 657 0 l 519 481 l 404 86 b 381 0 392 42 385 21 l 265 0 l 58 582 m 338 999 l 467 999 l 467 850 l 338 850 m 564 999 l 693 999 l 693 850 l 564 850 "},"ẁ":{"ha":1033,"x_min":0,"x_max":0,"o":"m 58 582 b 22 679 49 610 33 650 l 178 679 b 210 582 186 651 200 610 l 339 199 l 471 656 l 575 656 l 710 197 l 838 583 l 871 679 l 1011 679 l 976 581 l 794 72 b 772 0 785 44 775 21 l 657 0 l 519 481 l 404 86 b 381 0 392 42 385 21 l 265 0 l 58 582 m 424 1050 l 550 804 l 483 804 l 293 1050 "},"x":{"ha":707,"x_min":0,"x_max":0,"o":"m 438 124 l 343 246 l 257 124 b 169 0 226 81 197 38 l 14 0 b 115 131 47 42 83 89 l 274 336 l 108 550 b 8 679 75 594 42 636 l 175 679 l 268 557 l 357 442 l 439 556 l 529 679 l 682 679 l 582 550 l 426 350 l 597 129 b 699 0 622 97 664 43 l 531 0 "},"y":{"ha":701,"x_min":0,"x_max":0,"o":"m 103 -337 b 7 -317 61 -337 26 -329 l 7 -211 b 94 -228 24 -221 58 -228 b 310 0 183 -228 239 -175 l 282 0 l 79 528 l 21 679 l 179 679 l 229 532 l 358 158 l 485 532 b 533 679 501 581 521 639 l 690 679 b 632 532 671 632 651 582 l 429 6 b 103 -337 328 -258 231 -337 "},"ý":{"ha":701,"x_min":0,"x_max":0,"o":"m 103 -337 b 7 -317 61 -337 26 -329 l 7 -211 b 94 -228 24 -221 58 -228 b 310 0 183 -228 239 -175 l 282 0 l 79 528 l 21 679 l 179 679 l 229 532 l 358 158 l 485 532 b 533 679 501 581 521 639 l 690 679 b 632 532 671 632 651 582 l 429 6 b 103 -337 328 -258 231 -337 m 446 1050 l 576 1050 l 386 804 l 319 804 "},"ŷ":{"ha":701,"x_min":0,"x_max":0,"o":"m 103 -337 b 7 -317 61 -337 26 -329 l 7 -211 b 94 -228 24 -221 58 -228 b 310 0 183 -228 239 -175 l 282 0 l 79 528 l 21 679 l 179 679 l 229 532 l 358 158 l 485 532 b 533 679 501 581 521 639 l 690 679 b 632 532 671 632 651 582 l 429 6 b 103 -337 328 -258 231 -337 m 308 1042 l 394 1042 l 576 804 l 461 804 l 351 956 l 242 804 l 126 804 "},"ÿ":{"ha":701,"x_min":0,"x_max":0,"o":"m 103 -337 b 7 -317 61 -337 26 -329 l 7 -211 b 94 -228 24 -221 58 -228 b 310 0 183 -228 239 -175 l 282 0 l 79 528 l 21 679 l 179 679 l 229 532 l 358 158 l 485 532 b 533 679 501 581 521 639 l 690 679 b 632 532 671 632 651 582 l 429 6 b 103 -337 328 -258 231 -337 m 172 999 l 301 999 l 301 850 l 172 850 m 399 999 l 528 999 l 528 850 l 399 850 "},"ỳ":{"ha":701,"x_min":0,"x_max":0,"o":"m 103 -337 b 7 -317 61 -337 26 -329 l 7 -211 b 94 -228 24 -221 58 -228 b 310 0 183 -228 239 -175 l 282 0 l 79 528 l 21 679 l 179 679 l 229 532 l 358 158 l 485 532 b 533 679 501 581 521 639 l 690 679 b 632 532 671 632 651 582 l 429 6 b 103 -337 328 -258 231 -337 m 258 1050 l 385 804 l 318 804 l 128 1050 "},"ỹ":{"ha":701,"x_min":0,"x_max":0,"o":"m 103 -337 b 7 -317 61 -337 26 -329 l 7 -211 b 94 -228 24 -221 58 -228 b 310 0 183 -228 239 -175 l 282 0 l 79 528 l 21 679 l 179 679 l 229 532 l 358 158 l 485 532 b 533 679 501 581 521 639 l 690 679 b 632 532 671 632 651 582 l 429 6 b 103 -337 328 -258 231 -337 m 128 804 b 254 1032 119 942 167 1032 b 451 900 368 1032 365 900 b 504 1032 492 900 513 942 l 569 1032 b 449 803 578 875 532 803 b 250 936 328 803 332 936 b 193 804 206 936 186 876 l 128 804 "},"z":{"ha":667,"x_min":0,"x_max":0,"o":"m 44 89 l 436 576 l 310 576 b 43 572 250 576 156 576 l 43 679 l 615 679 l 615 603 l 213 103 l 389 103 b 624 108 463 103 538 104 l 624 0 l 44 0 "},"ź":{"ha":667,"x_min":0,"x_max":0,"o":"m 44 89 l 436 576 l 310 576 b 43 572 250 576 156 576 l 43 679 l 615 679 l 615 603 l 213 103 l 389 103 b 624 108 463 103 538 104 l 624 0 l 44 0 m 424 1050 l 554 1050 l 364 804 l 297 804 "},"ž":{"ha":667,"x_min":0,"x_max":0,"o":"m 44 89 l 436 576 l 310 576 b 43 572 250 576 156 576 l 43 679 l 615 679 l 615 603 l 213 103 l 389 103 b 624 108 463 103 538 104 l 624 0 l 44 0 m 218 1042 l 328 890 l 438 1042 l 553 1042 l 371 804 l 285 804 l 103 1042 "},"ż":{"ha":667,"x_min":0,"x_max":0,"o":"m 44 89 l 436 576 l 310 576 b 43 572 250 576 156 576 l 43 679 l 615 679 l 615 603 l 213 103 l 389 103 b 624 108 463 103 538 104 l 624 0 l 44 0 m 261 997 l 396 997 l 396 849 l 261 849 "},"ﬁ":{"ha":849,"x_min":0,"x_max":0,"o":"m 163 186 l 163 579 l 18 579 l 18 679 l 163 679 l 163 751 b 456 1096 163 1000 289 1096 b 746 839 631 1096 728 981 l 617 839 b 460 993 603 925 557 993 b 304 786 371 993 304 944 l 304 679 l 754 679 l 754 186 l 754 0 l 613 0 l 613 186 l 613 579 l 304 579 l 304 186 l 304 0 l 163 0 "},"ﬂ":{"ha":863,"x_min":0,"x_max":0,"o":"m 621 186 l 621 579 l 307 579 l 307 186 l 307 0 l 165 0 l 165 186 l 165 579 l 18 579 l 18 679 l 165 679 l 165 794 b 433 1096 165 1006 281 1096 b 647 993 528 1096 597 1060 l 739 1093 l 763 1093 l 763 881 l 763 186 l 763 0 l 621 0 m 621 679 l 621 889 b 450 1000 588 956 532 1000 b 307 815 360 1000 307 949 l 307 679 "},"ª":{"ha":610,"x_min":0,"x_max":0,"o":"m 207 618 b 69 729 126 618 69 656 b 251 868 69 807 132 838 b 382 944 335 889 382 903 b 297 997 382 979 350 997 b 181 907 232 997 182 967 l 83 907 b 301 1075 88 1010 168 1075 b 483 926 408 1075 483 1035 l 483 765 b 528 681 483 700 501 681 b 554 686 539 681 549 683 l 554 636 b 490 622 540 629 522 622 b 383 721 447 622 393 649 b 207 618 351 664 296 618 m 78 549 l 542 549 l 542 479 l 78 479 m 168 740 b 243 690 168 703 203 690 b 382 863 322 690 382 769 l 382 872 b 279 815 367 844 331 831 b 168 740 207 794 168 783 "},"º":{"ha":589,"x_min":0,"x_max":0,"o":"m 294 611 b 56 843 147 611 56 700 b 294 1075 56 986 147 1075 b 533 843 442 1075 533 986 b 294 611 533 700 442 611 m 81 549 l 508 549 l 508 479 l 81 479 m 156 843 b 294 697 156 753 210 697 b 433 843 379 697 433 753 b 294 989 433 933 379 989 b 156 843 210 989 156 933 "},"Δ":{"ha":878,"x_min":0,"x_max":0,"o":"m 10 103 l 360 1051 l 510 1051 l 868 103 l 868 0 l 10 0 m 725 111 l 440 918 l 153 111 "},"Ω":{"ha":1181,"x_min":0,"x_max":0,"o":"m 68 111 l 393 111 l 393 143 b 40 599 175 206 40 371 b 590 1072 40 878 261 1072 b 1140 599 921 1072 1140 878 b 788 143 1140 369 1004 206 l 788 111 l 1113 111 l 1113 0 l 671 0 l 671 189 b 986 578 861 236 986 363 b 590 957 986 804 824 957 b 194 578 357 957 194 804 b 510 189 194 363 321 236 l 510 0 l 68 0 "},"μ":{"ha":842,"x_min":0,"x_max":0,"o":"m 128 -279 b 94 -3 94 -185 94 -93 l 94 493 l 94 679 l 235 679 l 235 493 l 235 267 b 376 86 235 140 285 86 b 575 306 489 86 557 188 l 575 493 l 575 679 l 715 679 l 715 493 l 715 214 b 788 78 715 104 744 78 b 832 90 801 78 819 81 l 832 14 b 729 -8 811 3 774 -8 b 579 178 646 -8 579 47 l 579 182 b 344 -21 544 75 463 -21 b 210 38 285 -21 242 0 l 210 -36 b 238 -279 210 -124 215 -193 l 128 -279 "},"π":{"ha":932,"x_min":0,"x_max":0,"o":"m 740 -10 b 563 208 646 -10 563 36 l 563 579 l 328 579 l 315 0 l 179 0 l 192 579 l 3 579 l 3 679 l 882 679 l 882 579 l 699 579 l 699 228 b 789 89 699 119 742 89 b 896 150 833 89 871 114 l 919 75 b 740 -10 888 36 831 -10 "},"⓿":{"ha":1290,"x_min":0,"x_max":0,"o":"m 646 -14 b 1217 535 986 -14 1217 207 b 646 1082 1217 861 986 1082 b 74 535 306 1082 74 861 b 646 -14 74 207 306 -14 m 356 540 b 646 863 356 739 463 863 b 936 540 829 863 936 739 b 646 219 936 343 829 219 b 356 540 463 219 356 343 m 465 540 b 646 307 465 390 532 307 b 826 540 760 307 826 390 b 646 775 826 692 760 775 b 465 540 532 775 465 692 "},"❶":{"ha":1290,"x_min":0,"x_max":0,"o":"m 646 -14 b 1217 535 986 -14 1217 207 b 646 1082 1217 861 986 1082 b 74 535 306 1082 74 861 b 646 -14 74 207 306 -14 m 436 672 b 636 851 536 672 625 747 l 714 851 l 714 419 l 714 233 l 603 233 l 603 419 l 603 660 b 436 582 574 613 510 582 "},"❷":{"ha":1290,"x_min":0,"x_max":0,"o":"m 646 -14 b 1217 535 986 -14 1217 207 b 646 1082 1217 861 986 1082 b 74 535 306 1082 74 861 b 646 -14 74 207 306 -14 m 389 617 b 661 861 394 746 482 861 b 886 685 793 861 886 800 b 697 474 886 581 806 528 b 518 321 603 424 528 383 l 904 321 l 904 233 l 393 233 l 393 249 b 610 528 393 393 500 471 b 775 681 722 586 775 621 b 656 778 775 744 728 778 b 497 617 551 778 497 707 l 389 617 "},"❸":{"ha":1290,"x_min":0,"x_max":0,"o":"m 646 -14 b 1217 535 986 -14 1217 207 b 646 1082 1217 861 986 1082 b 74 535 306 1082 74 861 b 646 -14 74 207 306 -14 m 485 435 b 644 294 493 342 556 294 b 793 408 746 294 793 349 b 635 515 793 478 746 515 l 578 515 l 578 588 l 635 588 b 775 685 729 588 775 632 b 647 775 775 732 743 775 b 488 658 563 775 500 736 l 381 658 b 658 856 397 781 500 856 b 889 697 803 856 889 793 b 739 556 889 625 831 572 b 910 399 835 544 910 500 b 647 214 910 292 804 214 b 378 435 490 214 392 294 "},"❹":{"ha":1290,"x_min":0,"x_max":0,"o":"m 646 -14 b 1217 535 986 -14 1217 207 b 646 1082 1217 861 986 1082 b 74 535 306 1082 74 861 b 646 -14 74 207 306 -14 m 317 443 l 682 857 l 783 857 l 783 453 l 894 453 l 894 371 l 783 371 l 783 364 l 783 247 l 783 239 l 672 239 l 672 247 l 672 364 l 672 371 l 317 371 m 672 453 l 672 733 l 429 453 "},"❺":{"ha":1290,"x_min":0,"x_max":0,"o":"m 646 -14 b 1217 535 986 -14 1217 207 b 646 1082 1217 861 986 1082 b 74 535 306 1082 74 861 b 646 -14 74 207 306 -14 m 476 435 b 647 299 486 344 550 299 b 797 439 751 299 797 363 b 657 578 797 532 738 578 b 496 500 589 578 533 554 l 407 532 l 460 846 l 882 846 l 882 763 l 533 763 l 501 571 b 693 650 547 625 618 650 b 910 435 819 650 910 574 b 650 218 910 308 814 218 b 375 435 494 218 389 299 "},"❻":{"ha":1290,"x_min":0,"x_max":0,"o":"m 646 -14 b 1217 535 986 -14 1217 207 b 646 1082 1217 861 986 1082 b 74 535 306 1082 74 861 b 646 -14 74 207 306 -14 m 374 531 b 660 858 374 717 472 858 b 907 661 794 858 890 783 l 807 661 b 661 785 800 738 743 785 b 479 546 542 785 483 688 b 483 489 479 526 481 507 b 699 631 508 575 596 631 b 907 429 817 631 907 553 b 650 217 907 303 808 217 b 374 531 467 217 374 346 m 494 413 b 649 290 517 335 567 290 b 797 428 733 290 797 340 b 658 563 797 515 735 563 b 494 413 578 563 504 504 "},"❼":{"ha":1290,"x_min":0,"x_max":0,"o":"m 646 -14 b 1217 535 986 -14 1217 207 b 646 1082 1217 861 986 1082 b 74 535 306 1082 74 861 b 646 -14 74 207 306 -14 m 404 822 l 903 822 l 904 764 l 565 208 l 449 208 l 782 732 l 404 732 "},"❽":{"ha":1290,"x_min":0,"x_max":0,"o":"m 646 -14 b 1217 535 986 -14 1217 207 b 646 1082 1217 861 986 1082 b 74 535 306 1082 74 861 b 646 -14 74 207 306 -14 m 365 385 b 539 547 365 472 440 535 b 389 688 440 563 389 614 b 644 843 389 782 479 843 b 901 688 811 843 901 782 b 753 547 901 614 851 563 b 926 385 850 535 926 474 b 646 203 926 268 828 203 b 365 385 464 203 365 268 m 476 393 b 646 276 476 315 536 276 b 815 393 756 276 815 315 b 646 508 815 465 749 508 b 476 393 543 508 476 465 m 494 679 b 646 579 494 619 550 579 b 796 679 742 579 796 619 b 646 771 796 735 739 771 b 494 679 553 771 494 735 "},"❾":{"ha":1290,"x_min":0,"x_max":0,"o":"m 646 -14 b 1217 535 986 -14 1217 207 b 646 1082 1217 861 986 1082 b 74 535 306 1082 74 861 b 646 -14 74 207 306 -14 m 483 407 b 629 283 490 331 547 283 b 811 522 749 283 807 381 b 807 579 811 542 810 561 b 592 438 782 493 694 438 b 383 639 474 438 383 515 b 640 851 383 765 482 851 b 917 538 824 851 917 722 b 631 210 917 351 818 210 b 383 407 496 210 400 285 m 493 640 b 632 506 493 553 556 506 b 796 656 713 506 786 564 b 642 778 774 733 724 778 b 493 640 557 778 493 728 "},"⓪":{"ha":1290,"x_min":0,"x_max":0,"o":"m 646 -26 b 61 535 297 -26 61 200 b 646 1094 61 868 297 1094 b 1229 535 994 1094 1229 868 b 646 -26 1229 200 994 -26 m 142 535 b 646 49 142 246 346 49 b 1149 535 946 49 1149 246 b 646 1019 1149 824 946 1019 b 142 535 346 1019 142 824 m 356 536 b 646 858 356 735 463 858 b 936 536 829 858 936 735 b 646 215 936 339 829 215 b 356 536 463 215 356 339 m 465 536 b 646 303 465 386 532 303 b 826 536 760 303 826 386 b 646 771 826 688 760 771 b 465 536 532 771 465 688 "},"①":{"ha":1290,"x_min":0,"x_max":0,"o":"m 646 -26 b 61 535 297 -26 61 200 b 646 1094 61 868 297 1094 b 1229 535 994 1094 1229 868 b 646 -26 1229 200 994 -26 m 142 535 b 646 49 142 246 346 49 b 1149 535 946 49 1149 246 b 646 1019 1149 824 946 1019 b 142 535 346 1019 142 824 m 439 668 b 639 847 539 668 628 743 l 717 847 l 717 415 l 717 229 l 606 229 l 606 415 l 606 656 b 439 578 576 608 513 578 "},"②":{"ha":1290,"x_min":0,"x_max":0,"o":"m 646 -26 b 61 535 297 -26 61 200 b 646 1094 61 868 297 1094 b 1229 535 994 1094 1229 868 b 646 -26 1229 200 994 -26 m 142 535 b 646 49 142 246 346 49 b 1149 535 946 49 1149 246 b 646 1019 1149 824 946 1019 b 142 535 346 1019 142 824 m 386 618 b 658 863 392 747 479 863 b 883 686 790 863 883 801 b 694 475 883 582 803 529 b 515 322 600 425 525 385 l 901 322 l 901 235 l 390 235 l 390 250 b 607 529 390 394 497 472 b 772 682 719 588 772 622 b 653 779 772 746 725 779 b 494 618 549 779 494 708 l 386 618 "},"③":{"ha":1290,"x_min":0,"x_max":0,"o":"m 646 -26 b 61 535 297 -26 61 200 b 646 1094 61 868 297 1094 b 1229 535 994 1094 1229 868 b 646 -26 1229 200 994 -26 m 142 535 b 646 49 142 246 346 49 b 1149 535 946 49 1149 246 b 646 1019 1149 824 946 1019 b 142 535 346 1019 142 824 m 485 438 b 644 297 493 344 556 297 b 793 411 746 297 793 351 b 635 518 793 481 746 518 l 578 518 l 578 590 l 635 590 b 775 688 729 590 775 635 b 647 778 775 735 743 778 b 488 661 563 778 500 739 l 381 661 b 658 858 397 783 500 858 b 889 700 803 858 889 796 b 739 558 889 628 831 575 b 910 401 835 547 910 503 b 647 217 910 294 804 217 b 378 438 490 217 392 297 "},"④":{"ha":1290,"x_min":0,"x_max":0,"o":"m 646 -26 b 61 535 297 -26 61 200 b 646 1094 61 868 297 1094 b 1229 535 994 1094 1229 868 b 646 -26 1229 200 994 -26 m 142 535 b 646 49 142 246 346 49 b 1149 535 946 49 1149 246 b 646 1019 1149 824 946 1019 b 142 535 346 1019 142 824 m 333 432 l 699 846 l 800 846 l 800 442 l 911 442 l 911 360 l 800 360 l 800 353 l 800 236 l 800 228 l 689 228 l 689 236 l 689 353 l 689 360 l 333 360 m 689 442 l 689 722 l 446 442 "},"⑤":{"ha":1290,"x_min":0,"x_max":0,"o":"m 646 -26 b 61 535 297 -26 61 200 b 646 1094 61 868 297 1094 b 1229 535 994 1094 1229 868 b 646 -26 1229 200 994 -26 m 142 535 b 646 49 142 246 346 49 b 1149 535 946 49 1149 246 b 646 1019 1149 824 946 1019 b 142 535 346 1019 142 824 m 472 433 b 643 297 482 343 546 297 b 793 438 747 297 793 361 b 653 576 793 531 733 576 b 492 499 585 576 529 553 l 403 531 l 456 844 l 878 844 l 878 761 l 529 761 l 497 569 b 689 649 543 624 614 649 b 906 433 815 649 906 572 b 646 217 906 307 810 217 b 371 433 490 217 385 297 "},"⑥":{"ha":1290,"x_min":0,"x_max":0,"o":"m 646 -26 b 61 535 297 -26 61 200 b 646 1094 61 868 297 1094 b 1229 535 994 1094 1229 868 b 646 -26 1229 200 994 -26 m 142 535 b 646 49 142 246 346 49 b 1149 535 946 49 1149 246 b 646 1019 1149 824 946 1019 b 142 535 346 1019 142 824 m 371 532 b 657 860 371 718 469 860 b 904 663 792 860 888 785 l 804 663 b 658 786 797 739 740 786 b 476 547 539 786 481 689 b 481 490 476 528 478 508 b 696 632 506 576 593 632 b 904 431 814 632 904 554 b 647 218 904 304 806 218 b 371 532 464 218 371 347 m 492 414 b 646 292 514 336 564 292 b 794 429 731 292 794 342 b 656 564 794 517 732 564 b 492 414 575 564 501 506 "},"⑦":{"ha":1290,"x_min":0,"x_max":0,"o":"m 646 -26 b 61 535 297 -26 61 200 b 646 1094 61 868 297 1094 b 1229 535 994 1094 1229 868 b 646 -26 1229 200 994 -26 m 142 535 b 646 49 142 246 346 49 b 1149 535 946 49 1149 246 b 646 1019 1149 824 946 1019 b 142 535 346 1019 142 824 m 404 822 l 903 822 l 904 764 l 565 208 l 449 208 l 782 732 l 404 732 "},"⑧":{"ha":1290,"x_min":0,"x_max":0,"o":"m 646 -26 b 61 535 297 -26 61 200 b 646 1094 61 868 297 1094 b 1229 535 994 1094 1229 868 b 646 -26 1229 200 994 -26 m 142 535 b 646 49 142 246 346 49 b 1149 535 946 49 1149 246 b 646 1019 1149 824 946 1019 b 142 535 346 1019 142 824 m 365 401 b 539 564 365 489 440 551 b 389 704 440 579 389 631 b 644 860 389 799 479 860 b 901 704 811 860 901 799 b 753 564 901 631 851 579 b 926 401 850 551 926 490 b 646 219 926 285 828 219 b 365 401 464 219 365 285 m 476 410 b 646 293 476 332 536 293 b 815 410 756 293 815 332 b 646 525 815 482 749 525 b 476 410 543 525 476 482 m 494 696 b 646 596 494 636 550 596 b 796 696 742 596 796 636 b 646 788 796 751 739 788 b 494 696 553 788 494 751 "},"⑨":{"ha":1290,"x_min":0,"x_max":0,"o":"m 646 -26 b 61 535 297 -26 61 200 b 646 1094 61 868 297 1094 b 1229 535 994 1094 1229 868 b 646 -26 1229 200 994 -26 m 142 535 b 646 49 142 246 346 49 b 1149 535 946 49 1149 246 b 646 1019 1149 824 946 1019 b 142 535 346 1019 142 824 m 479 411 b 625 288 486 335 543 288 b 807 526 744 288 803 385 b 803 583 807 546 806 565 b 588 442 778 497 690 442 b 379 643 469 442 379 519 b 636 856 379 769 478 856 b 913 542 819 856 913 726 b 626 214 913 356 814 214 b 379 411 492 214 396 289 m 489 644 b 628 510 489 557 551 510 b 792 660 708 510 782 568 b 638 782 769 738 719 782 b 489 644 553 782 489 732 "},"⁄":{"ha":289,"x_min":0,"x_max":0,"o":"m 492 1051 l 622 1051 l -203 0 l -333 0 "},"½":{"ha":1300,"x_min":0,"x_max":0,"o":"m 175 629 l 175 869 b 8 792 146 822 82 792 l 8 882 b 208 1061 108 882 197 957 l 286 1061 l 286 629 l 286 443 l 175 443 m 904 1051 l 1035 1051 l 210 0 l 79 0 m 746 383 b 1018 628 751 513 839 628 b 1243 451 1150 628 1243 567 b 1054 240 1243 347 1163 294 b 875 88 960 190 885 150 l 1261 88 l 1261 0 l 750 0 l 750 15 b 967 294 750 160 857 238 b 1132 447 1079 353 1132 388 b 1013 544 1132 511 1085 544 b 854 383 908 544 854 474 l 746 383 "},"¼":{"ha":1219,"x_min":0,"x_max":0,"o":"m 175 629 l 175 869 b 8 792 146 822 82 792 l 8 882 b 208 1061 108 882 197 957 l 286 1061 l 286 629 l 286 443 l 175 443 m 904 1051 l 1035 1051 l 210 0 l 79 0 m 617 200 l 982 614 l 1083 614 l 1083 210 l 1194 210 l 1194 128 l 1083 128 l 1083 121 l 1083 4 l 1083 -4 l 972 -4 l 972 4 l 972 121 l 972 128 l 617 128 m 972 210 l 972 490 l 729 210 "},"¾":{"ha":1408,"x_min":0,"x_max":0,"o":"m 308 429 b 39 650 151 429 53 510 l 146 650 b 306 510 154 557 217 510 b 454 624 407 510 454 564 b 296 731 454 693 407 731 l 239 731 l 239 803 l 296 803 b 436 900 390 803 436 847 b 308 990 436 947 404 990 b 149 874 224 990 161 951 l 42 874 b 319 1071 58 996 161 1071 b 550 913 464 1071 550 1008 b 400 771 550 840 492 788 b 571 614 496 760 571 715 b 308 429 571 507 465 429 m 1093 1051 l 1224 1051 l 399 0 l 268 0 m 806 200 l 1171 614 l 1272 614 l 1272 210 l 1383 210 l 1383 128 l 1272 128 l 1272 121 l 1272 4 l 1272 -4 l 1161 -4 l 1161 4 l 1161 121 l 1161 128 l 806 128 m 1161 210 l 1161 490 l 918 210 "},"⅛":{"ha":1354,"x_min":0,"x_max":0,"o":"m 175 629 l 175 869 b 8 792 146 822 82 792 l 8 882 b 208 1061 108 882 197 957 l 286 1061 l 286 629 l 286 443 l 175 443 m 904 1051 l 1035 1051 l 210 0 l 79 0 m 747 168 b 921 331 747 256 822 318 b 771 471 822 346 771 397 b 1026 626 771 565 861 626 b 1283 471 1193 626 1283 565 b 1135 331 1283 397 1233 346 b 1308 168 1232 318 1308 257 b 1028 -14 1308 51 1210 -14 b 747 168 846 -14 747 51 m 858 176 b 1028 60 858 99 918 60 b 1197 176 1138 60 1197 99 b 1028 292 1197 249 1131 292 b 858 176 925 292 858 249 m 876 463 b 1028 363 876 403 932 363 b 1178 463 1124 363 1178 403 b 1028 554 1178 518 1121 554 b 876 463 935 554 876 518 "},"⅜":{"ha":1543,"x_min":0,"x_max":0,"o":"m 308 429 b 39 650 151 429 53 510 l 146 650 b 306 510 154 557 217 510 b 454 624 407 510 454 564 b 296 731 454 693 407 731 l 239 731 l 239 803 l 296 803 b 436 900 390 803 436 847 b 308 990 436 947 404 990 b 149 874 224 990 161 951 l 42 874 b 319 1071 58 996 161 1071 b 550 913 464 1071 550 1008 b 400 771 550 840 492 788 b 571 614 496 760 571 715 b 308 429 571 507 465 429 m 1093 1051 l 1224 1051 l 399 0 l 268 0 m 936 168 b 1110 331 936 256 1011 318 b 960 471 1011 346 960 397 b 1215 626 960 565 1050 626 b 1472 471 1382 626 1472 565 b 1324 331 1472 397 1422 346 b 1497 168 1421 318 1497 257 b 1217 -14 1497 51 1399 -14 b 936 168 1035 -14 936 51 m 1047 176 b 1217 60 1047 99 1107 60 b 1386 176 1326 60 1386 99 b 1217 292 1386 249 1319 292 b 1047 176 1114 292 1047 249 m 1065 463 b 1217 363 1065 403 1121 363 b 1367 463 1313 363 1367 403 b 1217 554 1367 518 1310 554 b 1065 463 1124 554 1065 518 "},"⅝":{"ha":1556,"x_min":0,"x_max":0,"o":"m 313 431 b 38 647 157 431 51 511 l 139 647 b 310 511 149 557 213 511 b 460 651 414 511 460 575 b 319 790 460 744 400 790 b 158 713 251 790 196 767 l 69 744 l 122 1058 l 544 1058 l 544 975 l 196 975 l 164 783 b 356 863 210 838 281 863 b 572 647 482 863 572 786 b 313 431 572 521 476 431 m 1106 1051 l 1236 1051 l 411 0 l 281 0 m 949 168 b 1122 331 949 256 1024 318 b 972 471 1024 346 972 397 b 1228 626 972 565 1063 626 b 1485 471 1394 626 1485 565 b 1336 331 1485 397 1435 346 b 1510 168 1433 318 1510 257 b 1229 -14 1510 51 1411 -14 b 949 168 1047 -14 949 51 m 1060 176 b 1229 60 1060 99 1119 60 b 1399 176 1339 60 1399 99 b 1229 292 1399 249 1332 292 b 1060 176 1126 292 1060 249 m 1078 463 b 1229 363 1078 403 1133 363 b 1379 463 1325 363 1379 403 b 1229 554 1379 518 1322 554 b 1078 463 1136 554 1078 518 "},"⅞":{"ha":1378,"x_min":0,"x_max":0,"o":"m 392 968 l 14 968 l 14 1058 l 513 1058 l 514 1000 l 175 444 l 58 444 m 928 1051 l 1058 1051 l 233 0 l 103 0 m 771 168 b 944 331 771 256 846 318 b 794 471 846 346 794 397 b 1050 626 794 565 885 626 b 1307 471 1217 626 1307 565 b 1158 331 1307 397 1257 346 b 1332 168 1256 318 1332 257 b 1051 -14 1332 51 1233 -14 b 771 168 869 -14 771 51 m 882 176 b 1051 60 882 99 942 60 b 1221 176 1161 60 1221 99 b 1051 292 1221 249 1154 292 b 882 176 949 292 882 249 m 900 463 b 1051 363 900 403 956 363 b 1201 463 1147 363 1201 403 b 1051 554 1201 518 1144 554 b 900 463 958 554 900 518 "},"₀":{"ha":672,"x_min":0,"x_max":0,"o":"m 336 -154 b 46 167 153 -154 46 -31 b 336 489 46 365 153 489 b 626 167 519 489 626 365 b 336 -154 626 -31 519 -154 m 156 167 b 336 -67 156 17 222 -67 b 517 167 450 -67 517 17 b 336 401 517 318 450 401 b 156 167 222 401 156 318 "},"₁":{"ha":413,"x_min":0,"x_max":0,"o":"m 175 47 l 175 288 b 8 210 146 240 82 210 l 8 300 b 208 479 108 300 197 375 l 286 479 l 286 47 l 286 -139 l 175 -139 "},"₂":{"ha":599,"x_min":0,"x_max":0,"o":"m 49 -124 b 265 156 49 21 156 99 b 431 308 378 214 431 249 b 311 406 431 372 383 406 b 153 244 207 406 153 335 l 44 244 b 317 489 50 374 138 489 b 542 313 449 489 542 428 b 353 101 542 208 461 156 b 174 -51 258 51 183 11 l 560 -51 l 560 -139 l 49 -139 l 49 -124 "},"₃":{"ha":601,"x_min":0,"x_max":0,"o":"m 308 -153 b 39 68 151 -153 53 -72 l 146 68 b 306 -72 154 -25 217 -72 b 454 42 407 -72 454 -18 b 296 149 454 111 407 149 l 239 149 l 239 221 l 296 221 b 436 318 390 221 436 265 b 308 408 436 365 404 408 b 149 292 224 408 161 369 l 42 292 b 319 489 58 414 161 489 b 550 331 464 489 550 426 b 400 189 550 258 492 206 b 571 32 496 178 571 133 b 308 -153 571 -75 465 -153 "},"₄":{"ha":601,"x_min":0,"x_max":0,"o":"m 354 -18 l 354 -11 l -1 -11 l -1 61 l 364 475 l 465 475 l 465 71 l 576 71 l 576 -11 l 465 -11 l 465 -18 l 465 -135 l 465 -143 l 354 -143 l 354 -135 m 354 71 l 354 351 l 111 71 "},"₅":{"ha":614,"x_min":0,"x_max":0,"o":"m 313 -153 b 38 64 157 -153 51 -72 l 139 64 b 310 -72 149 -26 213 -72 b 460 68 414 -72 460 -8 b 319 207 460 161 400 207 b 158 129 251 207 196 183 l 69 161 l 122 475 l 544 475 l 544 392 l 196 392 l 164 200 b 356 279 210 254 281 279 b 572 64 482 279 572 203 b 313 -153 572 -62 476 -153 "},"₆":{"ha":632,"x_min":0,"x_max":0,"o":"m 325 -153 b 49 161 142 -153 49 -24 b 335 489 49 347 147 489 b 582 292 469 489 565 414 l 482 292 b 336 415 475 368 418 415 b 154 176 217 415 158 318 b 158 119 154 157 156 138 b 374 261 183 206 271 261 b 582 60 492 261 582 183 b 325 -153 582 -67 483 -153 m 169 43 b 324 -79 192 -35 242 -79 b 472 58 408 -79 472 -29 b 333 193 472 146 410 193 b 169 43 253 193 179 135 "},"₇":{"ha":519,"x_min":0,"x_max":0,"o":"m 392 385 l 14 385 l 14 475 l 513 475 l 514 417 l 175 -139 l 58 -139 "},"₈":{"ha":653,"x_min":0,"x_max":0,"o":"m 326 -153 b 46 29 144 -153 46 -87 b 219 192 46 117 121 179 b 69 332 121 207 69 258 b 325 488 69 426 160 488 b 582 332 492 488 582 426 b 433 192 582 258 532 207 b 607 29 531 179 607 118 b 326 -153 607 -87 508 -153 m 157 38 b 326 -79 157 -40 217 -79 b 496 38 436 -79 496 -40 b 326 153 496 110 429 153 b 157 38 224 153 157 110 m 175 324 b 326 224 175 264 231 224 b 476 324 422 224 476 264 b 326 415 476 379 419 415 b 175 324 233 415 175 379 "},"₉":{"ha":632,"x_min":0,"x_max":0,"o":"m 307 489 b 583 175 490 489 583 360 b 297 -153 583 -11 485 -153 b 50 44 163 -153 67 -78 l 150 44 b 296 -79 157 -32 214 -79 b 478 160 415 -79 474 18 b 474 217 478 179 476 199 b 258 75 449 131 361 75 b 50 276 140 75 50 153 b 307 489 50 403 149 489 m 160 278 b 299 143 160 190 222 143 b 463 293 379 143 453 201 b 308 415 440 371 390 415 b 160 278 224 415 160 365 "},"⁰":{"ha":672,"x_min":0,"x_max":0,"o":"m 336 610 b 46 931 153 610 46 733 b 336 1253 46 1129 153 1253 b 626 931 519 1253 626 1129 b 336 610 626 733 519 610 m 156 931 b 336 697 156 781 222 697 b 517 931 450 697 517 781 b 336 1165 517 1082 450 1165 b 156 931 222 1165 156 1082 "},"¹":{"ha":413,"x_min":0,"x_max":0,"o":"m 175 811 l 175 1051 b 8 974 146 1004 82 974 l 8 1064 b 208 1243 108 1064 197 1139 l 286 1243 l 286 811 l 286 625 l 175 625 "},"²":{"ha":599,"x_min":0,"x_max":0,"o":"m 49 640 b 265 919 49 785 156 863 b 431 1072 378 978 431 1013 b 311 1169 431 1136 383 1169 b 153 1008 207 1169 153 1099 l 44 1008 b 317 1253 50 1138 138 1253 b 542 1076 449 1253 542 1192 b 353 865 542 972 461 919 b 174 713 258 815 183 775 l 560 713 l 560 625 l 49 625 l 49 640 "},"³":{"ha":601,"x_min":0,"x_max":0,"o":"m 308 611 b 39 832 151 611 53 692 l 146 832 b 306 692 154 739 217 692 b 454 806 407 692 454 746 b 296 913 454 875 407 913 l 239 913 l 239 985 l 296 985 b 436 1082 390 985 436 1029 b 308 1172 436 1129 404 1172 b 149 1056 224 1172 161 1133 l 42 1056 b 319 1253 58 1178 161 1253 b 550 1094 464 1253 550 1190 b 400 953 550 1022 492 969 b 571 796 496 942 571 897 b 308 611 571 689 465 611 "},"⁴":{"ha":601,"x_min":0,"x_max":0,"o":"m 354 746 l 354 753 l -1 753 l -1 825 l 364 1239 l 465 1239 l 465 835 l 576 835 l 576 753 l 465 753 l 465 746 l 465 629 l 465 621 l 354 621 l 354 629 m 354 835 l 354 1115 l 111 835 "},"⁵":{"ha":614,"x_min":0,"x_max":0,"o":"m 313 611 b 38 828 157 611 51 692 l 139 828 b 310 692 149 738 213 692 b 460 832 414 692 460 756 b 319 971 460 925 400 971 b 158 893 251 971 196 947 l 69 925 l 122 1239 l 544 1239 l 544 1156 l 196 1156 l 164 964 b 356 1043 210 1018 281 1043 b 572 828 482 1043 572 967 b 313 611 572 701 476 611 "},"⁶":{"ha":632,"x_min":0,"x_max":0,"o":"m 325 611 b 49 925 142 611 49 740 b 335 1253 49 1111 147 1253 b 582 1056 469 1253 565 1178 l 482 1056 b 336 1179 475 1132 418 1179 b 154 940 217 1179 158 1082 b 158 883 154 921 156 901 b 374 1025 183 969 271 1025 b 582 824 492 1025 582 947 b 325 611 582 697 483 611 m 169 807 b 324 685 192 729 242 685 b 472 822 408 685 472 735 b 333 957 472 910 410 957 b 169 807 253 957 179 899 "},"⁷":{"ha":519,"x_min":0,"x_max":0,"o":"m 392 1149 l 14 1149 l 14 1239 l 513 1239 l 514 1181 l 175 625 l 58 625 "},"⁸":{"ha":653,"x_min":0,"x_max":0,"o":"m 326 611 b 46 793 144 611 46 676 b 219 956 46 881 121 943 b 69 1096 121 971 69 1022 b 325 1251 69 1190 160 1251 b 582 1096 492 1251 582 1190 b 433 956 582 1022 532 971 b 607 793 531 943 607 882 b 326 611 607 676 508 611 m 157 801 b 326 685 157 724 217 685 b 496 801 436 685 496 724 b 326 917 496 874 429 917 b 157 801 224 917 157 874 m 175 1088 b 326 988 175 1028 231 988 b 476 1088 422 988 476 1028 b 326 1179 476 1143 419 1179 b 175 1088 233 1179 175 1143 "},"⁹":{"ha":632,"x_min":0,"x_max":0,"o":"m 307 1253 b 583 939 490 1253 583 1124 b 297 611 583 753 485 611 b 50 808 163 611 67 686 l 150 808 b 296 685 157 732 214 685 b 478 924 415 685 474 782 b 474 981 478 943 476 963 b 258 839 449 894 361 839 b 50 1040 140 839 50 917 b 307 1253 50 1167 149 1253 m 160 1042 b 299 907 160 954 222 907 b 463 1057 379 907 453 965 b 308 1179 440 1135 390 1179 b 160 1042 224 1179 160 1129 "},".":{"ha":293,"x_min":0,"x_max":0,"o":"m 75 161 l 218 161 l 218 0 l 75 0 "},",":{"ha":293,"x_min":0,"x_max":0,"o":"m 33 -125 b 144 1 107 -112 140 -75 l 75 1 l 75 161 l 218 161 l 218 22 b 33 -200 218 -112 154 -182 l 33 -125 "},":":{"ha":321,"x_min":0,"x_max":0,"o":"m 89 576 l 232 576 l 232 415 l 89 415 m 89 161 l 232 161 l 232 0 l 89 0 "},";":{"ha":321,"x_min":0,"x_max":0,"o":"m 89 576 l 232 576 l 232 415 l 89 415 m 47 -125 b 158 1 121 -112 154 -75 l 89 1 l 89 161 l 232 161 l 232 22 b 47 -200 232 -112 168 -182 "},"…":{"ha":926,"x_min":0,"x_max":0,"o":"m 700 161 l 843 161 l 843 0 l 700 0 m 83 161 l 226 161 l 226 0 l 83 0 m 392 161 l 535 161 l 535 0 l 392 0 "},"!":{"ha":413,"x_min":0,"x_max":0,"o":"m 129 1051 l 283 1051 l 265 303 l 149 303 m 135 161 l 278 161 l 278 0 l 135 0 "},"¡":{"ha":413,"x_min":0,"x_max":0,"o":"m 265 390 l 283 -358 l 129 -358 l 149 390 m 135 693 l 278 693 l 278 532 l 135 532 "},"?":{"ha":731,"x_min":0,"x_max":0,"o":"m 251 303 b 232 411 238 344 232 386 b 542 825 232 599 542 651 b 388 957 542 894 492 957 b 185 744 261 957 192 874 l 49 744 b 399 1068 61 956 206 1068 b 685 831 575 1068 685 972 b 360 399 685 586 360 567 b 376 303 360 379 364 340 l 251 303 m 257 161 l 401 161 l 401 0 l 257 0 "},"¿":{"ha":731,"x_min":0,"x_max":0,"o":"m 479 390 b 499 282 493 349 499 307 b 189 -132 499 94 189 42 b 343 -264 189 -201 239 -264 b 546 -51 469 -264 539 -181 l 682 -51 b 332 -375 669 -262 525 -375 b 46 -137 156 -375 46 -279 b 371 294 46 107 371 126 b 354 390 371 314 367 353 l 479 390 m 329 693 l 474 693 l 474 532 l 329 532 "},"·":{"ha":300,"x_min":0,"x_max":0,"o":"m 78 438 l 221 438 l 221 276 l 78 276 "},"•":{"ha":468,"x_min":0,"x_max":0,"o":"m 139 451 l 329 451 l 329 264 l 139 264 "},"*":{"ha":761,"x_min":0,"x_max":0,"o":"m 360 689 l 196 489 l 132 553 l 329 718 l 71 696 l 71 788 l 329 764 l 132 931 l 196 994 l 360 794 l 335 1051 l 426 1051 l 401 794 l 567 994 l 631 931 l 432 764 l 690 788 l 690 696 l 432 718 l 631 553 l 567 489 l 401 689 l 426 432 l 335 432 "},"‽":{"ha":771,"x_min":0,"x_max":0,"o":"m 304 161 l 447 161 l 447 0 l 304 0 m 49 743 b 414 1068 63 954 213 1068 b 725 826 608 1068 725 968 b 431 396 725 582 450 558 l 429 303 l 319 303 l 311 861 l 436 861 l 432 529 b 590 801 488 606 590 675 b 390 960 590 892 519 960 b 161 743 253 960 169 875 l 49 743 "},"#":{"ha":901,"x_min":0,"x_max":0,"o":"m 242 372 l 58 372 l 58 456 l 260 456 l 293 610 l 86 610 l 86 693 l 311 693 l 393 1067 l 488 1067 l 406 693 l 568 693 l 650 1067 l 744 1067 l 663 693 l 843 693 l 843 610 l 644 610 l 611 456 l 815 456 l 815 372 l 593 372 l 508 -15 l 414 -15 l 499 372 l 336 372 l 251 -15 l 157 -15 m 517 456 l 550 610 l 388 610 l 354 456 "},"/":{"ha":726,"x_min":0,"x_max":0,"o":"m 606 1189 l 725 1189 l 121 -165 l 1 -165 "},"\\":{"ha":724,"x_min":0,"x_max":0,"o":"m 604 -165 l 0 1189 l 119 1189 l 724 -165 "},"-":{"ha":651,"x_min":0,"x_max":0,"o":"m 590 401 l 590 318 l 61 318 l 61 401 "},"–":{"ha":1281,"x_min":0,"x_max":0,"o":"m 63 397 l 1218 397 l 1218 318 l 63 318 "},"—":{"ha":1738,"x_min":0,"x_max":0,"o":"m 63 397 l 1675 397 l 1675 318 l 63 318 "},"_":{"ha":979,"x_min":0,"x_max":0,"o":"m 0 -50 l 979 -50 l 979 -128 l 0 -128 "},"(":{"ha":614,"x_min":0,"x_max":0,"o":"m 544 -208 b 44 464 272 -147 44 100 b 544 1135 44 826 272 1074 l 544 1010 b 185 464 351 954 185 757 b 544 -83 185 171 351 -28 l 544 -208 "},")":{"ha":614,"x_min":0,"x_max":0,"o":"m 69 -83 b 429 464 263 -28 429 171 b 69 1010 429 757 263 954 l 69 1135 b 569 464 342 1074 569 826 b 69 -208 569 100 342 -147 l 69 -83 "},"{":{"ha":539,"x_min":0,"x_max":0,"o":"m 469 -208 b 174 142 232 -208 126 -94 b 24 414 221 378 133 414 l 24 510 b 174 786 133 510 221 547 b 469 1135 126 1019 232 1135 l 469 1026 b 307 776 296 1026 274 951 b 151 464 354 519 246 472 b 307 150 243 457 356 408 b 469 -99 274 -25 296 -99 l 469 -208 "},"}":{"ha":539,"x_min":0,"x_max":0,"o":"m 69 -99 b 232 150 243 -99 265 -25 b 388 464 183 408 296 457 b 232 776 293 472 185 519 b 69 1026 265 951 243 1026 l 69 1135 b 365 786 307 1135 413 1019 b 515 510 318 547 406 510 l 515 414 b 365 142 406 414 318 378 b 69 -208 413 -94 307 -208 l 69 -99 "},"[":{"ha":532,"x_min":0,"x_max":0,"o":"m 111 1135 l 463 1135 l 463 1021 l 253 1021 l 253 -75 l 463 -75 l 463 -189 l 111 -189 "},"]":{"ha":532,"x_min":0,"x_max":0,"o":"m 69 -189 l 69 -75 l 279 -75 l 279 1021 l 69 1021 l 69 1135 l 421 1135 l 421 -189 "},"【":{"ha":556,"x_min":0,"x_max":0,"o":"m 111 1135 l 486 1135 b 171 479 274 975 171 761 b 486 -190 171 194 274 -26 l 111 -190 "},"】":{"ha":556,"x_min":0,"x_max":0,"o":"m 444 -190 l 69 -190 b 385 465 282 -31 385 183 b 69 1135 385 750 282 971 l 444 1135 "},"〖":{"ha":651,"x_min":0,"x_max":0,"o":"m 111 1135 l 582 1135 b 275 479 375 975 275 761 b 582 -190 275 192 375 -32 l 111 -190 m 476 -151 b 228 479 307 7 228 215 b 475 1094 228 738 307 939 l 158 1094 l 158 -151 "},"〗":{"ha":651,"x_min":0,"x_max":0,"o":"m 69 -190 b 376 479 276 -32 376 192 b 69 1135 376 761 276 975 l 540 1135 l 540 -190 l 69 -190 m 493 -151 l 493 1094 l 176 1094 b 424 479 344 939 424 738 b 175 -151 424 215 344 7 "},"‚":{"ha":293,"x_min":0,"x_max":0,"o":"m 33 -125 b 144 1 107 -112 140 -75 l 75 1 l 75 161 l 218 161 l 218 22 b 33 -200 218 -112 154 -182 l 33 -125 "},"„":{"ha":526,"x_min":0,"x_max":0,"o":"m 267 -125 b 378 1 340 -112 374 -75 l 308 1 l 308 161 l 451 161 l 451 22 b 267 -200 451 -112 388 -182 l 267 -125 m 33 -125 b 144 1 107 -112 140 -75 l 75 1 l 75 161 l 218 161 l 218 22 b 33 -200 218 -112 154 -182 "},"“":{"ha":524,"x_min":0,"x_max":0,"o":"m 249 989 b 138 854 176 975 143 936 l 207 854 l 207 694 l 64 694 l 64 839 b 249 1064 64 978 128 1046 l 249 989 m 297 839 b 482 1064 297 978 361 1046 l 482 989 b 371 854 410 975 376 936 l 440 854 l 440 694 l 297 694 "},"”":{"ha":524,"x_min":0,"x_max":0,"o":"m 275 761 b 386 896 347 775 381 814 l 317 896 l 317 1056 l 460 1056 l 460 911 b 275 686 460 772 396 704 l 275 761 m 42 761 b 153 896 114 775 147 814 l 83 896 l 83 1056 l 226 1056 l 226 911 b 42 686 226 772 163 704 "},"‘":{"ha":290,"x_min":0,"x_max":0,"o":"m 249 989 b 138 854 176 975 143 936 l 207 854 l 207 694 l 64 694 l 64 839 b 249 1064 64 978 128 1046 l 249 989 "},"’":{"ha":290,"x_min":0,"x_max":0,"o":"m 42 761 b 153 896 114 775 147 814 l 83 896 l 83 1056 l 226 1056 l 226 911 b 42 686 226 772 163 704 l 42 761 "},"«":{"ha":710,"x_min":0,"x_max":0,"o":"m 54 310 l 54 367 l 376 626 l 376 510 l 164 339 l 164 338 l 376 167 l 376 50 m 313 367 l 635 626 l 635 510 l 422 339 l 422 338 l 635 167 l 635 50 l 313 310 "},"»":{"ha":710,"x_min":0,"x_max":0,"o":"m 333 167 l 546 338 l 546 339 l 333 510 l 333 626 l 656 367 l 656 310 l 333 50 m 75 167 l 288 338 l 288 339 l 75 510 l 75 626 l 397 367 l 397 310 l 75 50 "},"‹":{"ha":451,"x_min":0,"x_max":0,"o":"m 54 311 l 54 368 l 376 628 l 376 511 l 164 340 l 164 339 l 376 168 l 376 51 "},"›":{"ha":451,"x_min":0,"x_max":0,"o":"m 75 168 l 288 339 l 288 340 l 75 511 l 75 628 l 397 368 l 397 311 l 75 51 "},"\"":{"ha":482,"x_min":0,"x_max":0,"o":"m 64 1051 l 203 1051 l 175 674 l 92 674 m 418 1051 l 390 674 l 307 674 l 279 1051 "},"'":{"ha":267,"x_min":0,"x_max":0,"o":"m 64 1051 l 203 1051 l 175 674 l 92 674 "},"ƒ":{"ha":936,"x_min":0,"x_max":0,"o":"m 42 -119 b 333 207 253 -119 307 -1 l 371 500 l 42 500 l 42 564 l 379 564 l 401 740 b 708 1058 428 950 535 1058 b 894 981 806 1058 858 1024 l 842 893 b 714 951 814 928 781 951 b 528 740 603 951 546 878 l 504 564 l 879 564 l 879 500 l 496 500 l 457 197 b 42 -229 425 -51 326 -229 l 42 -119 "},"✳":{"ha":1072,"x_min":0,"x_max":0,"o":"m 151 231 l 471 500 l 56 464 l 56 589 l 471 553 l 151 822 l 240 910 l 510 588 l 474 1007 l 599 1007 l 563 588 l 832 910 l 921 822 l 601 553 l 1017 589 l 1017 464 l 601 500 l 921 231 l 832 143 l 563 465 l 599 46 l 474 46 l 510 465 l 240 143 "},"@":{"ha":1435,"x_min":0,"x_max":0,"o":"m 635 -228 b 65 324 278 -228 65 -25 b 825 1075 65 728 358 1075 b 1367 571 1172 1075 1367 872 b 997 79 1367 338 1235 79 b 807 263 872 79 810 153 b 542 79 746 156 657 79 b 353 304 411 79 353 179 b 713 771 353 506 503 771 b 890 614 818 771 875 704 l 932 753 l 1060 778 l 936 383 b 1026 147 883 215 928 147 b 1300 576 1197 147 1300 378 b 822 1017 1300 842 1133 1017 b 132 321 372 1017 132 672 b 639 -167 132 18 313 -167 b 1046 -37 779 -167 904 -132 l 1039 -106 b 635 -228 911 -190 785 -228 m 490 315 b 599 168 490 233 524 168 b 832 426 708 168 799 310 l 843 465 b 740 681 879 592 833 681 b 490 315 593 681 490 460 "},"&":{"ha":1171,"x_min":0,"x_max":0,"o":"m 457 -18 b 111 268 258 -18 111 82 b 351 586 111 406 193 499 b 217 847 250 694 217 763 b 486 1072 217 982 325 1072 b 749 849 635 1072 749 990 b 529 569 749 729 667 639 l 776 318 b 832 467 803 371 821 425 l 975 465 b 863 231 940 379 904 299 l 1078 11 l 1078 0 l 921 0 l 792 133 b 457 -18 708 39 603 -18 m 257 282 b 475 93 257 163 344 92 b 713 215 581 93 657 146 l 421 515 b 257 282 306 443 257 375 m 346 839 b 463 638 346 774 381 724 b 618 839 578 701 618 764 b 488 969 618 931 558 969 b 346 839 404 969 346 926 "},"¶":{"ha":976,"x_min":0,"x_max":0,"o":"m 379 453 b 32 751 193 453 32 529 b 379 1051 32 975 193 1051 l 947 1051 l 947 960 l 789 960 l 789 -192 l 696 -192 l 696 960 l 547 960 l 547 -192 l 453 -192 l 453 453 l 379 453 "},"§":{"ha":849,"x_min":0,"x_max":0,"o":"m 399 -247 b 68 47 222 -247 88 -143 l 188 47 b 397 -154 199 -74 276 -154 b 553 -19 492 -154 553 -99 b 324 214 553 54 493 104 b 56 526 131 338 56 415 b 215 725 56 622 115 688 b 168 864 185 767 168 811 b 426 1069 168 988 265 1069 b 742 797 599 1069 713 969 l 624 797 b 426 976 604 907 539 976 b 285 863 331 976 285 928 b 524 610 285 782 361 715 b 793 296 706 490 793 414 b 633 97 793 199 732 135 b 669 -21 657 63 669 24 b 399 -247 669 -153 565 -247 m 172 536 b 417 281 172 443 257 392 b 575 163 481 236 535 200 b 676 286 639 185 676 224 b 433 540 676 381 593 431 b 274 660 372 583 317 621 b 172 536 210 639 172 599 "},"©":{"ha":1167,"x_min":0,"x_max":0,"o":"m 585 -21 b 72 525 274 -21 72 188 b 585 1072 72 863 274 1072 b 1094 525 893 1072 1094 863 b 585 -21 1094 188 893 -21 m 144 525 b 585 40 144 225 318 40 b 1022 525 849 40 1022 225 b 585 1011 1022 825 849 1011 b 144 525 318 1011 144 825 m 329 526 b 586 836 329 713 432 836 b 832 622 713 836 807 768 l 736 622 b 589 747 721 706 664 747 b 433 526 490 747 433 656 b 586 307 433 407 483 307 b 744 469 671 307 729 369 l 840 469 b 582 218 819 308 717 218 b 329 526 421 218 329 353 "},"®":{"ha":561,"x_min":0,"x_max":0,"o":"m 276 821 l 249 821 l 249 754 l 249 731 l 249 728 l 203 728 l 203 731 l 203 754 l 203 906 l 203 944 l 203 951 l 289 951 b 378 883 349 951 378 929 b 319 824 378 850 357 831 l 390 729 l 390 728 l 339 728 m 65 839 b 281 1053 65 965 153 1053 b 496 839 408 1053 496 965 b 281 624 496 711 408 624 b 65 839 153 624 65 711 m 110 839 b 281 663 110 736 174 663 b 451 839 388 663 451 736 b 281 1014 451 940 388 1014 b 110 839 174 1014 110 940 m 283 850 b 333 883 317 850 333 858 b 283 915 333 906 319 915 l 243 915 l 243 850 "},"℗":{"ha":561,"x_min":0,"x_max":0,"o":"m 204 757 l 204 906 l 204 944 l 204 950 l 288 950 b 378 883 347 950 378 928 b 283 815 378 835 343 815 l 250 815 l 250 757 l 250 729 l 250 728 l 204 728 l 204 729 m 65 839 b 281 1053 65 965 153 1053 b 496 839 408 1053 496 965 b 281 624 496 711 408 624 b 65 839 153 624 65 711 m 110 839 b 281 663 110 736 174 663 b 451 839 388 663 451 736 b 281 1014 451 940 388 1014 b 110 839 174 1014 110 940 m 282 847 b 333 882 318 847 333 857 b 282 915 333 906 318 915 l 250 915 l 250 847 "},"™":{"ha":994,"x_min":0,"x_max":0,"o":"m 522 935 l 522 776 l 522 653 l 522 649 l 449 649 l 449 653 l 449 778 l 449 931 l 449 1046 l 449 1051 l 542 1051 l 678 753 l 810 1051 l 903 1051 l 903 1044 l 903 929 l 903 776 l 903 653 l 903 649 l 825 649 l 825 653 l 825 776 l 825 932 l 693 643 l 658 643 m 32 1051 l 379 1051 l 379 985 b 257 986 326 986 289 986 l 251 986 l 251 778 l 251 653 l 251 649 l 168 649 l 168 653 l 168 778 l 168 986 l 160 986 b 32 985 129 986 85 986 "},"°":{"ha":542,"x_min":0,"x_max":0,"o":"m 271 618 b 33 847 129 618 33 717 b 271 1076 33 978 129 1076 b 508 847 413 1076 508 978 b 271 618 508 717 413 618 m 143 847 b 271 713 143 769 193 713 b 399 847 349 713 399 769 b 271 982 399 925 349 982 b 143 847 193 982 143 925 "},"′":{"ha":274,"x_min":0,"x_max":0,"o":"m 94 1051 l 214 1051 l 100 638 l 28 638 "},"″":{"ha":508,"x_min":0,"x_max":0,"o":"m 94 1051 l 214 1051 l 100 638 l 28 638 m 329 1051 l 449 1051 l 335 638 l 263 638 "},"|":{"ha":331,"x_min":0,"x_max":0,"o":"m 115 1189 l 215 1189 l 215 -165 l 115 -165 "},"¦":{"ha":331,"x_min":0,"x_max":0,"o":"m 115 371 l 215 371 l 215 -165 l 115 -165 m 115 1189 l 215 1189 l 215 657 l 115 657 "},"†":{"ha":688,"x_min":0,"x_max":0,"o":"m 279 671 l 25 671 l 25 778 l 279 778 l 279 1083 l 407 1083 l 407 778 l 663 778 l 663 671 l 407 671 l 407 54 l 279 54 "},"ℓ":{"ha":731,"x_min":0,"x_max":0,"o":"m 432 1074 b 597 883 539 1074 597 999 b 344 449 597 733 508 579 l 344 213 b 413 85 344 126 368 85 b 561 353 472 85 519 172 l 647 333 b 393 -19 599 101 511 -19 b 225 207 282 -19 225 57 l 225 367 b 65 285 176 338 122 310 l 28 368 b 225 478 101 401 168 438 l 225 785 b 432 1074 225 988 321 1074 m 344 574 b 500 882 446 671 500 778 b 433 986 500 936 483 986 b 344 796 379 986 344 926 l 344 574 "},"‡":{"ha":686,"x_min":0,"x_max":0,"o":"m 279 357 l 25 357 l 25 464 l 279 464 l 279 675 l 25 675 l 25 783 l 279 783 l 279 1083 l 407 1083 l 407 783 l 661 783 l 661 675 l 407 675 l 407 464 l 661 464 l 661 357 l 407 357 l 407 56 l 279 56 "},"℮":{"ha":1124,"x_min":0,"x_max":0,"o":"m 579 -22 b 56 471 294 -22 56 175 b 579 954 56 763 296 954 b 1068 471 851 954 1057 763 l 246 471 l 246 132 b 579 6 332 53 447 6 b 979 208 756 6 888 82 l 1019 208 b 579 -22 924 64 764 -22 m 875 501 l 875 814 b 579 928 799 885 696 928 b 246 801 446 928 331 881 l 246 501 "},"№":{"ha":1318,"x_min":0,"x_max":0,"o":"m 251 826 l 251 186 l 251 0 l 121 0 l 121 186 l 121 865 l 121 1051 l 260 1051 l 689 228 l 689 865 l 689 1051 l 819 1051 l 819 865 l 819 0 l 681 0 m 904 882 b 1094 1065 904 988 981 1065 b 1283 882 1207 1065 1283 988 b 1094 699 1283 778 1207 699 b 904 882 981 699 904 778 m 992 882 b 1094 775 992 821 1032 775 b 1196 882 1156 775 1196 821 b 1094 990 1196 944 1156 990 b 992 882 1032 990 992 944 "},"₿":{"ha":910,"x_min":0,"x_max":0,"o":"m 304 0 l 128 0 l 128 186 l 128 865 l 128 1051 l 304 1051 l 304 1288 l 368 1288 l 368 1051 l 442 1051 l 469 1051 l 469 1288 l 533 1288 l 533 1046 b 801 810 711 1025 801 940 b 554 572 801 681 711 592 l 554 565 b 844 293 740 549 844 446 b 533 6 844 136 739 29 l 533 -236 l 469 -236 l 469 0 l 438 0 l 368 0 l 368 -236 l 304 -236 m 440 111 b 699 304 614 111 699 181 b 424 507 699 431 610 507 l 272 507 l 272 111 m 418 614 b 661 790 574 614 661 681 b 438 940 661 889 586 940 l 272 940 l 272 614 "},"¢":{"ha":829,"x_min":0,"x_max":0,"o":"m 322 -8 b 72 346 175 31 72 156 b 429 706 72 575 222 706 b 471 704 443 706 457 706 l 518 928 l 582 928 l 533 693 b 769 443 665 658 749 560 l 636 443 b 510 586 622 497 586 560 l 406 88 b 431 86 414 86 422 86 b 639 274 568 86 625 181 l 772 274 b 422 -21 754 117 638 -21 b 383 -19 410 -21 396 -21 l 339 -232 l 275 -232 m 211 346 b 344 101 211 235 256 139 l 449 599 l 431 599 b 211 346 283 599 211 489 "},"¤":{"ha":781,"x_min":0,"x_max":0,"o":"m 390 206 b 224 253 326 206 269 222 l 114 144 l 57 199 l 165 307 b 108 475 129 351 108 410 b 165 643 108 540 129 599 l 57 751 l 114 806 l 224 697 b 390 744 269 728 326 744 b 557 697 454 744 511 728 l 667 806 l 724 751 l 615 643 b 672 475 651 599 672 540 b 615 307 672 410 651 351 l 724 199 l 667 144 l 557 253 b 390 206 511 222 454 206 m 208 475 b 390 294 208 372 285 294 b 572 475 496 294 572 372 b 390 656 572 578 496 656 b 208 475 285 656 208 578 "},"$":{"ha":942,"x_min":0,"x_max":0,"o":"m 440 -3 b 69 351 229 18 92 147 l 217 351 b 440 113 236 217 314 132 l 440 497 l 424 506 b 131 808 232 594 131 667 b 440 1061 131 956 256 1053 l 440 1274 l 515 1274 l 515 1060 b 860 751 713 1043 835 931 l 714 751 b 515 946 697 858 633 931 l 515 608 l 539 597 b 854 274 750 500 854 425 b 515 -6 854 104 718 -1 l 515 -236 l 440 -236 m 279 817 b 447 640 279 736 331 697 l 447 949 b 279 817 333 943 279 889 m 508 108 b 706 265 631 111 706 171 b 508 465 706 351 650 394 l 508 108 "},"€":{"ha":1224,"x_min":0,"x_max":0,"o":"m 56 622 l 185 622 b 675 1069 219 893 407 1069 b 1149 676 904 1069 1096 944 l 1007 676 b 675 947 963 853 838 947 b 329 622 489 947 360 815 l 792 622 l 792 558 l 322 558 l 322 531 b 325 468 322 510 324 489 l 792 468 l 792 404 l 335 404 b 674 100 372 232 489 100 b 1015 426 860 100 985 233 l 1158 426 b 671 -22 1115 140 926 -22 b 190 404 407 -22 232 157 l 56 404 l 56 468 l 182 468 b 179 528 181 488 179 507 l 179 558 l 56 558 "},"₺":{"ha":1043,"x_min":0,"x_max":0,"o":"m 219 186 l 219 336 l 60 267 l 60 335 l 219 404 l 219 503 l 60 432 l 60 501 l 219 571 l 219 865 l 219 1051 l 374 1051 l 374 865 l 374 639 l 778 817 l 778 749 l 374 571 l 374 472 l 778 650 l 778 582 l 374 404 l 374 106 l 561 106 b 868 428 769 106 868 204 l 1000 428 b 561 0 1000 143 835 0 l 219 0 "},"₹":{"ha":903,"x_min":0,"x_max":0,"o":"m 71 533 l 71 618 l 253 618 b 517 761 408 618 501 665 l 71 761 l 71 825 l 517 825 b 279 964 503 924 425 964 l 71 964 l 71 1051 l 883 1051 l 872 988 l 546 988 b 656 825 608 954 647 899 l 835 825 l 824 761 l 654 761 b 303 546 635 615 488 546 l 213 546 l 719 10 l 719 0 l 553 0 "},"£":{"ha":1006,"x_min":0,"x_max":0,"o":"m 199 -22 b 33 117 88 -22 33 38 b 186 253 33 190 83 253 b 357 186 257 253 300 226 b 369 283 365 215 369 249 b 339 442 369 343 357 394 l 99 442 l 99 506 l 310 506 b 207 793 264 599 207 679 b 533 1071 207 968 331 1071 b 899 742 729 1071 876 958 l 767 742 b 549 969 754 889 669 969 b 363 794 422 969 363 903 b 449 506 363 697 414 614 l 947 506 l 947 442 l 465 442 b 479 317 474 404 479 363 b 439 131 479 249 465 185 b 613 78 499 94 549 78 b 815 344 746 78 815 157 l 947 344 b 636 -21 947 100 826 -21 b 397 65 539 -21 471 13 b 199 -22 349 11 282 -22 m 117 118 b 199 49 117 71 149 49 b 328 119 256 49 299 75 b 194 181 279 157 244 181 b 117 118 143 181 117 157 "},"¥":{"ha":938,"x_min":0,"x_max":0,"o":"m 76 519 l 378 519 l 131 940 b 65 1051 111 972 85 1019 l 229 1051 b 292 936 247 1019 275 968 l 483 593 l 671 936 b 731 1051 688 969 714 1019 l 886 1051 b 822 940 868 1019 842 972 l 581 519 l 882 519 l 882 456 l 556 456 l 556 360 l 882 360 l 882 296 l 556 296 l 556 186 l 556 0 l 403 0 l 403 186 l 403 296 l 76 296 l 76 360 l 403 360 l 403 456 l 76 456 "},"∙":{"ha":813,"x_min":0,"x_max":0,"o":"m 407 394 b 264 538 326 394 264 457 b 407 679 264 617 326 679 b 549 538 486 679 549 617 b 407 394 549 457 486 394 "},"+":{"ha":796,"x_min":0,"x_max":0,"o":"m 342 306 l 82 306 l 82 413 l 343 413 l 343 694 l 456 694 l 456 413 l 714 413 l 714 306 l 454 306 l 454 24 l 342 24 "},"−":{"ha":796,"x_min":0,"x_max":0,"o":"m 82 413 l 714 413 l 714 306 l 82 306 "},"×":{"ha":797,"x_min":0,"x_max":0,"o":"m 128 164 l 324 360 l 128 554 l 203 631 l 400 435 l 594 631 l 669 554 l 475 360 l 669 164 l 594 89 l 400 285 l 203 89 "},"÷":{"ha":796,"x_min":0,"x_max":0,"o":"m 82 411 l 714 411 l 714 308 l 82 308 m 336 175 l 460 175 l 460 44 l 336 44 m 336 675 l 460 675 l 460 543 l 336 543 "},"=":{"ha":796,"x_min":0,"x_max":0,"o":"m 82 536 l 714 536 l 714 433 l 82 433 m 82 286 l 714 286 l 714 183 l 82 183 "},"≠":{"ha":796,"x_min":0,"x_max":0,"o":"m 143 -11 l 258 183 l 82 183 l 82 286 l 319 286 l 406 433 l 82 433 l 82 536 l 467 536 l 596 754 l 639 732 l 524 536 l 714 536 l 714 433 l 463 433 l 375 286 l 714 286 l 714 183 l 314 183 l 186 -33 "},">":{"ha":797,"x_min":0,"x_max":0,"o":"m 90 199 l 569 361 l 90 522 l 90 632 l 722 404 l 722 315 l 90 88 "},"<":{"ha":797,"x_min":0,"x_max":0,"o":"m 75 315 l 75 404 l 707 632 l 707 522 l 228 361 l 707 199 l 707 88 "},"≥":{"ha":797,"x_min":0,"x_max":0,"o":"m 90 224 l 574 382 l 90 540 l 90 643 l 722 422 l 722 340 l 90 121 m 90 94 l 722 94 l 722 0 l 90 0 "},"≤":{"ha":797,"x_min":0,"x_max":0,"o":"m 75 340 l 75 422 l 707 643 l 707 540 l 224 382 l 707 224 l 707 121 m 75 94 l 707 94 l 707 0 l 75 0 "},"±":{"ha":815,"x_min":0,"x_max":0,"o":"m 92 96 l 351 96 l 351 326 l 92 326 l 92 431 l 353 431 l 353 706 l 465 706 l 465 431 l 724 431 l 724 326 l 464 326 l 464 96 l 724 96 l 724 0 l 92 0 "},"≈":{"ha":819,"x_min":0,"x_max":0,"o":"m 58 379 b 250 614 58 532 132 614 b 571 492 389 614 444 492 b 657 614 640 492 657 546 l 761 614 b 568 379 761 461 688 379 b 247 500 425 379 369 500 b 163 379 179 500 163 446 l 58 379 m 58 82 b 250 317 58 235 132 317 b 571 194 389 317 444 194 b 657 317 640 194 657 249 l 761 317 b 568 82 761 164 688 82 b 247 203 425 82 369 203 b 163 82 179 203 163 149 l 58 82 "},"¬":{"ha":799,"x_min":0,"x_max":0,"o":"m 588 374 l 69 374 l 69 481 l 701 481 l 701 86 l 588 86 "},"~":{"ha":819,"x_min":0,"x_max":0,"o":"m 58 246 b 250 481 58 399 132 481 b 571 358 389 481 444 358 b 657 481 640 358 657 413 l 761 481 b 568 246 761 328 688 246 b 247 367 425 246 369 367 b 163 246 179 367 163 313 l 58 246 "},"^":{"ha":797,"x_min":0,"x_max":0,"o":"m 343 1086 l 456 1086 l 664 529 l 542 529 l 399 975 l 256 529 l 133 529 "},"∞":{"ha":1396,"x_min":0,"x_max":0,"o":"m 1050 67 b 699 281 928 67 842 125 b 346 67 554 125 468 67 b 97 360 219 67 97 147 b 347 651 97 571 219 651 b 699 433 469 651 551 590 b 1049 651 844 590 926 651 b 1299 360 1176 651 1299 571 b 1050 67 1299 147 1176 67 m 200 360 b 354 168 200 208 279 168 b 603 331 439 168 499 215 l 629 358 l 603 388 b 356 550 500 504 439 550 b 200 360 279 550 200 511 m 793 331 b 1042 168 897 215 957 168 b 1196 360 1117 168 1196 208 b 1040 550 1196 511 1117 550 b 793 388 957 550 896 504 l 767 358 "},"∫":{"ha":554,"x_min":0,"x_max":0,"o":"m -56 -176 l 17 -176 b 189 10 135 -176 178 -131 l 257 876 b 524 1165 272 1079 349 1165 l 610 1165 l 610 1063 l 557 1063 b 385 876 440 1063 396 1017 l 317 10 b 50 -279 301 -193 225 -279 l -56 -279 "},"∆":{"ha":878,"x_min":0,"x_max":0,"o":"m 10 103 l 360 1051 l 510 1051 l 868 103 l 868 0 l 10 0 m 725 111 l 440 918 l 153 111 "},"∏":{"ha":1069,"x_min":0,"x_max":0,"o":"m 42 936 l 42 1051 l 1028 1051 l 1028 936 l 833 936 l 833 -231 l 690 -231 l 690 936 l 379 936 l 379 -231 l 236 -231 l 236 936 "},"∑":{"ha":825,"x_min":0,"x_max":0,"o":"m 33 -18 l 443 469 l 53 938 l 53 1051 l 785 1051 l 785 940 b 471 944 653 944 567 944 l 200 943 l 576 490 l 576 447 l 167 -35 l 785 -35 l 785 -144 l 33 -144 "},"√":{"ha":860,"x_min":0,"x_max":0,"o":"m 161 415 l 19 415 l 19 503 l 239 503 l 428 -89 l 847 1179 l 944 1179 l 468 -231 l 376 -231 "},"µ":{"ha":842,"x_min":0,"x_max":0,"o":"m 128 -279 b 94 -3 94 -185 94 -93 l 94 493 l 94 679 l 235 679 l 235 493 l 235 267 b 376 86 235 140 285 86 b 575 306 489 86 557 188 l 575 493 l 575 679 l 715 679 l 715 493 l 715 214 b 788 78 715 104 744 78 b 832 90 801 78 819 81 l 832 14 b 729 -8 811 3 774 -8 b 579 178 646 -8 579 47 l 579 182 b 344 -21 544 75 463 -21 b 210 38 285 -21 242 0 l 210 -36 b 238 -279 210 -124 215 -193 l 128 -279 "},"∂":{"ha":908,"x_min":0,"x_max":0,"o":"m 401 -24 b 69 301 192 -24 69 103 b 431 678 69 533 233 678 b 694 526 554 678 647 619 b 239 957 683 769 540 942 l 264 1064 b 839 504 682 1049 839 781 b 401 -24 839 235 701 -24 m 218 300 b 414 85 218 161 294 85 b 685 369 578 85 657 214 b 471 579 681 506 589 579 b 218 300 326 579 218 469 "},"%":{"ha":1053,"x_min":0,"x_max":0,"o":"m 878 1051 l 1008 1051 l 183 0 l 53 0 m 44 842 b 282 1071 44 972 140 1071 b 519 842 424 1071 519 972 b 282 613 519 711 424 613 b 44 842 140 613 44 711 m 154 842 b 282 707 154 764 204 707 b 410 842 360 707 410 764 b 282 976 410 919 360 976 b 154 842 204 976 154 919 m 533 208 b 771 438 533 339 629 438 b 1008 208 913 438 1008 339 b 771 -21 1008 78 913 -21 b 533 208 629 -21 533 78 m 643 208 b 771 74 643 131 693 74 b 899 208 849 74 899 131 b 771 343 899 286 849 343 b 643 208 693 343 643 286 "},"‰":{"ha":1590,"x_min":0,"x_max":0,"o":"m 878 1051 l 1008 1051 l 183 0 l 53 0 m 44 842 b 282 1071 44 972 140 1071 b 519 842 424 1071 519 972 b 282 613 519 711 424 613 b 44 842 140 613 44 711 m 154 842 b 282 707 154 764 204 707 b 410 842 360 707 410 764 b 282 976 410 919 360 976 b 154 842 204 976 154 919 m 533 208 b 771 438 533 339 629 438 b 1008 208 913 438 1008 339 b 771 -21 1008 78 913 -21 b 533 208 629 -21 533 78 m 643 208 b 771 74 643 131 693 74 b 899 208 849 74 899 131 b 771 343 899 286 849 343 b 643 208 693 343 643 286 m 1071 206 b 1308 435 1071 336 1167 435 b 1546 206 1450 435 1546 336 b 1308 -24 1546 75 1450 -24 b 1071 206 1167 -24 1071 75 m 1181 206 b 1308 71 1181 128 1231 71 b 1436 206 1386 71 1436 128 b 1308 340 1436 283 1386 340 b 1181 206 1231 340 1181 283 "},"↑":{"ha":769,"x_min":0,"x_max":0,"o":"m 651 383 l 424 694 l 424 -12 l 346 -12 l 346 694 l 119 383 l 61 432 l 385 858 l 708 432 "},"↗":{"ha":740,"x_min":0,"x_max":0,"o":"m 529 128 l 589 510 l 89 8 l 33 64 l 533 564 l 153 504 l 146 579 l 676 651 l 604 122 "},"→":{"ha":997,"x_min":0,"x_max":0,"o":"m 463 93 l 774 321 l 67 321 l 67 399 l 774 399 l 463 625 l 511 683 l 938 360 l 511 36 "},"↘":{"ha":743,"x_min":0,"x_max":0,"o":"m 681 21 l 150 93 l 157 168 l 538 108 l 38 608 l 93 664 l 593 163 l 533 544 l 608 550 "},"↓":{"ha":771,"x_min":0,"x_max":0,"o":"m 386 -17 l 63 410 l 121 458 l 347 147 l 347 854 l 425 854 l 425 147 l 653 458 l 710 410 "},"↙":{"ha":743,"x_min":0,"x_max":0,"o":"m 208 542 l 149 160 l 649 661 l 704 606 l 204 106 l 585 165 l 592 90 l 61 18 l 133 547 "},"←":{"ha":997,"x_min":0,"x_max":0,"o":"m 60 360 l 486 683 l 535 625 l 224 399 l 931 399 l 931 321 l 224 321 l 535 93 l 486 36 "},"↖":{"ha":740,"x_min":0,"x_max":0,"o":"m 61 651 l 592 579 l 585 504 l 204 564 l 704 64 l 649 8 l 149 510 l 208 128 l 133 122 "},"↔":{"ha":1164,"x_min":0,"x_max":0,"o":"m 58 360 l 467 683 l 514 625 l 219 399 l 946 399 l 650 625 l 699 683 l 1107 360 l 699 36 l 650 93 l 943 321 l 221 321 l 514 93 l 467 36 "},"↕":{"ha":782,"x_min":0,"x_max":0,"o":"m 392 1047 l 715 639 l 657 592 l 431 886 l 431 160 l 657 456 l 715 407 l 392 -1 l 68 407 l 125 456 l 353 163 l 353 885 l 125 592 l 68 639 "},"●":{"ha":1290,"x_min":0,"x_max":0,"o":"m 646 -14 b 1217 535 986 -14 1217 207 b 646 1082 1217 861 986 1082 b 74 535 306 1082 74 861 b 646 -14 74 207 306 -14 "},"○":{"ha":1290,"x_min":0,"x_max":0,"o":"m 646 -26 b 61 535 297 -26 61 200 b 646 1094 61 868 297 1094 b 1229 535 994 1094 1229 868 b 646 -26 1229 200 994 -26 m 142 535 b 646 49 142 246 346 49 b 1149 535 946 49 1149 246 b 646 1019 1149 824 946 1019 b 142 535 346 1019 142 824 "},"◊":{"ha":790,"x_min":0,"x_max":0,"o":"m 69 526 l 374 1051 l 417 1051 l 721 526 l 417 0 l 374 0 m 396 108 l 635 526 l 396 943 l 156 526 "},"̈":{"ha":0,"x_min":0,"x_max":0,"o":"m 293 999 l 422 999 l 422 850 l 293 850 m 67 999 l 196 999 l 196 850 l 67 850 "},"̇":{"ha":0,"x_min":0,"x_max":0,"o":"m 68 1007 l 221 1007 l 221 849 l 68 849 "},"̀":{"ha":0,"x_min":0,"x_max":0,"o":"m 72 1050 l 203 1050 l 329 804 l 263 804 "},"́":{"ha":0,"x_min":0,"x_max":0,"o":"m 196 1050 l 326 1050 l 136 804 l 69 804 "},"̋":{"ha":0,"x_min":0,"x_max":0,"o":"m 389 1050 l 500 1050 l 338 804 l 256 804 m 183 1050 l 294 1050 l 146 804 l 64 804 "},"̂":{"ha":0,"x_min":0,"x_max":0,"o":"m 249 1042 l 335 1042 l 517 804 l 401 804 l 292 956 l 182 804 l 67 804 "},"̌":{"ha":0,"x_min":0,"x_max":0,"o":"m 83 1042 l 199 1042 l 308 890 l 418 1042 l 533 1042 l 351 804 l 265 804 "},"̆":{"ha":0,"x_min":0,"x_max":0,"o":"m 276 804 b 65 1028 138 804 65 892 l 160 1028 b 276 882 160 932 200 882 b 393 1028 354 882 393 932 l 486 1028 b 276 804 486 890 414 804 "},"̊":{"ha":0,"x_min":0,"x_max":0,"o":"m 226 804 b 69 947 132 804 69 864 b 226 1093 69 1033 132 1093 b 388 947 324 1093 388 1033 b 226 804 388 864 324 804 m 136 947 b 226 858 136 894 174 858 b 317 947 281 858 317 894 b 226 1038 317 1003 281 1038 b 136 947 174 1038 136 1003 "},"̃":{"ha":0,"x_min":0,"x_max":0,"o":"m 74 804 b 200 1032 65 942 113 1032 b 397 900 314 1032 311 900 b 450 1032 438 900 458 942 l 515 1032 b 394 803 524 875 478 803 b 196 936 274 803 278 936 b 139 804 151 936 132 876 l 74 804 "},"̄":{"ha":0,"x_min":0,"x_max":0,"o":"m 69 922 l 521 922 l 521 842 l 69 842 "},"̒":{"ha":0,"x_min":0,"x_max":0,"o":"m 203 1060 l 263 1060 l 188 807 l 69 807 "},"̦":{"ha":0,"x_min":0,"x_max":0,"o":"m 35 -319 l 129 -83 l 250 -83 l 89 -346 "},"̧":{"ha":0,"x_min":0,"x_max":0,"o":"m 274 -344 b 72 -254 183 -344 114 -308 l 124 -196 b 258 -274 147 -239 192 -274 b 354 -215 317 -274 354 -251 b 267 -154 354 -178 322 -154 b 199 -169 249 -154 215 -157 l 158 -131 l 265 0 l 343 0 l 268 -89 b 307 -86 281 -87 293 -86 b 457 -210 393 -86 457 -133 b 274 -344 457 -303 364 -344 "},"̨":{"ha":0,"x_min":0,"x_max":0,"o":"m 225 -329 b 93 -201 158 -329 93 -292 b 288 35 93 -79 203 -7 l 317 0 b 190 -185 254 -43 190 -99 b 254 -250 190 -232 222 -250 b 339 -210 292 -250 318 -235 l 339 -282 b 225 -329 313 -311 275 -329 "},"¨":{"ha":494,"x_min":0,"x_max":0,"o":"m 296 999 l 425 999 l 425 850 l 296 850 m 69 999 l 199 999 l 199 850 l 69 850 "},"˙":{"ha":292,"x_min":0,"x_max":0,"o":"m 69 1007 l 222 1007 l 222 849 l 69 849 "},"`":{"ha":396,"x_min":0,"x_max":0,"o":"m 69 1050 l 200 1050 l 326 804 l 260 804 "},"´":{"ha":396,"x_min":0,"x_max":0,"o":"m 196 1050 l 326 1050 l 136 804 l 69 804 "},"˝":{"ha":575,"x_min":0,"x_max":0,"o":"m 394 1050 l 506 1050 l 343 804 l 261 804 m 189 1050 l 300 1050 l 151 804 l 69 804 "},"ˆ":{"ha":589,"x_min":0,"x_max":0,"o":"m 251 1042 l 338 1042 l 519 804 l 404 804 l 294 956 l 185 804 l 69 804 "},"ˇ":{"ha":589,"x_min":0,"x_max":0,"o":"m 69 1042 l 185 1042 l 294 890 l 404 1042 l 519 1042 l 338 804 l 251 804 "},"˘":{"ha":560,"x_min":0,"x_max":0,"o":"m 281 804 b 69 1028 142 804 69 892 l 164 1028 b 281 882 164 932 204 882 b 397 1028 358 882 397 932 l 490 1028 b 281 804 490 890 418 804 "},"˚":{"ha":457,"x_min":0,"x_max":0,"o":"m 226 804 b 69 947 132 804 69 864 b 226 1093 69 1033 132 1093 b 388 947 324 1093 388 1033 b 226 804 388 864 324 804 m 136 947 b 226 858 136 894 174 858 b 317 947 281 858 317 894 b 226 1038 317 1003 281 1038 b 136 947 174 1038 136 1003 "},"˜":{"ha":583,"x_min":0,"x_max":0,"o":"m 71 804 b 197 1032 63 942 110 1032 b 394 900 311 1032 308 900 b 447 1032 435 900 456 942 l 513 1032 b 392 803 521 875 475 803 b 193 936 271 803 275 936 b 136 804 149 936 129 876 l 71 804 "},"¯":{"ha":590,"x_min":0,"x_max":0,"o":"m 69 922 l 521 922 l 521 842 l 69 842 "},"¸":{"ha":524,"x_min":0,"x_max":0,"o":"m 271 -344 b 69 -254 181 -344 111 -308 l 121 -196 b 256 -274 144 -239 189 -274 b 351 -215 314 -274 351 -251 b 264 -154 351 -178 319 -154 b 196 -169 246 -154 213 -157 l 156 -131 l 263 0 l 340 0 l 265 -89 b 304 -86 278 -87 290 -86 b 454 -210 390 -86 454 -133 b 271 -344 454 -303 361 -344 "},"˛":{"ha":385,"x_min":0,"x_max":0,"o":"m 201 -329 b 69 -201 135 -329 69 -292 b 264 35 69 -79 179 -7 l 293 0 b 167 -185 231 -43 167 -99 b 231 -250 167 -232 199 -250 b 315 -210 268 -250 294 -235 l 315 -282 b 201 -329 289 -311 251 -329 "}}}
